<?xml version="1.0" encoding="utf-8"?>
<!-- Generator: Adobe Illustrator 26.2.1, SVG Export Plug-In . SVG Version: 6.00 Build 0)  -->
<svg version="1.1" id="Layer_1" xmlns="http://www.w3.org/2000/svg" xmlns:xlink="http://www.w3.org/1999/xlink" x="0px" y="0px"
	 viewBox="0 0 11 14" style="enable-background:new 0 0 11 14;" xml:space="preserve">
<style type="text/css">
	.st0{fill:#BC1907;}
</style>
<path class="st0" d="M11,7c0-0.8-0.6-1.4-1.4-1.4H8.9V3.5C8.9,1.6,7.4,0,5.5,0S2.1,1.6,2.1,3.5v2.1H1.4C0.6,5.6,0,6.2,0,7v5.6
	C0,13.4,0.6,14,1.4,14h8.2c0.8,0,1.4-0.6,1.4-1.4V7z M3.4,3.5c0-1.2,0.9-2.1,2.1-2.1s2.1,0.9,2.1,2.1v2.1H3.4V3.5z"/>
</svg>
