<?xml version="1.0" encoding="utf-8"?>
<!-- Generator: Adobe Illustrator 26.2.1, SVG Export Plug-In . SVG Version: 6.00 Build 0)  -->
<svg version="1.1" id="Layer_1" xmlns="http://www.w3.org/2000/svg" xmlns:xlink="http://www.w3.org/1999/xlink" x="0px" y="0px"
	 viewBox="0 0 13 16" style="enable-background:new 0 0 13 16;" xml:space="preserve">
<style type="text/css">
	.st0{fill:#BC1907;}
</style>
<path class="st0" d="M6.5,6.5c1.8,0,3.3-1.4,3.3-3.2C9.8,1.4,8.3,0,6.5,0S3.1,1.4,3.1,3.2C3.1,5,4.6,6.5,6.5,6.5z M6.5,1.1
	c1.2,0,2.2,0.9,2.2,2.1c0,1.2-1,2.1-2.2,2.1S4.2,4.4,4.2,3.3C4.2,2.1,5.2,1.1,6.5,1.1z"/>
<path class="st0" d="M8.1,7.6H4.8C2.2,7.6,0,9.8,0,12.5v2.1c0,0.3,0.2,0.6,0.6,0.6s0.6-0.2,0.6-0.6v-2.1c0-2,1.7-3.7,3.7-3.7h3.2
	c2,0,3.7,1.7,3.7,3.7v2.1c0,0.3,0.2,0.6,0.6,0.6s0.6-0.2,0.6-0.6v-2.1C12.9,9.8,10.8,7.6,8.1,7.6z"/>
</svg>
