<?xml version="1.0" encoding="utf-8"?>
<!-- Generator: Adobe Illustrator 26.2.1, SVG Export Plug-In . SVG Version: 6.00 Build 0)  -->
<svg version="1.1" id="Layer_1" xmlns="http://www.w3.org/2000/svg" xmlns:xlink="http://www.w3.org/1999/xlink" x="0px" y="0px"
	 viewBox="0 0 28 40" style="enable-background:new 0 0 28 40;" xml:space="preserve">
<style type="text/css">
	.st0{fill:#B91800;}
	.st1{fill:#FFE9BA;}
</style>
<g id="J7mzFP.tif_00000077319124593417279590000013335016523675121316_">
	<g>
		<path class="st0" d="M9.1,8.6c0-0.1,0.2-0.3,0.2-0.4c0.2-0.4,0.2-0.4,0.2-0.4c0.3-0.5,0.8-0.8,1-0.9c0,0,0.1-0.1,0.3-0.2l0.3-0.2
			c0,0,0.1,0,0.1-0.1c0,0,0.5-0.5,0.9-1.2c0.1-0.1,0.3-0.6,0.8-1.6c0-0.1,0.1-0.1,0.1-0.2c0.1-0.2,0.2-0.4,0.3-0.6
			c0.1-0.2,0.2-0.5,0.2-0.7c0.1-0.2,0.1-0.5,0.5-0.5c0.3,0,0.5,0.1,0.7,0.4c0.5,1.2,1.1,2.4,1.7,3.6c0.2,0.4,0.5,0.7,0.8,0.9
			c0.9,0.5,1.6,1.1,2,2.1c0.1,0.3,0.2,0.3,0.3,0c0.7-0.9,1.6-1.3,2.7-1.2c0.1,0,0.3,0.1,0.5,0.1c0.3,0.1,0.5,0.2,0.5,0.3
			c0,0.1,0,0.1-0.2,0.2c-0.2,0.2-0.2,0.5-0.3,0.8c0,0.2,0,0.4,0,0.5c0,0.7,0,0.8,0.7,1c0.9,0.2,1.5,0.8,2.3,1.4
			c-0.2,0.2-0.4,0.2-0.6,0.2c-0.9,0-1.8,0.2-2.6,0.6c-0.5,0.2-0.8,0.7-1.2,1c-0.4,0.3-0.7,0.7-1.1,0.9c-0.3,0.1-0.3,0.3,0,0.5
			c0.3,0.3,0.6,0.6,0.8,1c0.2,0.3,0.1,0.5-0.1,0.7c-0.5,0.4-0.9,0.7-1.4,1C19,18,18.9,18.2,19,18.5c0.3,0.8,0.9,1.2,1.6,1.4
			c1.2,0.3,2.3,0.9,3,1.9c0.3,0.4,1.1,1.9,0.8,3.6c-0.1,0.6-0.3,1.1-0.6,1.5c-0.1,0.2,0,0.2,0.2,0.3c0.4,0,0.7,0.1,1,0.3
			c0.3,0.1,0.3,0.3,0,0.4c-0.3,0.2-0.6,0.3-0.7,0.7c1-0.5,2.1-0.8,3.1-0.1c-0.1,0-0.3,0.1-0.5,0.3c-1.3,0.8-1.3,1.9-2.6,3
			c-0.1,0.1-0.4,0.3-0.7,0.5c-0.2,0.1-0.4,0.1-0.1,0.3c0.2,0.2,0.3,0.4,0.5,0.7c0.1,0.2,0.1,0.3,0.2,0.5c-0.6-0.4-1.2,0-1.8,0.1
			c-0.3,0.1-0.3,0.1-0.2,0.4c0.1,0.3,0.2,0.6,0.1,0.8c-0.2,0.2-0.4-0.1-0.7-0.1c-0.6-0.1-1.1,0-1.7-0.1c-0.3,0-0.3,0.1-0.2,0.3
			c0.1,0.3,0.2,0.7,0.3,1c0.1,0.3,0,0.3-0.3,0.3c-1.3,0-2.5-0.2-3.6-0.9c-0.3-0.2-0.4-0.1-0.6,0.1c-0.5,0.5-0.8,1.1-1.1,1.8
			c-0.1,0.2-0.1,0.4-0.3,0.6c-0.3-0.7-0.6-1.4-1-2c-0.5-0.6-0.5-0.7-1.2-0.3c-1,0.5-2.1,0.7-3.3,0.7c-0.3,0-0.4-0.1-0.3-0.4
			c0.1-0.3,0.2-0.6,0.3-0.9c0.1-0.2,0-0.4-0.3-0.4c-0.7,0-1.4-0.1-2.1,0.2c-0.3,0.1-0.3,0-0.3-0.2c0-0.3,0.2-0.6,0-0.8
			c-0.2,0-0.6-0.1-0.9-0.1c-0.3-0.1-0.5-0.1-0.7,0.1c-0.1,0-0.3,0.1-0.4,0s0-0.2,0-0.4c0.1-0.4,0.4-0.7,0.8-0.9
			c-0.6-0.4-1.2-0.8-1.7-1.4c-0.4-0.4-0.7-0.9-1-1.4c-0.4-0.6-0.8-1.1-1.6-1.3c0.6-0.4,1.1-0.5,1.7-0.5s1,0.4,1.6,0.5
			c-0.2-0.3-0.5-0.5-0.7-0.7c-0.1-0.1-0.3-0.1-0.3-0.2c0-0.2,0.2-0.2,0.3-0.3c0.3-0.1,0.5-0.2,0.8-0.3c0.4,0,0.3-0.1,0.2-0.4
			c-0.7-1.4-0.8-2.9-0.1-4.3c0.6-1.4,1.7-2.2,3.2-2.5c0.7-0.2,1.3-0.5,1.7-1.1c0.4-0.5,0.3-0.8-0.2-1.1c-0.5-0.3-0.9-0.6-1.3-0.9
			c-0.2-0.2-0.2-0.3-0.1-0.5c0.2-0.4,0.5-0.8,0.8-1.1c0.2-0.2,0.3-0.4,0-0.6c-0.5-0.3-1-0.7-1.4-1.1c-1-1-2.3-1.4-3.7-1.5
			c-0.1,0-0.2,0-0.3,0c0,0,0,0-0.1-0.1C3.3,11.3,4,10.8,5,10.5c0.4-0.1,0.6-0.2,0.5-0.7C5.4,9.2,5.5,8.6,5,8.1C4.8,8,5.1,8,5.2,7.9
			C5.7,7.7,6.4,7.6,7,7.6c0.1,0,0.3,0.1,0.5,0.1C7.6,7.8,7.8,7.9,7.8,8c0.4,0.3,0.8,0.6,1,1.1C9,8.9,9,8.7,9.1,8.6z M7.4,20.2
			c-1,0.2-2,0.6-2.7,1.5c-0.6,0.7-0.6,0.8,0.2,1.1C5,22.9,5.2,22.9,5.3,23c1.8,0.7,3.8,1,5.7,1.2c2.6,0.2,5.1,0.2,7.7-0.2
			c1.4-0.2,2.8-0.5,4.1-1.1c0.7-0.3,0.8-0.4,0.3-1c-0.6-0.8-1.5-1.2-2.4-1.5c-0.4-0.1-0.7-0.1-1,0.1s-0.7,0.3-1.1,0.4
			c-0.4,0.1-1,0.3-1.7,0.4c0,0-0.9,0.2-1.6,0.3C12,22,9.2,21,9.2,21C8.7,20.8,8.1,20.6,7.4,20.2z M8.1,10.7
			C8.2,10.7,8.2,10.8,8.1,10.7C8.2,10.7,8.2,10.7,8.1,10.7c0.1-0.3-0.1-0.4-0.2-0.6c-0.2-0.4-0.6-0.6-0.7-1l0,0
			c0.7,0.3,0.9,1,1.4,1.5C8.7,10.2,9,9.8,8.7,9.4C8.1,8.2,7.1,7.7,5.7,8C5.6,8,5.4,8.1,5.5,8.2c0.3,0.5,0.2,1.1,0.3,1.6
			c0,0.2,0.1,0.4,0.3,0.4C6.8,10.2,7.5,10.5,8.1,10.7z M6.2,27.4C6.2,27.4,6.2,27.3,6.2,27.4L6.2,27.4c0.3,1,0.7,1.9,1.2,2.7
			c1,1.6,2.6,2.3,4.4,2.8c0.1,0,0.3,0,0.4,0c0.2-0.1,0.3-0.2,0-0.4c-0.4-0.2-0.7-0.6-1-0.9c-0.6-0.7-1-1.5-1.5-2.3
			C8.9,28,7.6,27.5,6.2,27.4z M7.5,12.5c0.8,0.3,1.3,0.9,1.7,1.6C9.7,15,10.1,15.2,11,15c-0.3-0.4-0.5-0.8-0.7-1.2
			c-0.3-0.5-0.6-1.1-1-1.6c-1.7-2.1-4.1-2-5.9-0.4c0.1,0,0.2,0.1,0.3,0.1c1.4,0.1,2.4,0.8,3.4,1.8c0.6,0.6,1.3,1.1,2.2,1.2
			c0.1-0.2,0-0.3-0.1-0.4C8.8,13.6,8.1,13.1,7.5,12.5L7.5,12.5z M18.8,18.9L18.8,18.9L18.8,18.9c-0.1-0.7-0.1-0.7-0.8-0.6
			c-0.6,0.1-1.2,0.1-1.7,0.2c-2.1,0.1-4.1,0.1-6.2-0.2c-0.5-0.1-0.8,0-0.8,0.5h0.1c0.4,0,0.7,0.1,0.7,0.5c0,0.3-0.1,0.5-0.3,0.6
			c-0.4,0.1-0.6-0.1-0.7-0.4c-0.1-0.2-0.1-0.1-0.3,0c-0.3,0.2-0.5,0.4-0.8,0.6c1.2,0.7,2.6,0.9,3.9,1.1c1.8,0.2,3.6,0.1,5.3-0.2
			c0.8-0.1,1.6-0.4,2.4-0.7c0.2-0.1,0.3-0.2,0-0.4c-0.2-0.2-0.5-0.4-0.7-0.6c0,0.1-0.1,0.3-0.1,0.4c-0.1,0.2-0.3,0.3-0.5,0.3
			c-0.3,0-0.4-0.2-0.5-0.4c0-0.2,0-0.4,0.2-0.5C18.4,18.7,18.6,18.8,18.8,18.9z M18.7,8.8c0,0,0,0.1,0.1,0.1
			C18.8,8.9,18.8,8.8,18.7,8.8c-0.2-0.9-0.8-1.5-1.6-1.9c-0.6-0.3-1-0.8-1.2-1.4c-0.3-0.8-0.8-1.5-1.1-2.3c0.2,1,0.4,2,0.5,3.1
			c-0.1-0.3-0.2-0.7-0.3-1c-0.2-1-0.5-1.9-0.6-2.9c0-0.2,0-0.3-0.2-0.4c-0.2,0-0.3,0.1-0.3,0.3c-0.4,0.8-0.7,1.6-1.1,2.4
			c-0.5,1-0.9,2-2.1,2.6C10.2,7.4,10,7.7,9.8,8C9.5,8.3,9.3,8.6,9.3,9C9.6,8.6,9.8,8.7,10,9.1c0.1,0.3,0.4,0.5,0.7,0.7
			c0.6,0.4,1.1,0.7,1.6,1.3c0.6-1.1,1.3-2,1.8-3.2C14.6,9,15.2,10,15.9,11c0.5-0.6,1.1-0.9,1.6-1.3c0.3-0.2,0.6-0.4,0.7-0.8
			C18.3,8.7,18.5,8.7,18.7,8.8z M22.4,27.5c0.4-0.1,0.9-0.1,1.1-0.5c0.6-0.9,0.8-1.9,0.7-3c0-0.3-0.1-0.4-0.5-0.3
			c-1.2,0.6-2.6,1-3.9,1.2c-2.5,0.5-5.1,0.6-7.7,0.4c-2.7-0.2-5.4-0.5-7.9-1.7c-0.2-0.1-0.4-0.1-0.4,0.2c0,0.5,0,1,0,1.5
			c0.2,1.3,0.8,2,2,2.3c-0.1-0.2-0.3-0.4-0.4-0.7c1.5,0,2.7,0.5,3.9,1.3c0.1-0.6,0.3-1.1,0.7-1.5c0.1-0.1,0.2-0.2,0.3,0
			c0.5,0.7,1.3,1.1,1.7,1.9c0.6-0.9,1.6-1.3,2-2.5c0.3,1.1,1.2,1.5,1.8,2.2c0.1,0.1,0.2,0.3,0.3,0.1c0.4-0.6,1.1-1,1.5-1.6
			c0.1-0.2,0.3-0.2,0.4,0c0.2,0.3,0.5,0.7,0.5,1.1c0,0.3,0.1,0.3,0.4,0.2c0.8-0.6,1.7-0.9,2.6-1.1c0.3-0.1,0.7-0.2,1,0
			C22.6,27.2,22.5,27.3,22.4,27.5C22.3,27.5,22.3,27.5,22.4,27.5C22.4,27.6,22.4,27.5,22.4,27.5z M13.9,12c0.1,0,0.1,0,0.2,0
			c0,0.1,0,0.1,0,0.2c0.1,0.8,0.1,1.7,0.1,2.6c0,0.2-0.1,0.3,0.1,0.4c0.3,0.1,1.2-0.1,1.4-0.4c0.6-1,0.6-2,0.2-3
			c-0.5-1-1.2-1.9-1.7-2.9c-0.1-0.2-0.2-0.2-0.3,0c-0.5,0.9-1.1,1.8-1.6,2.8c-0.4,0.8-0.5,1.6-0.3,2.4c0.3,1,0.5,1.1,1.5,1.1
			c0.3,0,0.4-0.1,0.4-0.4C13.9,13.8,13.9,12.9,13.9,12z M14,16.9c1.9-0.1,3.8-0.1,5.7-0.4c0.3,0,0.7,0,0.8-0.2
			c0.1-0.3-0.3-0.5-0.5-0.8c-0.3-0.4-0.7-0.5-1.2-0.4c-0.8,0.2-1.7,0.3-2.6,0.3c-2.3,0.1-4.6,0.1-6.8-0.3c-0.6-0.1-1,0.1-1.3,0.5
			C8,15.7,7.9,15.9,7.8,16c-0.2,0.3-0.2,0.4,0.2,0.5C9.9,16.8,11.9,16.8,14,16.9z M12,30.2c0,0.8,0.3,1.5,0.8,2.2
			c0.5,0.6,1.7,0.8,2.3,0.2c1-0.9,1.5-3,0.4-4.2c-0.4-0.4-0.9-0.7-1.2-1.2c-0.1-0.2-0.2-0.1-0.3,0c-0.3,0.4-0.7,0.7-1.1,1.1
			C12.2,28.8,12,29.4,12,30.2z M24.9,11.5c-0.2-0.2-2.3-1.5-4.3-0.8c-1.1,0.4-1.8,1.4-2.1,1.8c-0.5,0.8-0.8,1.5-1,2
			c0.6,0.1,0.9-0.1,1.1-0.2c0.1-0.1,0.3-0.3,0.4-0.5c0.1-0.3,0.3-0.5,0.5-0.6c0.3-0.3,0.5-0.6,0.9-0.6c-0.5,0.6-1,1.1-1.3,1.9
			c0.1,0,0.2,0,0.2,0c0.8-0.2,1.5-0.7,2.1-1.4c0.6-0.6,1.4-1.1,2.3-1.3c0.1,0,0.3-0.1,0.4-0.1C24.3,11.7,24.6,11.6,24.9,11.5z
			 M22,27.3c-1.8,0.2-3.2,1-4,2.6c-0.5,0.9-1,1.8-1.9,2.4c-0.1,0.1-0.3,0.1-0.3,0.3c0.1,0.2,0.3,0.3,0.5,0.2c1.6-0.4,3.1-1,4.1-2.4
			C21.1,29.6,21.4,28.4,22,27.3z M14.1,37.2c0.2-0.6,0.5-0.9,0.8-1.3c0.3-0.4,0.7-0.7,1-1c0.1-0.1,0.2-0.3,0.3-0.5
			c0.2-0.5,0.1-0.8-0.2-1.1c-0.3-0.3-0.6-0.5-1.1-0.3c-0.6,0.3-1.2,0.3-1.8,0c-0.2-0.1-0.4-0.1-0.6,0c-0.8,0.4-0.9,1.2-0.3,1.7
			c0.3,0.3,0.6,0.6,0.9,0.8C13.5,36,13.7,36.6,14.1,37.2z M17.4,32.9C17.4,32.9,17.4,33,17.4,32.9C17.7,33,18,33,18.3,33
			c1.7,0,3.1-0.7,4.1-2.1c0.7-1,1.2-2.2,2.2-3c0.2-0.1,0-0.2-0.1-0.3c-0.4-0.1-0.7-0.1-1.1,0c-0.8,0.2-1.6,0.5-1.9,1.5
			c-0.5,1.4-1.4,2.5-2.8,3.2C18.3,32.5,17.9,32.7,17.4,32.9z M3.3,27.7c0.3,0.3,0.6,0.5,0.8,0.8c0.6,0.8,1.1,1.8,1.7,2.6
			c1.2,1.6,2.9,2.1,4.8,1.8c-0.1-0.1-0.2-0.1-0.4-0.2c-1.9-0.7-3.1-2-3.9-3.8C6,27.8,4.5,27.2,3.3,27.7z M20.1,16.9
			c-4.1,0.4-8.2,0.4-12.4-0.1c0.6,0.5,1.2,1,1.9,1.1c0.9,0.2,1.8,0.3,2.7,0.3c2,0.1,4,0.1,6-0.3C19.1,17.8,19.6,17.4,20.1,16.9z
			 M11.7,15c-0.3-0.8-0.8-1.5-1-2.3c0.6,0.7,0.9,1.6,1.5,2.3c0-0.2-0.1-0.4-0.2-0.5c-0.5-0.9-0.5-1.8-0.1-2.7
			c0.2-0.5,0.1-0.9-0.3-1.1c-0.2-0.1-0.3-0.2-0.5-0.3c-0.5-0.3-0.9-0.6-1.3-1c-0.1-0.2-0.2-0.1-0.4,0C9,9.9,8.9,10.5,8.9,11.2
			c0,0.1,0.1,0.2,0.1,0.3c0.8,0.7,1.2,1.8,1.8,2.7C11,14.5,11.3,14.9,11.7,15z M16.3,15c0.6-0.2,0.7-0.3,1.1-1
			c0.5-0.9,0.9-1.7,1.6-2.4c0.1-0.1,0.2-0.3,0.2-0.4c0-0.6-0.1-1.1-0.4-1.6c-0.2-0.3-0.3-0.4-0.6,0c-0.2,0.3-0.5,0.5-0.8,0.7
			c-0.4,0.2-0.8,0.5-1.1,0.8c-0.2,0.2-0.3,0.4-0.1,0.7c0.3,0.7,0.4,1.4,0.2,2.2c0,0.1-0.1,0.2,0,0.3s0.2-0.1,0.2-0.2
			c0.3-0.5,0.6-1,0.9-1.5C17.3,13.4,16.8,14.2,16.3,15z M26.8,28.6c-0.6-0.1-1-0.1-1.5,0.1c-0.3,0.1-0.7,0.3-1,0.3
			c-0.3,0-0.4,0.1-0.5,0.3c-0.3,0.5-0.6,1.1-1,1.6c-0.5,0.8-1.3,1.3-2,1.9c0.2,0.1,0.4,0,0.6,0c1.6-0.1,2.9-0.8,3.8-2.2
			C25.6,29.9,26,29.2,26.8,28.6z M7.2,32.7c-1.2-0.7-1.9-1.8-2.6-3c-0.3-0.5-0.6-0.8-1.2-0.9c-0.4,0-0.8-0.4-1.2-0.4
			c-0.3,0-0.6-0.1-0.7,0.1s0.3,0.3,0.4,0.5L2,29.1c0.5,0.6,0.9,1.3,1.4,1.9C4.3,32.4,5.7,32.8,7.2,32.7z M16.4,33.2
			c0.3,0.7,0.3,1.3-0.3,1.9c-0.2,0.2-0.1,0.2,0.1,0.3c0.9,0.6,2,0.8,3.1,0.8c0.2,0,0.3-0.1,0.3-0.3c-0.1-0.5-0.3-1-0.5-1.3
			C18.2,33.2,17.9,33.3,16.4,33.2z M9.3,36c0.8,0,2-0.3,2.5-0.6c0.2-0.1,0.3-0.2,0.1-0.5c-0.4-0.5-0.6-1-0.3-1.5
			c0.1-0.1,0.1-0.2-0.1-0.3c-1.1-0.1-1.9,0.3-2.4,1.3C9,34.6,8.8,35,8.7,35.3C8.5,36,8.5,36,9.3,36z M20.5,9.6
			c-0.2,0.3-0.3,0.5-0.5,0.8c-0.1,0.1-0.1,0.2,0,0.3s0.2,0,0.3,0c0.6-0.2,1.1-0.4,1.7-0.4c0.3,0,0.3-0.1,0.3-0.3
			c0-0.4,0-0.8,0.1-1.2C22.6,8,22.6,8,21.8,7.9c-0.2,0-0.3,0-0.5,0C20,8,19,9.4,19.5,10.6C19.9,10.3,20,9.8,20.5,9.6z M15.9,32
			c0.2,0,0.2-0.1,0.3-0.1c0.9-0.8,1.5-1.9,2-2.9c0.3-0.6,0.2-1.2-0.2-1.7c-0.1-0.1-0.1-0.2-0.3,0c-0.4,0.4-0.8,0.7-1.2,1.1
			c-0.3,0.2-0.4,0.6-0.3,0.9C16.5,30.2,16.4,31.1,15.9,32z M12,31.9c-0.2-0.8-0.5-1.5-0.3-2.2c0.2-0.8-0.1-1.4-0.7-1.8
			c-0.2-0.2-0.4-0.4-0.6-0.6c-0.2-0.2-0.3-0.2-0.4,0c-0.3,0.5-0.5,1.1-0.1,1.7c0.5,0.8,1,1.7,1.6,2.5C11.6,31.7,11.7,31.9,12,31.9z
			 M9.7,33.3c-0.6,0-1.1-0.2-1.6-0.2C7,33,6.6,33.3,6.2,34.2c0,0.1-0.1,0.3,0.2,0.3c0.6-0.1,1.2,0,1.8-0.1c0.2,0,0.5,0,0.6-0.3
			C9,33.9,9.3,33.6,9.7,33.3z M18.4,33.3c0.3,0.3,0.6,0.6,0.7,0.9c0.2,0.5,0.5,0.5,0.9,0.5c0.5,0,1.1-0.1,1.6,0.1
			c0.2,0.1,0.3,0,0.2-0.3c-0.1-0.2-0.1-0.4-0.2-0.6C21.3,33.3,21,33,20.3,33C19.7,33.1,19.1,33.3,18.4,33.3z M21.4,33.1
			c0.5,0.8,0.5,0.8,1.4,0.5c0.2,0,0.3-0.1,0.5-0.1c0.1,0,0.3,0.1,0.3-0.1c0-0.2-0.1-0.2-0.2-0.3c-0.2-0.1-0.4-0.2-0.6-0.2
			C22.3,32.9,21.9,33,21.4,33.1z M6.6,33.1c-1.2-0.3-1.8-0.4-2.2,0.4c0.3,0,0.6,0.1,0.9,0.1C6.1,33.9,6.1,33.9,6.6,33.1z"/>
		<path class="st1" d="M22.9,7.9c0,0-0.1,0-0.1-0.1C22.8,7.8,22.8,7.9,22.9,7.9z"/>
		<path class="st1" d="M11.2,6.5C11.1,6.5,11.1,6.5,11.2,6.5C11.1,6.5,11.1,6.5,11.2,6.5z"/>
		<path class="st1" d="M26.2,29.7l0.1-0.1C26.2,29.6,26.2,29.7,26.2,29.7z"/>
		<path class="st1" d="M18.7,8.8c0,0,0.1,0.1,0,0.2C18.7,9,18.7,8.9,18.7,8.8L18.7,8.8z"/>
		<path class="st1" d="M6.2,27.4L6.2,27.4C6.2,27.3,6.2,27.4,6.2,27.4L6.2,27.4z"/>
		<path class="st1" d="M22.4,27.5C22.4,27.5,22.4,27.6,22.4,27.5C22.3,27.5,22.3,27.5,22.4,27.5L22.4,27.5z"/>
		<path class="st1" d="M8.2,10.7L8.2,10.7C8.2,10.8,8.2,10.7,8.2,10.7L8.2,10.7z"/>
		<path class="st1" d="M18.8,18.9L18.8,18.9L18.8,18.9L18.8,18.9z"/>
		<path class="st0" d="M8,21.3c-0.1,0.5-0.3,0.9-0.8,1.1c-0.4,0.2-0.7,0-0.7-0.5c0.1-0.5,0.3-0.9,0.8-1.1C7.6,20.6,8,20.8,8,21.3z"
			/>
		<path class="st0" d="M21.5,21.9c0,0.3-0.1,0.5-0.4,0.5c-0.4,0-1-0.7-1-1.2c0-0.3,0.1-0.5,0.4-0.5C21,20.7,21.5,21.4,21.5,21.9z"/>
		<path class="st0" d="M19.8,22.5c0,0.2,0,0.4-0.3,0.5c-0.2,0.1-0.4,0-0.5-0.2c-0.3-0.3-0.4-0.6-0.5-1c0-0.2,0.1-0.4,0.2-0.5
			c0.2-0.1,0.4,0,0.5,0.1C19.6,21.7,19.8,22.1,19.8,22.5z"/>
		<path class="st0" d="M8.3,22.3c0-0.3,0.2-0.6,0.4-0.8c0.1-0.1,0.3-0.3,0.5-0.2c0.2,0.1,0.3,0.3,0.3,0.5c0,0.5-0.3,0.9-0.7,1.1
			C8.6,23.2,8.3,22.9,8.3,22.3z"/>
		<path class="st0" d="M13.8,22.1c0.2-0.2,0.4,0,0.6,0c0.3,0.4,0.3,0.9,0.1,1.3c-0.1,0.2-0.2,0.4-0.5,0.4c-0.2,0-0.3-0.2-0.4-0.4
			C13.4,22.9,13.5,22.5,13.8,22.1z"/>
		<path class="st0" d="M17.9,22.7c0,0.3,0,0.6-0.4,0.7s-0.5-0.2-0.6-0.5s-0.1-0.5-0.1-0.8c0.1-0.2,0.1-0.4,0.4-0.4
			c0.2,0,0.4,0.1,0.5,0.3C17.9,22.2,18,22.5,17.9,22.7z"/>
		<path class="st0" d="M12.8,22c0.3,0.5,0.3,1,0,1.5c-0.2,0.3-0.6,0.3-0.7,0c-0.2-0.4-0.1-1.1,0.2-1.4C12.4,21.9,12.6,21.9,12.8,22
			L12.8,22z"/>
		<path class="st0" d="M16.2,22.9c-0.1,0.2,0,0.6-0.4,0.7s-0.5-0.2-0.6-0.5c-0.1-0.4-0.1-0.7,0.1-1c0.1-0.1,0.2-0.2,0.4-0.1
			C16.1,22.1,16.2,22.5,16.2,22.9z"/>
		<path class="st0" d="M10.2,22.7c0-0.3,0.1-0.6,0.3-0.8c0.3-0.3,0.6-0.2,0.7,0.1c0.1,0.3,0.1,0.6,0,0.9s-0.3,0.6-0.6,0.5
			C10.2,23.3,10.2,23,10.2,22.7z"/>
		<path class="st0" d="M14.5,7.1c-0.1-1.2-0.4-2.4-0.4-3.7C14.4,4,14.7,6.2,14.5,7.1z"/>
		<path class="st0" d="M13.5,7.1c-0.1-1.1,0-2.2,0.3-3.2C13.8,5,13.8,6.1,13.5,7.1z"/>
		<path class="st0" d="M13,5.7c0.1-0.8,0.2-1.6,0.6-2.4C13.5,4.2,13.3,5,13,5.7z"/>
		<path class="st0" d="M15.5,5.7C15.7,6.1,16,6.5,16.4,7C15.8,6.7,15.5,6.3,15.5,5.7z"/>
		<path class="st0" d="M12.6,5.6c0,0.6-0.2,0.9-0.6,1C12.2,6.3,12.5,6,12.6,5.6z"/>
		<path class="st0" d="M12.7,7.2C12.9,7,13,6.7,13.2,6.5C13.2,6.9,13.2,6.9,12.7,7.2z"/>
		<path class="st0" d="M16.1,19.8c0,0.3-0.2,0.5-0.5,0.5s-0.5-0.2-0.5-0.5s0.2-0.5,0.5-0.6C15.9,19.3,16.1,19.5,16.1,19.8z"/>
		<path class="st0" d="M11.6,19.7c0,0.3-0.2,0.5-0.6,0.5c-0.3,0-0.5-0.2-0.5-0.6c0-0.3,0.2-0.5,0.5-0.5S11.5,19.3,11.6,19.7z"/>
		<path class="st0" d="M16.6,19.5c0-0.2,0.2-0.5,0.5-0.4c0.3,0,0.5,0.2,0.5,0.6c0,0.3-0.2,0.5-0.5,0.5C16.7,20.2,16.5,20,16.6,19.5z
			"/>
		<path class="st0" d="M13,19.8c0,0.3-0.2,0.5-0.5,0.5S12,20.1,12,19.7c0-0.3,0.2-0.5,0.5-0.5C12.8,19.3,13,19.5,13,19.8z"/>
		<path class="st0" d="M14.6,19.9c0,0.3-0.2,0.6-0.5,0.6s-0.5-0.2-0.5-0.5s0.1-0.5,0.5-0.5C14.4,19.4,14.5,19.6,14.6,19.9z"/>
		<path class="st1" d="M7.2,9.2L7.2,9.2C7.1,9.1,7.1,9.1,7.2,9.2C7.2,9.1,7.2,9.2,7.2,9.2L7.2,9.2z"/>
	</g>
</g>
<path class="st0" d="M24.4,23.8"/>
</svg>
