<?xml version="1.0" encoding="utf-8"?>
<!-- Generator: Adobe Illustrator 26.2.1, SVG Export Plug-In . SVG Version: 6.00 Build 0)  -->
<svg version="1.1" id="Layer_1" xmlns="http://www.w3.org/2000/svg" xmlns:xlink="http://www.w3.org/1999/xlink" x="0px" y="0px"
	 viewBox="0 0 60 14" style="enable-background:new 0 0 60 14;" xml:space="preserve">
<style type="text/css">
	.st0{fill:#BC1907;}
	.st1{fill:#B91800;}
	.st2{fill:#FFE9BA;}
	.st3{fill:#FC5A20;}
	.st4{fill:#FFCD00;}
	.st5{opacity:0.5;fill:#FC5A20;}
	.st6{fill:none;}
	
		.st7{clip-path:url(#SVGID_00000078743624874896914590000000881408196602489251_);fill:url(#SVGID_00000034781727137915933720000016239529477271032238_);}
	.st8{fill:#D6AC06;}
	
		.st9{clip-path:url(#SVGID_00000122702602239767301110000006928387121305792932_);fill:url(#SVGID_00000108281572334344944020000010425621672786773424_);}
	.st10{opacity:0.5;}
	.st11{fill:#FFBB56;}
</style>
<g>
	<path class="st0" d="M1.2,7.2c0-0.8,0.1-1.6,0.2-2.3c0-0.3,0.1-0.6,0.1-1c0-0.3,0.4-0.6,0.9-0.6c0.6,0,0.8,0.3,0.8,0.6
		c0,0.3-0.1,0.7-0.1,1C3.1,5.6,3,6.3,3,7.1c0,0.7,0,1.6,0.4,2.2c0.1,0.2,0.3,0.3,0.4,0.3c0.3,0,0.7-0.3,0.9-0.5c0.5-0.6,0.8-1.8,1-3
		c0.1-0.6,0.2-1.2,0.3-1.6C6,4.1,6.1,3.7,6.2,3.6c0.1-0.1,0.3-0.2,0.5-0.2c0.5,0,0.7,0.3,0.7,0.6v0C7.3,5,7.2,6,7.2,7
		c0,1,0.2,1.9,0.6,2.9c0,0.1,0.1,0.1,0.1,0.2c0,0.2-0.2,0.6-0.7,0.6c-0.7,0-1-1-1.1-1.4C5.7,9.9,5,10.7,3.8,10.7
		c-0.4,0-0.7-0.1-1-0.2C1.4,9.8,1.2,8.1,1.2,7.2z"/>
	<path class="st0" d="M8.8,6.9V6.4c0-0.8,0-1.6,0.1-2.4c0-0.3,0.3-0.6,0.8-0.6c0.4,0,0.9,0.2,0.9,0.5v0c0,0.6-0.1,1.2-0.1,1.7
		c0.5-0.9,1.4-2.2,2.9-2.2c1.6,0,2,1.6,2.1,2.3c0.1,1.2,0.2,2.4,0.2,3.7v0.3c0,0.5-0.3,0.7-0.9,0.7c-0.5,0-0.9-0.3-0.9-0.6V9.8
		c0-0.7,0-1.3,0-2c0-0.5,0-1-0.1-1.6c0-0.3-0.1-0.7-0.2-1c0-0.1-0.1-0.2-0.1-0.3c0-0.1-0.1-0.1-0.1-0.1c0,0-0.1,0-0.1,0
		c-0.1,0-0.3,0.1-0.4,0.2c-0.2,0.1-0.3,0.3-0.4,0.3c-1.2,1.3-1.6,3.3-1.8,4.8c-0.1,0.4-0.4,0.5-0.9,0.5c-0.5,0-0.8-0.3-0.8-0.6
		C8.8,9,8.8,7.9,8.8,6.9z"/>
	<path class="st0" d="M17.3,11.2c0.2,0,0.4,0.1,0.5,0.2c0.1,0.1,0.1,0.2,0.2,0.3c0.2,0.3,0.6,0.4,1.1,0.4c0.3,0,0.6-0.1,0.9-0.2
		c1.3-0.5,1.5-1.7,1.5-2.7c0-0.5,0-1-0.1-1.4c-0.5,0.9-1.7,2.3-2.9,2.3c-1.4,0-2-1.1-2-2.2c0-1.5,1.2-3.6,3.3-4.3
		c0.3-0.1,0.6-0.1,0.9-0.1c0.2,0,0.3,0,0.5,0c0.2,0,0.4,0.1,0.6,0.1c0.2,0,0.4,0.1,0.6,0.1c0.3,0.1,0.5,0.2,0.5,0.5c0,0.5,0,1,0,1.5
		c0,0.8,0,1.5,0.1,2.2c0,0.3,0,0.7,0,1c0,0.9-0.1,2.1-0.7,3c-0.6,0.8-1.8,1.5-3.2,1.5c-0.7,0-1.4-0.2-1.8-0.6
		c-0.3-0.3-0.6-0.8-0.6-1.1C16.5,11.6,16.8,11.2,17.3,11.2z M18.4,9.1c0.1,0,0.2,0,0.3-0.1c0.1-0.1,0.2-0.1,0.3-0.2
		c0.6-0.5,1.1-1.2,1.4-1.9c0.3-0.7,0.6-1.5,0.8-2.1c-0.2-0.1-0.4-0.1-0.5-0.1c-0.5,0-0.9,0.3-1.2,0.5c-0.9,0.7-1.5,1.9-1.5,2.9
		C17.8,8.5,17.8,9.1,18.4,9.1z"/>
	<path class="st0" d="M23.9,7.8c0-2,1.5-4.4,4.1-4.4c0.6,0,1.2,0.2,1.7,0.4c0.2,0.1,0.7,0.4,0.7,0.7v0c-0.1,0.9-0.2,1.8-0.2,2.7
		c0,1,0.1,1.8,0.7,2.7c0,0.1,0.1,0.1,0.1,0.2c0,0.3-0.5,0.6-0.9,0.6c-0.3,0-0.5-0.1-0.7-0.3C29,10,28.8,9.1,28.7,8.5
		c-0.5,0.8-1.5,2.1-2.9,2.1C24.3,10.6,23.9,8.8,23.9,7.8z M25.6,9.3c0.1,0.1,0.2,0.1,0.3,0.1c0.3,0,0.7-0.4,1.1-0.8
		c0.7-1,1.5-2.7,1.8-3.9c-0.2-0.1-0.5-0.2-0.8-0.2c-0.4,0-0.7,0.1-1,0.3C25.7,5.5,25.3,7,25.3,8C25.3,8.4,25.3,8.9,25.6,9.3z"/>
	<path class="st0" d="M32.2,8.4c0-1.2-0.1-2.4-0.1-3.6c0-0.9,0-1.7,0.1-2.6c0-0.4,0-0.8,0.1-1.2c0.1-0.3,0.3-0.6,0.8-0.6
		c0.5,0,0.8,0.3,0.8,0.6v0c-0.1,1.3-0.2,2.5-0.2,3.7c0,1.2,0,2.4,0.1,3.6c0,0.6,0.1,1.1,0.1,1.7c0,0.3-0.4,0.6-0.8,0.6
		c-0.5,0-0.8-0.3-0.8-0.6c0-0.2,0-0.3,0-0.5L32.2,8.4z"/>
	<path class="st0" d="M35.4,8.8l0.1-4.1c0-0.2,0-0.5,0-0.8c0-0.3,0.4-0.6,0.9-0.6c0.5,0,0.9,0.2,0.9,0.6c0,0.4,0,0.8,0,1.2l-0.1,4.1
		c0,0.3,0,0.5,0,0.8c0,0.3-0.4,0.6-0.9,0.6c-0.5,0-0.9-0.2-0.9-0.6C35.4,9.6,35.4,9.2,35.4,8.8z M35.6,2c0-0.1,0-0.3,0-0.6
		c0-0.2,0-0.4,0.1-0.5c0.1-0.2,0.5-0.4,0.8-0.4c0.5,0,0.9,0.3,0.9,0.6v0c0,0.4,0,0.7-0.1,1.1c0,0.3-0.3,0.6-0.8,0.6
		c-0.5,0-0.9-0.3-0.9-0.6V2z"/>
	<path class="st0" d="M38.6,12.1c0-0.2,0.2-0.5,0.7-0.5c0.2,0,0.4,0.1,0.5,0.2l0.1,0.1c0.2,0.2,0.4,0.3,1,0.3h0.2
		c2.2-0.2,2.3-2,2.3-3.3V8.6c-0.5,0.8-1.2,1.7-2.6,1.7c-2.2,0-2.4-1.9-2.4-2.9c0-1.1,0.2-2.2,0.4-3.3c0.1-0.3,0.5-0.6,1-0.6
		c0.6,0,0.8,0.3,0.8,0.6c0,0.6-0.2,1.2-0.3,1.8c-0.1,0.5-0.1,1.1-0.1,1.7c0,0.4,0,1.5,0.7,1.5c0.8,0,1.3-1,1.5-1.5
		c0.5-1.1,0.6-2.2,0.8-3.3c0,0,0-0.2,0.1-0.3c0-0.1,0-0.1,0-0.2c0,0,0,0,0-0.1c0,0,0,0,0-0.1c0.2-0.2,0.4-0.3,0.7-0.3
		c0.5,0,1,0.2,1,0.6c0,0.1,0,0.3,0,0.4c0,1.3,0.2,2.6,0.2,4c0,1.1-0.1,2.3-0.9,3.3c-0.8,1-2.1,1.7-3.5,1.7c-1.1,0-1.9-0.4-2.3-1.1
		C38.6,12.4,38.6,12.3,38.6,12.1z"/>
	<path class="st0" d="M49.7,3.3c1.3,0,2.4,0.6,2.4,1.6c0,1.3-1.7,2.7-3.8,2.7c-0.1,0-0.2,0-0.2,0c0.3,1,1.1,1.9,2.8,1.9
		c0.1,0,0.2,0,0.3,0c0.5,0,0.7,0.3,0.7,0.6c0,0.5-0.7,0.6-1.2,0.6c-2.7,0-4.4-1.6-4.4-4C46.2,5.2,47.1,3.3,49.7,3.3z M48.3,6.4
		c0.5,0,1-0.1,1.3-0.3c0.5-0.3,1-0.8,1-1.3c0-0.3-0.3-0.4-0.8-0.4c-1.3,0-1.9,0.9-2,2C48,6.4,48.2,6.4,48.3,6.4z"/>
	<path class="st0" d="M53.4,8.4c0-1.4-0.2-2.8-0.6-4.2c0,0,0-0.1,0-0.1c0-0.4,0.5-0.6,1-0.6c0.4,0,0.6,0.1,0.8,0.4
		c0,0.1,0.1,0.3,0.1,0.4c0,0.1,0,0.3,0.1,0.4c0.1,0.3,0.1,0.7,0.2,1c0.5-0.8,2-2.1,3.1-2.1c0.5,0,0.8,0.3,0.8,0.6
		c0,0.2-0.1,0.4-0.3,0.4c-0.1,0-0.2,0.1-0.3,0.1c-0.1,0-0.2,0-0.3,0.1c-0.9,0.3-1.6,1.2-1.9,1.9c-0.3,0.7-0.5,1.4-0.6,2.1
		c0,0.2-0.1,0.5-0.1,0.8c-0.1,0.6-0.2,1-1,1c-0.6,0-0.9-0.2-0.9-0.6C53.3,9.4,53.4,8.9,53.4,8.4z"/>
</g>
</svg>
