<?xml version="1.0" encoding="utf-8"?>
<!-- Generator: Adobe Illustrator 26.2.1, SVG Export Plug-In . SVG Version: 6.00 Build 0)  -->
<svg version="1.1" id="Layer_1" xmlns="http://www.w3.org/2000/svg" xmlns:xlink="http://www.w3.org/1999/xlink" x="0px" y="0px"
	 viewBox="0 0 17 40" style="enable-background:new 0 0 17 40;" xml:space="preserve">
<style type="text/css">
	.st0{fill:#BC1907;}
	.st1{fill:#B91800;}
	.st2{fill:#FFE9BA;}
	.st3{fill:#FC5A20;}
	.st4{fill:#FFCD00;}
	.st5{opacity:0.5;fill:#FC5A20;}
	.st6{fill:none;}
	
		.st7{clip-path:url(#SVGID_00000066492766799203158000000014588814615564001950_);fill:url(#SVGID_00000008865435405540099320000008091890565215891346_);}
	.st8{fill:#D6AC06;}
	
		.st9{clip-path:url(#SVGID_00000052812111188871206780000006092339242235297703_);fill:url(#SVGID_00000150093034106954120230000011627338771880139412_);}
	.st10{opacity:0.5;}
	.st11{fill:#FFBB56;}
</style>
<g>
	<rect x="8.4" y="0.6" class="st3" width="0.2" height="1.5"/>
	<g>
		<g>
			<path class="st3" d="M8.4,1.4C8.3,2.6,8.4,3.8,8.4,5c0,1.2,0,2.4,0,3.6c0,2.4,0,4.8,0,7.2c0,4.5,0,9.1,0,13.6
				c0,0.7,0,1.5,0.1,2.2c0,0.1,0.1,0.1,0.1,0c0.1-1.7,0.1-3.4,0.1-5.1c0-2.4,0-4.8,0-7.2c0-4.8,0-9.7,0-14.5
				C8.6,3.7,8.6,2.6,8.4,1.4C8.5,1.4,8.4,1.4,8.4,1.4L8.4,1.4z"/>
		</g>
		<g>
			<path class="st4" d="M10.9,21.3c-0.1,0-0.2-0.1-0.3-0.1c0.1-0.1,0.2-0.3,0.1-0.5c-0.1-0.1-0.2-0.2-0.4-0.2
				c0.1-0.1,0.1-0.2,0.1-0.4c-0.1-0.3-0.6-0.4-0.8-0.4c-0.2,0-0.4,0.1-0.5,0.2c0.1-0.2,0.1-0.4,0.2-0.6c0-0.5-0.2-0.9-0.4-0.6
				c-0.1-0.4-0.5-0.3-0.7,0c-0.3-0.4-0.7-0.1-0.7,0.4c-0.1,0-0.2-0.1-0.3-0.1c-0.1,0-0.1,0-0.2,0.1c0,0.4,0.2,0.9,0.4,1.2
				c-0.3-0.1-0.4-0.3-0.7-0.2c-0.3,0-0.7,0.3-0.8,0.6c-0.1,0.3,0.3,0.5,0.6,0.5c-0.1,0.1-0.3,0.2-0.4,0.4c-0.1,0.1,0,0.2,0.1,0.2
				c0.1,0,0.3,0,0.4,0c-0.1,0.2-0.1,0.3-0.1,0.6c0,0.1,0.1,0.2,0.1,0.1c0.2-0.1,0.3-0.1,0.5-0.1c0.1,0.3,0.3,0.4,0.6,0.2
				c0.1-0.1,0.2-0.2,0.3-0.3c0,0.3-0.1,0.5,0,0.8c0.1,0.4,0.3,0.5,0.5,0.3c0.2,0.3,0.6,0.3,0.7-0.1c0.4,0.3,0.7,0,0.6-0.5
				c0.1,0,0.2,0,0.3,0.1c0.1,0,0.1,0,0.1-0.1c0-0.4-0.2-0.7-0.5-1c0.4,0.1,0.8,0.1,1.3-0.2C11,21.5,11,21.4,10.9,21.3z"/>
			<path class="st4" d="M10.3,21.3c-0.1,0-0.1-0.1-0.2-0.1c0.1-0.1,0.2-0.2,0.1-0.3c-0.1-0.1-0.2-0.1-0.3-0.1
				c0.1-0.1,0.1-0.2,0.1-0.3c0-0.3-0.4-0.3-0.6-0.3c-0.2,0-0.3,0.1-0.4,0.2C9,20.1,9.1,20,9.1,19.8c0-0.3-0.1-0.7-0.3-0.5
				c-0.1-0.3-0.4-0.2-0.5,0c-0.2-0.3-0.5-0.1-0.5,0.3c-0.1,0-0.1,0-0.2-0.1c-0.1,0-0.1,0-0.1,0.1c0,0.3,0.1,0.6,0.3,0.9
				c-0.2-0.1-0.3-0.2-0.5-0.2c-0.2,0-0.5,0.2-0.6,0.5c0,0.2,0.2,0.3,0.4,0.4c-0.1,0.1-0.2,0.2-0.3,0.3c0,0.1,0,0.1,0.1,0.1
				c0.1,0,0.2,0,0.3,0C7,21.8,7,21.9,7,22.1c0,0.1,0,0.1,0.1,0.1c0.1,0,0.2-0.1,0.3-0.1c0.1,0.2,0.2,0.3,0.4,0.1
				C7.9,22.1,8,22.1,8,22c0,0.2,0,0.4,0,0.6c0.1,0.3,0.2,0.4,0.4,0.2C8.5,23,8.8,23,8.9,22.7c0.3,0.2,0.5,0,0.4-0.4
				c0.1,0,0.1,0,0.2,0c0,0,0.1,0,0.1-0.1c0-0.3-0.1-0.5-0.3-0.7c0.3,0.1,0.6,0.1,1-0.1C10.3,21.4,10.3,21.3,10.3,21.3z"/>
			<path class="st3" d="M9.9,22.2c0-0.1-0.1-0.1-0.1-0.2c0.1,0,0.3-0.1,0.2-0.3c0-0.1-0.1-0.2-0.2-0.2c0.1,0,0.2-0.1,0.2-0.2
				c0.1-0.2-0.2-0.5-0.4-0.6c-0.1-0.1-0.3-0.1-0.4-0.1c0.1-0.1,0.2-0.2,0.3-0.3c0.2-0.3,0.2-0.6,0-0.5c0.1-0.3-0.2-0.4-0.4-0.2
				c0-0.3-0.4-0.3-0.6,0c0,0-0.1-0.1-0.1-0.2c0,0-0.1-0.1-0.1,0c-0.2,0.3-0.2,0.6-0.2,0.9C8,20.2,7.9,20,7.7,19.9
				C7.5,19.8,7.2,19.8,7,20c-0.2,0.2,0,0.4,0.2,0.5c-0.1,0-0.3,0-0.4,0.1c-0.1,0-0.1,0.1,0,0.1c0.1,0.1,0.2,0.1,0.2,0.2
				c-0.1,0.1-0.2,0.2-0.3,0.3c0,0.1,0,0.1,0,0.1c0.1,0,0.2,0.1,0.3,0.1c-0.1,0.2,0,0.4,0.3,0.3c0.1,0,0.2,0,0.3-0.1
				c-0.1,0.1-0.2,0.3-0.3,0.5c-0.1,0.3,0,0.4,0.2,0.4c0,0.3,0.3,0.4,0.5,0.2c0.1,0.3,0.4,0.3,0.5-0.1c0,0,0.1,0.1,0.2,0.1
				c0,0,0.1,0,0.1,0c0.1-0.2,0.1-0.5,0.1-0.8c0.2,0.2,0.5,0.4,0.9,0.4C9.9,22.3,9.9,22.2,9.9,22.2z"/>
			<path class="st5" d="M9.5,21.9c0,0-0.1-0.1-0.1-0.1c0.1,0,0.2-0.1,0.2-0.2c0-0.1-0.1-0.1-0.1-0.2c0.1,0,0.1-0.1,0.2-0.1
				c0.1-0.2-0.1-0.4-0.3-0.4c-0.1-0.1-0.2-0.1-0.3,0c0.1-0.1,0.2-0.1,0.2-0.2c0.1-0.2,0.2-0.5,0-0.4C9.3,19.9,9.1,19.8,9,20
				c0-0.3-0.3-0.3-0.4,0c0,0-0.1-0.1-0.1-0.1c0,0-0.1,0-0.1,0c-0.1,0.2-0.2,0.4-0.2,0.7c-0.1-0.1-0.1-0.2-0.3-0.3
				c-0.2-0.1-0.4-0.1-0.5,0.1c-0.1,0.1,0,0.3,0.1,0.4c-0.1,0-0.2,0-0.3,0.1c0,0-0.1,0.1,0,0.1c0.1,0,0.1,0.1,0.2,0.1
				c-0.1,0.1-0.1,0.1-0.2,0.2c0,0,0,0.1,0,0.1c0.1,0,0.2,0,0.2,0.1c-0.1,0.2,0,0.3,0.2,0.2c0.1,0,0.1,0,0.2-0.1
				c-0.1,0.1-0.2,0.2-0.2,0.3c-0.1,0.2,0,0.3,0.1,0.3c0,0.2,0.2,0.3,0.3,0.1c0.1,0.3,0.3,0.2,0.4-0.1c0,0,0.1,0.1,0.1,0.1
				c0,0,0.1,0,0.1,0c0.1-0.2,0.1-0.4,0.1-0.6C9,21.9,9.2,22,9.5,21.9C9.5,22,9.5,21.9,9.5,21.9z"/>
			<path class="st4" d="M7.8,21.1C7.8,21.1,7.9,21.2,7.8,21.1c0,0.1,0,0.1,0.1,0.1c0,0,0.1,0,0.1,0c0,0,0,0.1,0,0.1
				c0,0.1,0.2,0.1,0.2,0.1c0.1,0,0.1-0.1,0.1-0.1c0,0.1,0,0.1,0,0.2c0,0.1,0.1,0.2,0.1,0.1c0,0.1,0.2,0.1,0.2-0.1
				c0.1,0.1,0.2,0,0.1-0.1c0,0,0,0,0.1,0c0,0,0,0,0,0c0-0.1-0.1-0.2-0.2-0.3c0.1,0,0.1,0,0.2,0c0.1,0,0.2-0.1,0.2-0.2
				c0-0.1-0.1-0.1-0.2-0.1c0,0,0.1-0.1,0.1-0.1c0,0,0,0,0,0c0,0-0.1,0-0.1,0c0,0,0-0.1,0-0.2c0,0,0,0,0,0c0,0-0.1,0-0.1,0.1
				c0-0.1-0.1-0.1-0.2,0c0,0,0,0.1-0.1,0.1c0-0.1,0-0.1,0-0.2c0-0.1-0.1-0.1-0.1-0.1c-0.1-0.1-0.2,0-0.2,0.1c-0.1-0.1-0.2,0-0.1,0.2
				c0,0,0,0-0.1,0c0,0,0,0,0,0C8,20.8,8,20.9,8.1,21C8,21,7.9,21,7.8,21.1C7.8,21.1,7.8,21.1,7.8,21.1z"/>
		</g>
		<g>
			<path class="st4" d="M10.9,15.8c-0.1,0-0.2-0.1-0.3-0.1c0.1-0.1,0.2-0.3,0.1-0.5c-0.1-0.1-0.2-0.2-0.4-0.2
				c0.1-0.1,0.1-0.2,0.1-0.4c-0.1-0.3-0.6-0.4-0.8-0.4c-0.2,0-0.4,0.1-0.5,0.2c0.1-0.2,0.1-0.4,0.2-0.6c0-0.5-0.2-0.9-0.4-0.6
				c-0.1-0.4-0.5-0.3-0.7,0c-0.3-0.4-0.7-0.1-0.7,0.4c-0.1,0-0.2-0.1-0.3-0.1c-0.1,0-0.1,0-0.2,0.1c0,0.4,0.2,0.9,0.4,1.2
				c-0.3-0.1-0.4-0.3-0.7-0.2c-0.3,0-0.7,0.3-0.8,0.6c-0.1,0.3,0.3,0.5,0.6,0.5c-0.1,0.1-0.3,0.2-0.4,0.4c-0.1,0.1,0,0.2,0.1,0.2
				c0.1,0,0.3,0,0.4,0c-0.1,0.2-0.1,0.3-0.1,0.6c0,0.1,0.1,0.2,0.1,0.1C6.8,17,6.9,17,7.1,16.9c0.1,0.3,0.3,0.4,0.6,0.2
				c0.1-0.1,0.2-0.2,0.3-0.3c0,0.3-0.1,0.5,0,0.8C8,18,8.2,18.1,8.4,17.9c0.2,0.3,0.6,0.3,0.7-0.1c0.4,0.3,0.7,0,0.6-0.5
				c0.1,0,0.2,0,0.3,0.1c0.1,0,0.1,0,0.1-0.1c0-0.4-0.2-0.7-0.5-1c0.4,0.1,0.8,0.1,1.3-0.2C11,16,11,15.9,10.9,15.8z"/>
			<path class="st4" d="M10.3,15.8c-0.1,0-0.1-0.1-0.2-0.1c0.1-0.1,0.2-0.2,0.1-0.3c-0.1-0.1-0.2-0.1-0.3-0.1
				c0.1-0.1,0.1-0.2,0.1-0.3c0-0.3-0.4-0.3-0.6-0.3c-0.2,0-0.3,0.1-0.4,0.2c0.1-0.1,0.1-0.3,0.1-0.4c0-0.3-0.1-0.7-0.3-0.5
				c-0.1-0.3-0.4-0.2-0.5,0c-0.2-0.3-0.5-0.1-0.5,0.3c-0.1,0-0.1,0-0.2-0.1c-0.1,0-0.1,0-0.1,0.1c0,0.3,0.1,0.6,0.3,0.9
				c-0.2-0.1-0.3-0.2-0.5-0.2c-0.2,0-0.5,0.2-0.6,0.5c0,0.2,0.2,0.3,0.4,0.4c-0.1,0.1-0.2,0.2-0.3,0.3c0,0.1,0,0.1,0.1,0.1
				c0.1,0,0.2,0,0.3,0C7,16.3,7,16.4,7,16.6c0,0.1,0,0.1,0.1,0.1c0.1,0,0.2-0.1,0.3-0.1c0.1,0.2,0.2,0.3,0.4,0.1
				C7.9,16.6,8,16.5,8,16.5c0,0.2,0,0.4,0,0.6c0.1,0.3,0.2,0.4,0.4,0.2c0.1,0.3,0.4,0.2,0.5-0.1c0.3,0.2,0.5,0,0.4-0.4
				c0.1,0,0.1,0,0.2,0c0,0,0.1,0,0.1-0.1c0-0.3-0.1-0.5-0.3-0.7c0.3,0.1,0.6,0.1,1-0.1C10.3,15.9,10.3,15.8,10.3,15.8z"/>
			<path class="st3" d="M9.9,16.6c0-0.1-0.1-0.1-0.1-0.2c0.1,0,0.3-0.1,0.2-0.3c0-0.1-0.1-0.2-0.2-0.2c0.1,0,0.2-0.1,0.2-0.2
				c0.1-0.2-0.2-0.5-0.4-0.6c-0.1-0.1-0.3-0.1-0.4-0.1c0.1-0.1,0.2-0.2,0.3-0.3c0.2-0.3,0.2-0.6,0-0.5c0.1-0.3-0.2-0.4-0.4-0.2
				c0-0.3-0.4-0.3-0.6,0c0,0-0.1-0.1-0.1-0.2c0,0-0.1-0.1-0.1,0c-0.2,0.3-0.2,0.6-0.2,0.9c-0.1-0.2-0.2-0.3-0.4-0.4
				c-0.2-0.1-0.5-0.1-0.7,0.1c-0.2,0.2,0,0.4,0.2,0.5c-0.1,0-0.3,0-0.4,0.1c-0.1,0-0.1,0.1,0,0.1c0.1,0.1,0.2,0.1,0.2,0.2
				c-0.1,0.1-0.2,0.2-0.3,0.3c0,0.1,0,0.1,0,0.1c0.1,0,0.2,0.1,0.3,0.1c-0.1,0.2,0,0.4,0.3,0.3c0.1,0,0.2,0,0.3-0.1
				c-0.1,0.1-0.2,0.3-0.3,0.5c-0.1,0.3,0,0.4,0.2,0.4c0,0.3,0.3,0.4,0.5,0.2c0.1,0.3,0.4,0.3,0.5-0.1c0,0,0.1,0.1,0.2,0.1
				c0,0,0.1,0,0.1,0c0.1-0.2,0.1-0.5,0.1-0.8c0.2,0.2,0.5,0.4,0.9,0.4C9.9,16.7,9.9,16.7,9.9,16.6z"/>
			<path class="st5" d="M9.5,16.4c0,0-0.1-0.1-0.1-0.1c0.1,0,0.2-0.1,0.2-0.2c0-0.1-0.1-0.1-0.1-0.2c0.1,0,0.1-0.1,0.2-0.1
				c0.1-0.2-0.1-0.4-0.3-0.4c-0.1-0.1-0.2-0.1-0.3,0c0.1-0.1,0.2-0.1,0.2-0.2c0.1-0.2,0.2-0.5,0-0.4c0.1-0.2-0.1-0.3-0.3-0.2
				c0-0.3-0.3-0.3-0.4,0c0,0-0.1-0.1-0.1-0.1c0,0-0.1,0-0.1,0c-0.1,0.2-0.2,0.4-0.2,0.7c-0.1-0.1-0.1-0.2-0.3-0.3
				c-0.2-0.1-0.4-0.1-0.5,0.1c-0.1,0.1,0,0.3,0.1,0.4c-0.1,0-0.2,0-0.3,0.1c0,0-0.1,0.1,0,0.1c0.1,0,0.1,0.1,0.2,0.1
				c-0.1,0.1-0.1,0.1-0.2,0.2c0,0,0,0.1,0,0.1c0.1,0,0.2,0,0.2,0.1c-0.1,0.2,0,0.3,0.2,0.2c0.1,0,0.1,0,0.2-0.1
				c-0.1,0.1-0.2,0.2-0.2,0.3c-0.1,0.2,0,0.3,0.1,0.3c0,0.2,0.2,0.3,0.3,0.1c0.1,0.3,0.3,0.2,0.4-0.1c0,0,0.1,0.1,0.1,0.1
				c0,0,0.1,0,0.1,0c0.1-0.2,0.1-0.4,0.1-0.6C9,16.3,9.2,16.5,9.5,16.4C9.5,16.4,9.5,16.4,9.5,16.4z"/>
			<path class="st4" d="M7.8,15.6C7.8,15.6,7.9,15.6,7.8,15.6c0,0.1,0,0.1,0.1,0.1c0,0,0.1,0,0.1,0c0,0,0,0.1,0,0.1
				C8,16,8.2,16,8.2,15.9c0.1,0,0.1-0.1,0.1-0.1c0,0.1,0,0.1,0,0.2c0,0.1,0.1,0.2,0.1,0.1c0,0.1,0.2,0.1,0.2-0.1
				c0.1,0.1,0.2,0,0.1-0.1c0,0,0,0,0.1,0c0,0,0,0,0,0c0-0.1-0.1-0.2-0.2-0.3c0.1,0,0.1,0,0.2,0c0.1,0,0.2-0.1,0.2-0.2
				c0-0.1-0.1-0.1-0.2-0.1c0,0,0.1-0.1,0.1-0.1c0,0,0,0,0,0c0,0-0.1,0-0.1,0c0,0,0-0.1,0-0.2c0,0,0,0,0,0c0,0-0.1,0-0.1,0.1
				c0-0.1-0.1-0.1-0.2,0c0,0,0,0.1-0.1,0.1c0-0.1,0-0.1,0-0.2c0-0.1-0.1-0.1-0.1-0.1c-0.1-0.1-0.2,0-0.2,0.1c-0.1-0.1-0.2,0-0.1,0.2
				c0,0,0,0-0.1,0c0,0,0,0,0,0c0,0.1,0.1,0.2,0.2,0.2C8,15.4,7.9,15.5,7.8,15.6C7.8,15.6,7.8,15.6,7.8,15.6z"/>
		</g>
		<g>
			<path class="st4" d="M10.9,10.3c-0.1,0-0.2-0.1-0.3-0.1c0.1-0.1,0.2-0.3,0.1-0.5c-0.1-0.1-0.2-0.2-0.4-0.2
				c0.1-0.1,0.1-0.2,0.1-0.4c-0.1-0.3-0.6-0.4-0.8-0.4c-0.2,0-0.4,0.1-0.5,0.2c0.1-0.2,0.1-0.4,0.2-0.6c0-0.5-0.2-0.9-0.4-0.6
				c-0.1-0.4-0.5-0.3-0.7,0C7.9,7.4,7.5,7.6,7.5,8.1C7.4,8.1,7.4,8.1,7.3,8C7.2,8,7.1,8,7.1,8.1c0,0.4,0.2,0.9,0.4,1.2
				C7.2,9.3,7,9.1,6.7,9.1C6.4,9.2,6,9.4,5.9,9.7c-0.1,0.3,0.3,0.5,0.6,0.5c-0.1,0.1-0.3,0.2-0.4,0.4c-0.1,0.1,0,0.2,0.1,0.2
				c0.1,0,0.3,0,0.4,0c-0.1,0.2-0.1,0.3-0.1,0.6c0,0.1,0.1,0.2,0.1,0.1c0.2-0.1,0.3-0.1,0.5-0.1c0.1,0.3,0.3,0.4,0.6,0.2
				c0.1-0.1,0.2-0.2,0.3-0.3c0,0.3-0.1,0.5,0,0.8c0.1,0.4,0.3,0.5,0.5,0.3c0.2,0.3,0.6,0.3,0.7-0.1c0.4,0.3,0.7,0,0.6-0.5
				c0.1,0,0.2,0,0.3,0.1c0.1,0,0.1,0,0.1-0.1c0-0.4-0.2-0.7-0.5-1c0.4,0.1,0.8,0.1,1.3-0.2C11,10.4,11,10.3,10.9,10.3z"/>
			<path class="st4" d="M10.3,10.2c-0.1,0-0.1-0.1-0.2-0.1c0.1-0.1,0.2-0.2,0.1-0.3C10.1,9.7,10,9.6,9.9,9.6C9.9,9.5,10,9.5,9.9,9.3
				C9.9,9.1,9.5,9,9.3,9C9.2,9,9.1,9.1,9,9.2C9,9.1,9.1,8.9,9.1,8.8c0-0.3-0.1-0.7-0.3-0.5C8.7,8,8.4,8.1,8.3,8.3
				C8,8,7.7,8.2,7.8,8.6c-0.1,0-0.1,0-0.2-0.1c-0.1,0-0.1,0-0.1,0.1c0,0.3,0.1,0.6,0.3,0.9C7.5,9.5,7.4,9.3,7.2,9.4
				c-0.2,0-0.5,0.2-0.6,0.5c0,0.2,0.2,0.3,0.4,0.4c-0.1,0.1-0.2,0.2-0.3,0.3c0,0.1,0,0.1,0.1,0.1c0.1,0,0.2,0,0.3,0
				C7,10.7,7,10.9,7,11c0,0.1,0,0.1,0.1,0.1c0.1,0,0.2-0.1,0.3-0.1c0.1,0.2,0.2,0.3,0.4,0.1C7.9,11.1,8,11,8,10.9c0,0.2,0,0.4,0,0.6
				c0.1,0.3,0.2,0.4,0.4,0.2c0.1,0.3,0.4,0.2,0.5-0.1c0.3,0.2,0.5,0,0.4-0.4c0.1,0,0.1,0,0.2,0c0,0,0.1,0,0.1-0.1
				c0-0.3-0.1-0.5-0.3-0.7c0.3,0.1,0.6,0.1,1-0.1C10.3,10.3,10.3,10.2,10.3,10.2z"/>
			<path class="st3" d="M9.9,11.1c0-0.1-0.1-0.1-0.1-0.2c0.1,0,0.3-0.1,0.2-0.3c0-0.1-0.1-0.2-0.2-0.2c0.1,0,0.2-0.1,0.2-0.2
				c0.1-0.2-0.2-0.5-0.4-0.6C9.6,9.6,9.4,9.6,9.3,9.6c0.1-0.1,0.2-0.2,0.3-0.3c0.2-0.3,0.2-0.6,0-0.5c0.1-0.3-0.2-0.4-0.4-0.2
				c0-0.3-0.4-0.3-0.6,0c0,0-0.1-0.1-0.1-0.2c0,0-0.1-0.1-0.1,0C8.2,8.6,8.1,8.9,8.1,9.2C8,9.1,7.9,8.9,7.7,8.8
				C7.5,8.7,7.2,8.7,7,8.9C6.9,9.1,7,9.3,7.2,9.4c-0.1,0-0.3,0-0.4,0.1c-0.1,0-0.1,0.1,0,0.1C6.9,9.7,6.9,9.8,7,9.8
				C6.9,9.9,6.8,10,6.7,10.1c0,0.1,0,0.1,0,0.1c0.1,0,0.2,0.1,0.3,0.1c-0.1,0.2,0,0.4,0.3,0.3c0.1,0,0.2,0,0.3-0.1
				c-0.1,0.1-0.2,0.3-0.3,0.5c-0.1,0.3,0,0.4,0.2,0.4c0,0.3,0.3,0.4,0.5,0.2c0.1,0.3,0.4,0.3,0.5-0.1c0,0,0.1,0.1,0.2,0.1
				c0,0,0.1,0,0.1,0c0.1-0.2,0.1-0.5,0.1-0.8c0.2,0.2,0.5,0.4,0.9,0.4C9.9,11.2,9.9,11.1,9.9,11.1z"/>
			<path class="st5" d="M9.5,10.8c0,0-0.1-0.1-0.1-0.1c0.1,0,0.2-0.1,0.2-0.2c0-0.1-0.1-0.1-0.1-0.2c0.1,0,0.1-0.1,0.2-0.1
				C9.7,10,9.5,9.8,9.4,9.7c-0.1-0.1-0.2-0.1-0.3,0c0.1-0.1,0.2-0.1,0.2-0.2C9.5,9.3,9.5,9,9.3,9C9.3,8.9,9.1,8.8,9,8.9
				c0-0.3-0.3-0.3-0.4,0c0,0-0.1-0.1-0.1-0.1c0,0-0.1,0-0.1,0C8.2,8.9,8.2,9.2,8.2,9.4C8.1,9.3,8.1,9.2,7.9,9.1C7.8,9,7.5,9,7.4,9.2
				c-0.1,0.1,0,0.3,0.1,0.4c-0.1,0-0.2,0-0.3,0.1c0,0-0.1,0.1,0,0.1c0.1,0,0.1,0.1,0.2,0.1C7.3,9.9,7.2,10,7.2,10.1c0,0,0,0.1,0,0.1
				c0.1,0,0.2,0,0.2,0.1c-0.1,0.2,0,0.3,0.2,0.2c0.1,0,0.1,0,0.2-0.1c-0.1,0.1-0.2,0.2-0.2,0.3c-0.1,0.2,0,0.3,0.1,0.3
				c0,0.2,0.2,0.3,0.3,0.1c0.1,0.3,0.3,0.2,0.4-0.1c0,0,0.1,0.1,0.1,0.1c0,0,0.1,0,0.1,0c0.1-0.2,0.1-0.4,0.1-0.6
				C9,10.8,9.2,10.9,9.5,10.8C9.5,10.9,9.5,10.8,9.5,10.8z"/>
			<path class="st4" d="M7.8,10.1C7.8,10.1,7.9,10.1,7.8,10.1c0,0.1,0,0.1,0.1,0.1c0,0,0.1,0,0.1,0c0,0,0,0.1,0,0.1
				c0,0.1,0.2,0.1,0.2,0.1c0.1,0,0.1-0.1,0.1-0.1c0,0.1,0,0.1,0,0.2c0,0.1,0.1,0.2,0.1,0.1c0,0.1,0.2,0.1,0.2-0.1
				c0.1,0.1,0.2,0,0.1-0.1c0,0,0,0,0.1,0c0,0,0,0,0,0c0-0.1-0.1-0.2-0.2-0.3c0.1,0,0.1,0,0.2,0c0.1,0,0.2-0.1,0.2-0.2
				c0-0.1-0.1-0.1-0.2-0.1C9,9.8,9,9.7,9,9.7c0,0,0,0,0,0c0,0-0.1,0-0.1,0c0,0,0-0.1,0-0.2c0,0,0,0,0,0c0,0-0.1,0-0.1,0.1
				c0-0.1-0.1-0.1-0.2,0c0,0,0,0.1-0.1,0.1c0-0.1,0-0.1,0-0.2c0-0.1-0.1-0.1-0.1-0.1c-0.1-0.1-0.2,0-0.2,0.1C8.1,9.4,8,9.5,8.1,9.6
				c0,0,0,0-0.1,0c0,0,0,0,0,0C8,9.7,8,9.8,8.1,9.9C8,9.9,7.9,9.9,7.8,10.1C7.8,10,7.8,10.1,7.8,10.1z"/>
		</g>
		<g>
			<path class="st4" d="M10.9,4.7c-0.1,0-0.2-0.1-0.3-0.1c0.1-0.1,0.2-0.3,0.1-0.5c-0.1-0.1-0.2-0.2-0.4-0.2
				c0.1-0.1,0.1-0.2,0.1-0.4c-0.1-0.3-0.6-0.4-0.8-0.4c-0.2,0-0.4,0.1-0.5,0.2C9.2,3.2,9.3,3,9.3,2.8c0-0.5-0.2-0.9-0.4-0.6
				c-0.1-0.4-0.5-0.3-0.7,0C7.9,1.8,7.5,2.1,7.5,2.6c-0.1,0-0.2-0.1-0.3-0.1c-0.1,0-0.1,0-0.2,0.1c0,0.4,0.2,0.9,0.4,1.2
				C7.2,3.7,7,3.5,6.7,3.6C6.4,3.6,6,3.8,5.9,4.2C5.9,4.5,6.2,4.6,6.5,4.7C6.4,4.8,6.3,4.9,6.1,5.1c-0.1,0.1,0,0.2,0.1,0.2
				c0.1,0,0.3,0,0.4,0C6.5,5.4,6.5,5.6,6.5,5.8c0,0.1,0.1,0.2,0.1,0.1c0.2-0.1,0.3-0.1,0.5-0.1C7.1,6.1,7.3,6.2,7.6,6
				c0.1-0.1,0.2-0.2,0.3-0.3c0,0.3-0.1,0.5,0,0.8C8,6.9,8.2,7,8.4,6.7C8.5,7.1,9,7,9.1,6.6c0.4,0.3,0.7,0,0.6-0.5
				c0.1,0,0.2,0,0.3,0.1c0.1,0,0.1,0,0.1-0.1c0-0.4-0.2-0.7-0.5-1c0.4,0.1,0.8,0.1,1.3-0.2C11,4.8,11,4.7,10.9,4.7z"/>
			<path class="st4" d="M10.3,4.6c-0.1,0-0.1-0.1-0.2-0.1c0.1-0.1,0.2-0.2,0.1-0.3C10.1,4.1,10,4.1,9.9,4C9.9,4,10,3.9,9.9,3.8
				c0-0.3-0.4-0.3-0.6-0.3C9.2,3.5,9.1,3.5,9,3.6C9,3.5,9.1,3.3,9.1,3.2c0-0.3-0.1-0.7-0.3-0.5c-0.1-0.3-0.4-0.2-0.5,0
				C8,2.5,7.7,2.7,7.8,3C7.7,3,7.6,3,7.6,3C7.5,2.9,7.5,3,7.5,3c0,0.3,0.1,0.6,0.3,0.9C7.5,3.9,7.4,3.8,7.2,3.8
				C6.9,3.8,6.6,4,6.6,4.2c0,0.2,0.2,0.3,0.4,0.4C6.9,4.7,6.8,4.8,6.7,4.9C6.7,5,6.7,5,6.8,5C6.9,5,7,5,7.1,5C7,5.2,7,5.3,7,5.5
				c0,0.1,0,0.1,0.1,0.1c0.1,0,0.2-0.1,0.3-0.1c0.1,0.2,0.2,0.3,0.4,0.1C7.9,5.5,8,5.4,8,5.3c0,0.2,0,0.4,0,0.6
				c0.1,0.3,0.2,0.4,0.4,0.2C8.5,6.4,8.8,6.3,8.9,6c0.3,0.2,0.5,0,0.4-0.4c0.1,0,0.1,0,0.2,0c0,0,0.1,0,0.1-0.1
				c0-0.3-0.1-0.5-0.3-0.7C9.6,5,9.9,5,10.3,4.8C10.3,4.7,10.3,4.7,10.3,4.6z"/>
			<path class="st3" d="M9.9,5.5c0-0.1-0.1-0.1-0.1-0.2c0.1,0,0.3-0.1,0.2-0.3C10,5,9.9,4.9,9.8,4.8c0.1,0,0.2-0.1,0.2-0.2
				c0.1-0.2-0.2-0.5-0.4-0.6C9.6,4,9.4,4,9.3,4c0.1-0.1,0.2-0.2,0.3-0.3c0.2-0.3,0.2-0.6,0-0.5c0.1-0.3-0.2-0.4-0.4-0.2
				c0-0.3-0.4-0.3-0.6,0c0,0-0.1-0.1-0.1-0.2c0,0-0.1-0.1-0.1,0C8.2,3,8.1,3.4,8.1,3.7C8,3.5,7.9,3.3,7.7,3.2C7.5,3.1,7.2,3.1,7,3.3
				C6.9,3.5,7,3.7,7.2,3.9c-0.1,0-0.3,0-0.4,0.1C6.7,4,6.7,4,6.8,4.1C6.9,4.1,6.9,4.2,7,4.2C6.9,4.3,6.8,4.4,6.7,4.5
				c0,0.1,0,0.1,0,0.1c0.1,0,0.2,0.1,0.3,0.1C7,4.9,7.1,5.1,7.4,5C7.5,5,7.6,5,7.7,5C7.5,5.1,7.5,5.3,7.4,5.4
				c-0.1,0.3,0,0.4,0.2,0.4C7.5,6.1,7.8,6.2,8,6c0.1,0.3,0.4,0.3,0.5-0.1c0,0,0.1,0.1,0.2,0.1c0,0,0.1,0,0.1,0
				C8.9,5.8,9,5.5,8.9,5.3c0.2,0.2,0.5,0.4,0.9,0.4C9.9,5.6,9.9,5.6,9.9,5.5z"/>
			<path class="st5" d="M9.5,5.2c0,0-0.1-0.1-0.1-0.1c0.1,0,0.2-0.1,0.2-0.2c0-0.1-0.1-0.1-0.1-0.2c0.1,0,0.1-0.1,0.2-0.1
				c0.1-0.2-0.1-0.4-0.3-0.4c-0.1-0.1-0.2-0.1-0.3,0C9.2,4,9.2,4,9.3,3.9c0.1-0.2,0.2-0.5,0-0.4C9.3,3.3,9.1,3.2,9,3.3
				c0-0.3-0.3-0.3-0.4,0c0,0-0.1-0.1-0.1-0.1c0,0-0.1,0-0.1,0C8.2,3.4,8.2,3.6,8.2,3.9C8.1,3.7,8.1,3.6,7.9,3.5
				C7.8,3.5,7.5,3.5,7.4,3.6C7.3,3.7,7.4,3.9,7.5,4C7.4,4,7.3,4,7.2,4.1c0,0-0.1,0.1,0,0.1c0.1,0,0.1,0.1,0.2,0.1
				C7.3,4.3,7.2,4.4,7.2,4.5c0,0,0,0.1,0,0.1c0.1,0,0.2,0,0.2,0.1c-0.1,0.2,0,0.3,0.2,0.2c0.1,0,0.1,0,0.2-0.1
				C7.8,4.9,7.7,5,7.7,5.2c-0.1,0.2,0,0.3,0.1,0.3c0,0.2,0.2,0.3,0.3,0.1c0.1,0.3,0.3,0.2,0.4-0.1c0,0,0.1,0.1,0.1,0.1
				c0,0,0.1,0,0.1,0C8.8,5.4,8.9,5.2,8.8,5C9,5.2,9.2,5.3,9.5,5.2C9.5,5.3,9.5,5.3,9.5,5.2z"/>
			<path class="st4" d="M7.8,4.5C7.8,4.5,7.9,4.5,7.8,4.5c0,0.1,0,0.1,0.1,0.1c0,0,0.1,0,0.1,0c0,0,0,0.1,0,0.1
				c0,0.1,0.2,0.1,0.2,0.1c0.1,0,0.1-0.1,0.1-0.1c0,0.1,0,0.1,0,0.2C8.4,5,8.5,5.1,8.5,5c0,0.1,0.2,0.1,0.2-0.1C8.8,5,8.9,5,8.8,4.8
				c0,0,0,0,0.1,0c0,0,0,0,0,0c0-0.1-0.1-0.2-0.2-0.3c0.1,0,0.1,0,0.2,0c0.1,0,0.2-0.1,0.2-0.2c0-0.1-0.1-0.1-0.2-0.1
				C9,4.2,9,4.1,9,4.1c0,0,0,0,0,0c0,0-0.1,0-0.1,0c0,0,0-0.1,0-0.2c0,0,0,0,0,0c0,0-0.1,0-0.1,0.1c0-0.1-0.1-0.1-0.2,0
				c0,0,0,0.1-0.1,0.1c0-0.1,0-0.1,0-0.2c0-0.1-0.1-0.1-0.1-0.1c-0.1-0.1-0.2,0-0.2,0.1C8.1,3.8,8,3.9,8.1,4.1c0,0,0,0-0.1,0
				c0,0,0,0,0,0C8,4.2,8,4.3,8.1,4.3C8,4.3,7.9,4.3,7.8,4.5C7.8,4.5,7.8,4.5,7.8,4.5z"/>
		</g>
		<g>
			<path class="st4" d="M11,26.6c-0.1,0-0.2-0.1-0.3-0.1c0.1-0.1,0.2-0.3,0.1-0.5c-0.1-0.1-0.2-0.2-0.4-0.2c0.1-0.1,0.1-0.2,0.1-0.4
				C10.5,25.1,10,25,9.7,25c-0.2,0-0.4,0.1-0.5,0.2c0.1-0.2,0.1-0.4,0.2-0.6c0-0.5-0.2-0.9-0.4-0.6c-0.1-0.4-0.5-0.3-0.7,0
				C8,23.7,7.6,24,7.6,24.5c-0.1,0-0.2-0.1-0.3-0.1c-0.1,0-0.1,0-0.2,0.1c0,0.4,0.2,0.9,0.4,1.2c-0.3-0.1-0.4-0.3-0.7-0.2
				c-0.3,0-0.7,0.3-0.8,0.6c-0.1,0.3,0.3,0.5,0.6,0.5c-0.1,0.1-0.3,0.2-0.4,0.4c-0.1,0.1,0,0.2,0.1,0.2c0.1,0,0.3,0,0.4,0
				c-0.1,0.2-0.1,0.3-0.1,0.6c0,0.1,0.1,0.2,0.1,0.1c0.2-0.1,0.3-0.1,0.5-0.1c0.1,0.3,0.3,0.4,0.6,0.2c0.1-0.1,0.2-0.2,0.3-0.3
				c0,0.3-0.1,0.5,0,0.8c0.1,0.4,0.3,0.5,0.5,0.3c0.2,0.3,0.6,0.3,0.7-0.1c0.4,0.3,0.7,0,0.6-0.5c0.1,0,0.2,0,0.3,0.1
				c0.1,0,0.1,0,0.1-0.1c0-0.4-0.2-0.7-0.5-1c0.4,0.1,0.8,0.1,1.3-0.2C11.1,26.7,11.1,26.6,11,26.6z"/>
			<path class="st4" d="M10.4,26.5c-0.1,0-0.1-0.1-0.2-0.1c0.1-0.1,0.2-0.2,0.1-0.3C10.2,26,10.1,26,10,26c0.1-0.1,0.1-0.2,0.1-0.3
				c0-0.3-0.4-0.3-0.6-0.3c-0.2,0-0.3,0.1-0.4,0.2c0.1-0.1,0.1-0.3,0.1-0.4c0-0.3-0.1-0.7-0.3-0.5c-0.1-0.3-0.4-0.2-0.5,0
				c-0.2-0.3-0.5-0.1-0.5,0.3c-0.1,0-0.1,0-0.2-0.1c-0.1,0-0.1,0-0.1,0.1c0,0.3,0.1,0.6,0.3,0.9c-0.2-0.1-0.3-0.2-0.5-0.2
				c-0.2,0-0.5,0.2-0.6,0.5c0,0.2,0.2,0.3,0.4,0.4c-0.1,0.1-0.2,0.2-0.3,0.3c0,0.1,0,0.1,0.1,0.1c0.1,0,0.2,0,0.3,0
				c-0.1,0.1-0.1,0.3-0.1,0.4c0,0.1,0,0.1,0.1,0.1c0.1,0,0.2-0.1,0.3-0.1c0.1,0.2,0.2,0.3,0.4,0.1c0.1-0.1,0.1-0.1,0.2-0.2
				c0,0.2,0,0.4,0,0.6c0.1,0.3,0.2,0.4,0.4,0.2c0.1,0.3,0.4,0.2,0.5-0.1c0.3,0.2,0.5,0,0.4-0.4c0.1,0,0.1,0,0.2,0c0,0,0.1,0,0.1-0.1
				c0-0.3-0.1-0.5-0.3-0.7c0.3,0.1,0.6,0.1,1-0.1C10.4,26.6,10.4,26.6,10.4,26.5z"/>
			<path class="st3" d="M10,27.4c0-0.1-0.1-0.1-0.1-0.2c0.1,0,0.3-0.1,0.2-0.3c0-0.1-0.1-0.2-0.2-0.2c0.1,0,0.2-0.1,0.2-0.2
				c0.1-0.2-0.2-0.5-0.4-0.6c-0.1-0.1-0.3-0.1-0.4-0.1c0.1-0.1,0.2-0.2,0.3-0.3c0.2-0.3,0.2-0.6,0-0.5c0.1-0.3-0.2-0.4-0.4-0.2
				c0-0.3-0.4-0.3-0.6,0c0,0-0.1-0.1-0.1-0.2c0,0-0.1-0.1-0.1,0c-0.2,0.3-0.2,0.6-0.2,0.9c-0.1-0.2-0.2-0.3-0.4-0.4
				c-0.2-0.1-0.5-0.1-0.7,0.1c-0.2,0.2,0,0.4,0.2,0.5c-0.1,0-0.3,0-0.4,0.1c-0.1,0-0.1,0.1,0,0.1C7,26,7,26.1,7.1,26.1
				c-0.1,0.1-0.2,0.2-0.3,0.3c0,0.1,0,0.1,0,0.1c0.1,0,0.2,0.1,0.3,0.1c-0.1,0.2,0,0.4,0.3,0.3c0.1,0,0.2,0,0.3-0.1
				c-0.1,0.1-0.2,0.3-0.3,0.5c-0.1,0.3,0,0.4,0.2,0.4c0,0.3,0.3,0.4,0.5,0.2c0.1,0.3,0.4,0.3,0.5-0.1c0,0,0.1,0.1,0.2,0.1
				c0,0,0.1,0,0.1,0C9,27.7,9.1,27.4,9,27.2c0.2,0.2,0.5,0.4,0.9,0.4C10,27.5,10,27.5,10,27.4z"/>
			<path class="st5" d="M9.6,27.1c0,0-0.1-0.1-0.1-0.1c0.1,0,0.2-0.1,0.2-0.2c0-0.1-0.1-0.1-0.1-0.2c0.1,0,0.1-0.1,0.2-0.1
				c0.1-0.2-0.1-0.4-0.3-0.4C9.4,26,9.3,26,9.2,26c0.1-0.1,0.2-0.1,0.2-0.2c0.1-0.2,0.2-0.5,0-0.4c0.1-0.2-0.1-0.3-0.3-0.2
				c0-0.3-0.3-0.3-0.4,0c0,0-0.1-0.1-0.1-0.1c0,0-0.1,0-0.1,0c-0.1,0.2-0.2,0.4-0.2,0.7c-0.1-0.1-0.1-0.2-0.3-0.3
				c-0.2-0.1-0.4-0.1-0.5,0.1c-0.1,0.1,0,0.3,0.1,0.4c-0.1,0-0.2,0-0.3,0.1c0,0-0.1,0.1,0,0.1c0.1,0,0.1,0.1,0.2,0.1
				c-0.1,0.1-0.1,0.1-0.2,0.2c0,0,0,0.1,0,0.1c0.1,0,0.2,0,0.2,0.1c-0.1,0.2,0,0.3,0.2,0.2c0.1,0,0.1,0,0.2-0.1
				c-0.1,0.1-0.2,0.2-0.2,0.3c-0.1,0.2,0,0.3,0.1,0.3c0,0.2,0.2,0.3,0.3,0.1c0.1,0.3,0.3,0.2,0.4-0.1c0,0,0.1,0.1,0.1,0.1
				c0,0,0.1,0,0.1,0c0.1-0.2,0.1-0.4,0.1-0.6C9.1,27.1,9.3,27.2,9.6,27.1C9.6,27.2,9.6,27.2,9.6,27.1z"/>
			<path class="st4" d="M7.9,26.4C7.9,26.4,8,26.4,7.9,26.4c0,0.1,0,0.1,0.1,0.1c0,0,0.1,0,0.1,0c0,0,0,0.1,0,0.1
				c0,0.1,0.2,0.1,0.2,0.1c0.1,0,0.1-0.1,0.1-0.1c0,0.1,0,0.1,0,0.2c0,0.1,0.1,0.2,0.1,0.1c0,0.1,0.2,0.1,0.2-0.1
				c0.1,0.1,0.2,0,0.1-0.1c0,0,0,0,0.1,0c0,0,0,0,0,0c0-0.1-0.1-0.2-0.2-0.3c0.1,0,0.1,0,0.2,0c0.1,0,0.2-0.1,0.2-0.2
				c0-0.1-0.1-0.1-0.2-0.1c0,0,0.1-0.1,0.1-0.1c0,0,0,0,0,0c0,0-0.1,0-0.1,0c0,0,0-0.1,0-0.2c0,0,0,0,0,0c0,0-0.1,0-0.1,0.1
				c0-0.1-0.1-0.1-0.2,0c0,0,0,0.1-0.1,0.1c0-0.1,0-0.1,0-0.2c0-0.1-0.1-0.1-0.1-0.1c-0.1-0.1-0.2,0-0.2,0.1c-0.1-0.1-0.2,0-0.1,0.2
				c0,0,0,0-0.1,0c0,0,0,0,0,0c0,0.1,0.1,0.2,0.2,0.2C8.1,26.2,8,26.2,7.9,26.4C7.9,26.4,7.9,26.4,7.9,26.4z"/>
		</g>
		<g>
			<path class="st4" d="M10.9,32.3c-0.1,0-0.2-0.1-0.3-0.1c0.1-0.1,0.2-0.3,0.1-0.5c-0.1-0.1-0.2-0.2-0.4-0.2
				c0.1-0.1,0.1-0.2,0.1-0.4c-0.1-0.3-0.6-0.4-0.8-0.4c-0.2,0-0.4,0.1-0.5,0.2c0.1-0.2,0.1-0.4,0.2-0.6c0-0.5-0.2-0.9-0.4-0.6
				c-0.1-0.4-0.5-0.3-0.7,0c-0.3-0.4-0.7-0.1-0.7,0.4c-0.1,0-0.2-0.1-0.3-0.1c-0.1,0-0.1,0-0.2,0.1c0,0.4,0.2,0.9,0.4,1.2
				c-0.3-0.1-0.4-0.3-0.7-0.2c-0.3,0-0.7,0.3-0.8,0.6c-0.1,0.3,0.3,0.5,0.6,0.5c-0.1,0.1-0.3,0.2-0.4,0.4c-0.1,0.1,0,0.2,0.1,0.2
				c0.1,0,0.3,0,0.4,0c-0.1,0.2-0.1,0.3-0.1,0.6c0,0.1,0.1,0.2,0.1,0.1c0.2-0.1,0.3-0.1,0.5-0.1c0.1,0.3,0.3,0.4,0.6,0.2
				c0.1-0.1,0.2-0.2,0.3-0.3c0,0.3-0.1,0.5,0,0.8c0.1,0.4,0.3,0.5,0.5,0.3c0.2,0.3,0.6,0.3,0.7-0.1c0.4,0.3,0.7,0,0.6-0.5
				c0.1,0,0.2,0,0.3,0.1c0.1,0,0.1,0,0.1-0.1c0-0.4-0.2-0.7-0.5-1c0.4,0.1,0.8,0.1,1.3-0.2C11,32.4,11,32.3,10.9,32.3z"/>
			<path class="st4" d="M10.3,32.2c-0.1,0-0.1-0.1-0.2-0.1c0.1-0.1,0.2-0.2,0.1-0.3c-0.1-0.1-0.2-0.1-0.3-0.1
				c0.1-0.1,0.1-0.2,0.1-0.3c0-0.3-0.4-0.3-0.6-0.3c-0.2,0-0.3,0.1-0.4,0.2c0.1-0.1,0.1-0.3,0.1-0.4c0-0.3-0.1-0.7-0.3-0.5
				c-0.1-0.3-0.4-0.2-0.5,0C8,30,7.7,30.2,7.8,30.6c-0.1,0-0.1,0-0.2-0.1c-0.1,0-0.1,0-0.1,0.1c0,0.3,0.1,0.6,0.3,0.9
				c-0.2-0.1-0.3-0.2-0.5-0.2c-0.2,0-0.5,0.2-0.6,0.5c0,0.2,0.2,0.3,0.4,0.4c-0.1,0.1-0.2,0.2-0.3,0.3c0,0.1,0,0.1,0.1,0.1
				c0.1,0,0.2,0,0.3,0C7,32.7,7,32.9,7,33c0,0.1,0,0.1,0.1,0.1c0.1,0,0.2-0.1,0.3-0.1c0.1,0.2,0.2,0.3,0.4,0.1C7.9,33.1,8,33,8,32.9
				c0,0.2,0,0.4,0,0.6c0.1,0.3,0.2,0.4,0.4,0.2c0.1,0.3,0.4,0.2,0.5-0.1c0.3,0.2,0.5,0,0.4-0.4c0.1,0,0.1,0,0.2,0c0,0,0.1,0,0.1-0.1
				c0-0.3-0.1-0.5-0.3-0.7c0.3,0.1,0.6,0.1,1-0.1C10.3,32.3,10.3,32.2,10.3,32.2z"/>
			<path class="st3" d="M9.9,33.1c0-0.1-0.1-0.1-0.1-0.2c0.1,0,0.3-0.1,0.2-0.3c0-0.1-0.1-0.2-0.2-0.2c0.1,0,0.2-0.1,0.2-0.2
				c0.1-0.2-0.2-0.5-0.4-0.6c-0.1-0.1-0.3-0.1-0.4-0.1c0.1-0.1,0.2-0.2,0.3-0.3c0.2-0.3,0.2-0.6,0-0.5c0.1-0.3-0.2-0.4-0.4-0.2
				c0-0.3-0.4-0.3-0.6,0c0,0-0.1-0.1-0.1-0.2c0,0-0.1-0.1-0.1,0c-0.2,0.3-0.2,0.6-0.2,0.9c-0.1-0.2-0.2-0.3-0.4-0.4
				c-0.2-0.1-0.5-0.1-0.7,0.1c-0.2,0.2,0,0.4,0.2,0.5c-0.1,0-0.3,0-0.4,0.1c-0.1,0-0.1,0.1,0,0.1c0.1,0.1,0.2,0.1,0.2,0.2
				c-0.1,0.1-0.2,0.2-0.3,0.3c0,0.1,0,0.1,0,0.1c0.1,0,0.2,0.1,0.3,0.1c-0.1,0.2,0,0.4,0.3,0.3c0.1,0,0.2,0,0.3-0.1
				c-0.1,0.1-0.2,0.3-0.3,0.5c-0.1,0.3,0,0.4,0.2,0.4c0,0.3,0.3,0.4,0.5,0.2c0.1,0.3,0.4,0.3,0.5-0.1c0,0,0.1,0.1,0.2,0.1
				c0,0,0.1,0,0.1,0c0.1-0.2,0.1-0.5,0.1-0.8c0.2,0.2,0.5,0.4,0.9,0.4C9.9,33.2,9.9,33.1,9.9,33.1z"/>
			<path class="st5" d="M9.5,32.8c0,0-0.1-0.1-0.1-0.1c0.1,0,0.2-0.1,0.2-0.2c0-0.1-0.1-0.1-0.1-0.2c0.1,0,0.1-0.1,0.2-0.1
				c0.1-0.2-0.1-0.4-0.3-0.4c-0.1-0.1-0.2-0.1-0.3,0c0.1-0.1,0.2-0.1,0.2-0.2c0.1-0.2,0.2-0.5,0-0.4c0.1-0.2-0.1-0.3-0.3-0.2
				c0-0.3-0.3-0.3-0.4,0c0,0-0.1-0.1-0.1-0.1c0,0-0.1,0-0.1,0c-0.1,0.2-0.2,0.4-0.2,0.7c-0.1-0.1-0.1-0.2-0.3-0.3
				C7.8,31,7.5,31,7.4,31.2c-0.1,0.1,0,0.3,0.1,0.4c-0.1,0-0.2,0-0.3,0.1c0,0-0.1,0.1,0,0.1c0.1,0,0.1,0.1,0.2,0.1
				c-0.1,0.1-0.1,0.1-0.2,0.2c0,0,0,0.1,0,0.1c0.1,0,0.2,0,0.2,0.1c-0.1,0.2,0,0.3,0.2,0.2c0.1,0,0.1,0,0.2-0.1
				c-0.1,0.1-0.2,0.2-0.2,0.3c-0.1,0.2,0,0.3,0.1,0.3c0,0.2,0.2,0.3,0.3,0.1c0.1,0.3,0.3,0.2,0.4-0.1c0,0,0.1,0.1,0.1,0.1
				c0,0,0.1,0,0.1,0c0.1-0.2,0.1-0.4,0.1-0.6C9,32.8,9.2,32.9,9.5,32.8C9.5,32.9,9.5,32.8,9.5,32.8z"/>
			<path class="st4" d="M7.8,32.1C7.8,32.1,7.9,32.1,7.8,32.1c0,0.1,0,0.1,0.1,0.1c0,0,0.1,0,0.1,0c0,0,0,0.1,0,0.1
				c0,0.1,0.2,0.1,0.2,0.1c0.1,0,0.1-0.1,0.1-0.1c0,0.1,0,0.1,0,0.2c0,0.1,0.1,0.2,0.1,0.1c0,0.1,0.2,0.1,0.2-0.1
				c0.1,0.1,0.2,0,0.1-0.1c0,0,0,0,0.1,0c0,0,0,0,0,0c0-0.1-0.1-0.2-0.2-0.3c0.1,0,0.1,0,0.2,0c0.1,0,0.2-0.1,0.2-0.2
				c0-0.1-0.1-0.1-0.2-0.1c0,0,0.1-0.1,0.1-0.1c0,0,0,0,0,0c0,0-0.1,0-0.1,0c0,0,0-0.1,0-0.2c0,0,0,0,0,0c0,0-0.1,0-0.1,0.1
				c0-0.1-0.1-0.1-0.2,0c0,0,0,0.1-0.1,0.1c0-0.1,0-0.1,0-0.2c0-0.1-0.1-0.1-0.1-0.1c-0.1-0.1-0.2,0-0.2,0.1c-0.1-0.1-0.2,0-0.1,0.2
				c0,0,0,0-0.1,0c0,0,0,0,0,0c0,0.1,0.1,0.2,0.2,0.2C8,31.9,7.9,31.9,7.8,32.1C7.8,32,7.8,32.1,7.8,32.1z"/>
		</g>
		<g>
			<path class="st4" d="M7.9,35.6c0,0.6,0.2,1.2,0.6,1.2c0.3,0,0.6-0.5,0.6-1.1c0-0.6-0.2-1.2-0.6-1.2C8.2,34.4,7.9,34.9,7.9,35.6z"
				/>
			<path class="st4" d="M6.7,38.6c1-0.7,0.1-3.1,1.7-3.1c1.7,0,0.6,2.4,1.6,3.2c0.1,0,0.1,0.1,0,0.2c-0.4,0.7-1.7,0.6-2.4,0.5
				c-0.4-0.1-0.7-0.2-1-0.6C6.6,38.7,6.7,38.6,6.7,38.6z"/>
			<path class="st6" d="M6.7,38.6c1-0.7,0.1-3.1,1.7-3.1c1.7,0,0.6,2.4,1.6,3.2c0.1,0,0.1,0.1,0,0.2c-0.4,0.7-1.7,0.6-2.4,0.5
				c-0.4-0.1-0.7-0.2-1-0.6C6.6,38.7,6.7,38.6,6.7,38.6z"/>
			<g>
				<defs>
					<path id="SVGID_00000036249304992030795820000007634494205671486904_" d="M6.7,38.6c1-0.7,0.1-3.1,1.7-3.1
						c1.7,0,0.6,2.4,1.6,3.2c0.1,0,0.1,0.1,0,0.2c-0.4,0.7-1.7,0.6-2.4,0.5c-0.4-0.1-0.7-0.2-1-0.6C6.6,38.7,6.7,38.6,6.7,38.6z"/>
				</defs>
				<clipPath id="SVGID_00000020388849164230620930000016168936697603699347_">
					<use xlink:href="#SVGID_00000036249304992030795820000007634494205671486904_"  style="overflow:visible;"/>
				</clipPath>
				
					<linearGradient id="SVGID_00000097491235776323521750000005714999935074220477_" gradientUnits="userSpaceOnUse" x1="6.3754" y1="39.5504" x2="10.7322" y2="39.5504">
					<stop  offset="0" style="stop-color:#D8C257"/>
					<stop  offset="1" style="stop-color:#D6B71D"/>
				</linearGradient>
				
					<path style="clip-path:url(#SVGID_00000020388849164230620930000016168936697603699347_);fill:url(#SVGID_00000097491235776323521750000005714999935074220477_);" d="
					M7.7,38.8l0.2-0.3l0.2,0.4c0.8-0.4,2.3-0.1,2.3-0.1l0.4,1c0,0.1-1.5,0.8-1.5,0.8s-2.5-0.2-2.6-0.2c0-0.1-0.3-1.7-0.3-1.7
					C6.6,38.4,7.7,38.8,7.7,38.8z"/>
			</g>
			<g>
				<path class="st8" d="M8.6,37.7c-0.1,0.4-0.1,0.7-0.1,1.1c0,0-0.1,0-0.1,0c0-1.1,0.5-2.1-0.1-3.2c0,0,0-0.1,0.1,0
					C8.7,36.2,8.7,36.9,8.6,37.7z"/>
				<path class="st8" d="M7.6,38.7C7.6,38.7,7.6,38.7,7.6,38.7c0.3-1-0.1-2.6,0.5-3.3c0,0,0.1,0,0,0C7.5,36.2,7.9,37.8,7.6,38.7z"/>
				<path class="st8" d="M9,38.7C8.9,38.7,8.9,38.6,9,38.7c-0.4-1.1,0.3-2.2-0.4-3.2c0,0,0-0.1,0.1,0C9,36,9,36.5,9,37.1
					c0,0.4-0.1,0.8-0.1,1.2C8.9,38.4,9,38.6,9,38.7C9,38.7,9,38.7,9,38.7z"/>
			</g>
			<path class="st4" d="M9.1,35.8c-0.4-0.2-0.8-0.2-1.3,0c-0.2,0.1-0.3-0.2-0.1-0.2c0.5-0.2,1-0.2,1.5,0C9.4,35.6,9.3,35.9,9.1,35.8
				L9.1,35.8z"/>
		</g>
	</g>
</g>
</svg>
