<?xml version="1.0" encoding="utf-8"?>
<!-- Generator: Adobe Illustrator 26.2.1, SVG Export Plug-In . SVG Version: 6.00 Build 0)  -->
<svg version="1.1" id="Layer_1" xmlns="http://www.w3.org/2000/svg" xmlns:xlink="http://www.w3.org/1999/xlink" x="0px" y="0px"
	 viewBox="0 0 60 40" style="enable-background:new 0 0 60 40;" xml:space="preserve">
<style type="text/css">
	.st0{fill:#BC1907;}
	.st1{fill:#B91800;}
	.st2{fill:#FFE9BA;}
	.st3{fill:#FC5A20;}
	.st4{fill:#FFCD00;}
	.st5{opacity:0.5;fill:#FC5A20;}
	.st6{fill:none;}
	
		.st7{clip-path:url(#SVGID_00000095338520796559716650000007601273032057995170_);fill:url(#SVGID_00000180343609592739112470000013979720220648702357_);}
	.st8{fill:#D6AC06;}
	
		.st9{clip-path:url(#SVGID_00000064354814937790351260000003960026413880961678_);fill:url(#SVGID_00000041993444206599879210000017136573849641432729_);}
	.st10{opacity:0.5;}
	.st11{fill:#FFBB56;}
</style>
<g id="J7mzFP.tif">
	<g>
		<path class="st1" d="M25.1,8.6c0-0.1,0.2-0.3,0.2-0.4c0.2-0.4,0.2-0.4,0.2-0.4c0.3-0.5,0.8-0.8,1-0.9c0,0,0.1-0.1,0.3-0.2
			c0,0,0.3-0.2,0.3-0.2c0,0,0.1,0,0.1-0.1c0,0,0,0,0,0c0,0,0.5-0.5,0.9-1.2c0.1-0.1,0.3-0.6,0.8-1.6c0-0.1,0.1-0.1,0.1-0.2
			c0.1-0.2,0.2-0.4,0.3-0.6c0.1-0.2,0.2-0.5,0.2-0.7c0.1-0.2,0.1-0.5,0.5-0.5c0.3,0,0.5,0.1,0.7,0.4c0.5,1.2,1.1,2.4,1.7,3.6
			c0.2,0.4,0.5,0.7,0.8,0.9c0.9,0.5,1.6,1.1,2,2.1c0.1,0.3,0.2,0.3,0.3,0c0.7-0.9,1.6-1.3,2.7-1.2c0.1,0,0.3,0.1,0.5,0.1
			c0.3,0.1,0.5,0.2,0.5,0.3c0,0.1,0,0.1-0.2,0.2c-0.2,0.2-0.2,0.5-0.3,0.8c0,0.2,0,0.4,0,0.5c0,0.7,0,0.8,0.7,1
			c0.9,0.2,1.5,0.8,2.3,1.4c-0.2,0.2-0.4,0.2-0.6,0.2c-0.9,0-1.8,0.2-2.6,0.6c-0.5,0.2-0.8,0.7-1.2,1c-0.4,0.3-0.7,0.7-1.1,0.9
			c-0.3,0.1-0.3,0.3,0,0.5c0.3,0.3,0.6,0.6,0.8,1c0.2,0.3,0.1,0.5-0.1,0.7c-0.5,0.4-0.9,0.7-1.4,1C35,18,34.9,18.2,35,18.5
			c0.3,0.8,0.9,1.2,1.6,1.4c1.2,0.3,2.3,0.9,3,1.9c0,0.1,0.1,0.2,0.2,0.3c0.2,0.5,0.4,1.1,0.5,1.6c0,0,0,0.1,0.1,0.1
			c0.1,1.1,0,2.2-0.6,3.1c-0.1,0.2,0,0.2,0.2,0.3c0.4,0,0.7,0.1,1,0.3c0.3,0.1,0.3,0.3,0,0.4c-0.3,0.2-0.6,0.3-0.7,0.7
			c1-0.5,2.1-0.8,3.1-0.1c-0.1,0-0.3,0.1-0.5,0.3c-1.3,0.8-1.3,1.9-2.6,3c-0.1,0.1-0.4,0.3-0.7,0.5c-0.2,0.1-0.4,0.1-0.1,0.3
			c0.2,0.2,0.3,0.4,0.5,0.7c0.1,0.2,0.1,0.3,0.2,0.5c-0.6-0.4-1.2,0-1.8,0.1c-0.3,0.1-0.3,0.1-0.2,0.4c0.1,0.3,0.2,0.6,0.1,0.8
			c-0.2,0.2-0.4-0.1-0.7-0.1c-0.6-0.1-1.1,0-1.7-0.1c-0.3,0-0.3,0.1-0.2,0.3c0.1,0.3,0.2,0.7,0.3,1c0.1,0.3,0,0.3-0.3,0.3
			c-1.3,0-2.5-0.2-3.6-0.9c-0.3-0.2-0.4-0.1-0.6,0.1c-0.5,0.5-0.8,1.1-1.1,1.8c-0.1,0.2-0.1,0.4-0.3,0.6c-0.3-0.7-0.6-1.4-1-2
			c-0.5-0.6-0.5-0.7-1.2-0.3c-1,0.5-2.1,0.7-3.3,0.7c-0.3,0-0.4-0.1-0.3-0.4c0.1-0.3,0.2-0.6,0.3-0.9c0.1-0.2,0-0.4-0.3-0.4
			c-0.7,0-1.4-0.1-2.1,0.2c-0.3,0.1-0.3,0-0.3-0.2c0-0.3,0.2-0.6,0-0.8c-0.2-0.2-0.6-0.2-0.9-0.3c-0.3-0.1-0.5-0.1-0.7,0.1
			C20.2,34,20,34.1,19.9,34c-0.1-0.1,0-0.2,0-0.4c0.1-0.4,0.4-0.7,0.8-0.9c-0.6-0.4-1.2-0.8-1.7-1.4c-0.4-0.4-0.7-0.9-1-1.4
			c-0.4-0.6-0.8-1.1-1.6-1.3c0.6-0.4,1.1-0.5,1.7-0.5c0.6,0,1,0.4,1.6,0.5c-0.2-0.3-0.5-0.5-0.7-0.7c-0.1-0.1-0.3-0.1-0.3-0.2
			c0-0.2,0.2-0.2,0.3-0.3c0.3-0.1,0.5-0.2,0.8-0.3c0.4,0,0.3-0.1,0.2-0.4c-0.7-1.4-0.8-2.9-0.1-4.3c0.6-1.4,1.7-2.2,3.2-2.5
			c0.7-0.2,1.3-0.5,1.7-1.1c0.4-0.5,0.3-0.8-0.2-1.1c-0.5-0.3-0.9-0.6-1.3-0.9c-0.2-0.2-0.2-0.3-0.1-0.5c0.2-0.4,0.5-0.8,0.8-1.1
			c0.2-0.2,0.3-0.4,0-0.6c-0.5-0.3-1-0.7-1.4-1.1c-1-1-2.3-1.4-3.7-1.5c-0.1,0-0.2,0-0.3,0c0,0,0,0-0.1-0.1c0.7-0.6,1.5-1.2,2.4-1.5
			c0.4-0.1,0.6-0.2,0.5-0.7c-0.1-0.6,0-1.2-0.5-1.6C20.8,8,21.1,8,21.2,7.9c0.6-0.3,1.2-0.3,1.8-0.3c0.1,0,0.3,0.1,0.5,0.1
			c0.1,0.1,0.2,0.1,0.3,0.2c0.4,0.3,0.8,0.6,1,1.1C25,8.9,25,8.7,25.1,8.6z M30.7,21.5c-0.1,0-0.3,0-0.4,0c-0.5,0-1,0-1.5,0
			c-0.1,0-0.3-0.1-0.4-0.1c-1.6-0.1-3.2-0.4-4.6-1.2c-0.1-0.1-0.2-0.1-0.4,0c-1,0.2-2,0.6-2.7,1.5c-0.6,0.7-0.6,0.8,0.2,1.1
			c0.1,0.1,0.3,0.1,0.4,0.2c1.8,0.7,3.8,1,5.7,1.2c2.6,0.2,5.1,0.2,7.7-0.2c1.4-0.2,2.8-0.5,4.1-1.1c0.7-0.3,0.8-0.4,0.3-1
			c-0.6-0.8-1.5-1.2-2.4-1.5c-0.4-0.1-0.7-0.1-1,0.1c-0.3,0.2-0.7,0.3-1.1,0.4c-1.1,0.4-2.2,0.5-3.3,0.7
			C31.3,21.5,31,21.5,30.7,21.5z M24.1,10.7C24.2,10.7,24.2,10.8,24.1,10.7C24.2,10.7,24.2,10.7,24.1,10.7c0.1-0.3-0.1-0.4-0.2-0.6
			c-0.2-0.4-0.6-0.6-0.7-1l0,0c0.7,0.3,0.9,1,1.4,1.5c0.1-0.4,0.3-0.9,0.1-1.2c-0.7-1.2-1.7-1.8-3-1.4c-0.1,0-0.3,0.1-0.2,0.2
			c0.3,0.5,0.2,1.1,0.3,1.6c0,0.2,0.1,0.4,0.3,0.4C22.8,10.2,23.5,10.5,24.1,10.7z M22.2,27.4C22.2,27.4,22.2,27.3,22.2,27.4
			C22.2,27.4,22.2,27.4,22.2,27.4c0.3,1,0.7,1.9,1.2,2.7c1,1.6,2.6,2.3,4.4,2.8c0.1,0,0.3,0,0.4,0c0.2-0.1,0.3-0.2,0-0.4
			c-0.4-0.2-0.7-0.6-1-0.9c-0.6-0.7-1-1.5-1.5-2.3C24.9,28,23.6,27.5,22.2,27.4z M23.5,12.5c0.8,0.3,1.3,0.9,1.7,1.6
			c0.5,0.9,0.9,1.1,1.8,0.9c-0.3-0.4-0.5-0.8-0.7-1.2c-0.3-0.5-0.6-1.1-1-1.6c-1.7-2.1-4.1-2-5.9-0.4c0.1,0,0.2,0.1,0.3,0.1
			c1.4,0.1,2.4,0.8,3.4,1.8c0.6,0.6,1.3,1.1,2.2,1.2c0.1-0.2,0-0.3-0.1-0.4C24.8,13.6,24.1,13.1,23.5,12.5L23.5,12.5z M34.8,18.9
			C34.8,18.9,34.8,18.9,34.8,18.9C34.8,18.9,34.8,18.9,34.8,18.9c-0.1-0.7-0.1-0.7-0.8-0.6c-0.6,0.1-1.2,0.1-1.7,0.2
			c-2.1,0.1-4.1,0.1-6.2-0.2c-0.5-0.1-0.8,0-0.8,0.5c0,0,0.1,0,0.1,0c0.4,0,0.7,0.1,0.7,0.5c0,0.3-0.1,0.5-0.3,0.6
			c-0.4,0.1-0.6-0.1-0.7-0.4c-0.1-0.2-0.1-0.1-0.3,0c-0.3,0.2-0.5,0.4-0.8,0.6c1.2,0.7,2.6,0.9,3.9,1.1c1.8,0.2,3.6,0.1,5.3-0.2
			c0.8-0.1,1.6-0.4,2.4-0.7c0.2-0.1,0.3-0.2,0-0.4c-0.2-0.2-0.5-0.4-0.7-0.6c0,0.1-0.1,0.3-0.1,0.4c-0.1,0.2-0.3,0.3-0.5,0.3
			c-0.3,0-0.4-0.2-0.5-0.4c0-0.2,0-0.4,0.2-0.5C34.4,18.7,34.6,18.8,34.8,18.9z M34.7,8.8c0,0,0,0.1,0.1,0.1
			C34.8,8.9,34.8,8.8,34.7,8.8c-0.2-0.9-0.8-1.5-1.6-1.9c-0.6-0.3-1-0.8-1.2-1.4c-0.3-0.8-0.8-1.5-1.1-2.3c0.2,1,0.4,2,0.5,3.1
			c-0.1-0.3-0.2-0.7-0.3-1c-0.2-1-0.5-1.9-0.6-2.9c0-0.2,0-0.3-0.2-0.4c-0.2,0-0.3,0.1-0.3,0.3c-0.4,0.8-0.7,1.6-1.1,2.4
			c-0.5,1-0.9,2-2.1,2.6C26.2,7.4,26,7.7,25.8,8c-0.2,0.3-0.4,0.5-0.4,1c0.3-0.4,0.5-0.3,0.6,0.1c0.1,0.3,0.4,0.5,0.7,0.7
			c0.6,0.4,1.1,0.7,1.6,1.3c0.6-1.1,1.3-2,1.8-3.2C30.6,9,31.2,10,31.9,11c0.5-0.6,1.1-0.9,1.6-1.3c0.3-0.2,0.6-0.4,0.7-0.8
			C34.3,8.7,34.5,8.7,34.7,8.8z M38.4,27.5c0.4-0.1,0.9-0.1,1.1-0.5c0.6-0.9,0.8-1.9,0.7-3c0-0.3-0.1-0.4-0.5-0.3
			c-1.2,0.6-2.6,1-3.9,1.2c-2.5,0.5-5.1,0.6-7.7,0.4c-2.7-0.2-5.4-0.5-7.9-1.7c-0.2-0.1-0.4-0.1-0.4,0.2c0,0.5,0,1,0,1.5
			c0.2,1.3,0.8,2,2,2.3c-0.1-0.2-0.3-0.4-0.4-0.7c1.5,0,2.7,0.5,3.9,1.3c0.1-0.6,0.3-1.1,0.7-1.5c0.1-0.1,0.2-0.2,0.3,0
			c0.5,0.7,1.3,1.1,1.7,1.9c0.6-0.9,1.6-1.3,2-2.5c0.3,1.1,1.2,1.5,1.8,2.2c0.1,0.1,0.2,0.3,0.3,0.1c0.4-0.6,1.1-1,1.5-1.6
			c0.1-0.2,0.3-0.2,0.4,0c0.2,0.3,0.5,0.7,0.5,1.1c0,0.3,0.1,0.3,0.4,0.2c0.8-0.6,1.7-0.9,2.6-1.1c0.3-0.1,0.7-0.2,1,0
			C38.6,27.2,38.5,27.3,38.4,27.5C38.3,27.5,38.3,27.5,38.4,27.5C38.4,27.6,38.4,27.5,38.4,27.5z M29.9,12c0.1,0,0.1,0,0.2,0
			c0,0.1,0,0.1,0,0.2c0.1,0.8,0.1,1.7,0.1,2.6c0,0.2-0.1,0.3,0.1,0.4c0.3,0.1,1.2-0.1,1.4-0.4c0.6-1,0.6-2,0.2-3
			c-0.5-1-1.2-1.9-1.7-2.9c-0.1-0.2-0.2-0.2-0.3,0c-0.5,0.9-1.1,1.8-1.6,2.8c-0.4,0.8-0.5,1.6-0.3,2.4c0.3,1,0.5,1.1,1.5,1.1
			c0.3,0,0.4-0.1,0.4-0.4C29.9,13.8,29.9,12.9,29.9,12z M30,16.9c1.9-0.1,3.8-0.1,5.7-0.4c0.3,0,0.7,0,0.8-0.2
			c0.1-0.3-0.3-0.5-0.5-0.8c-0.3-0.4-0.7-0.5-1.2-0.4c-0.8,0.2-1.7,0.3-2.6,0.3c-2.3,0.1-4.6,0.1-6.8-0.3c-0.6-0.1-1,0.1-1.3,0.5
			c-0.1,0.1-0.2,0.3-0.3,0.4c-0.2,0.3-0.2,0.4,0.2,0.5C25.9,16.8,27.9,16.8,30,16.9z M28,30.2c0,0.8,0.3,1.5,0.8,2.2
			c0.5,0.6,1.7,0.8,2.3,0.2c1-0.9,1.5-3,0.4-4.2c-0.4-0.4-0.9-0.7-1.2-1.2c-0.1-0.2-0.2-0.1-0.3,0c-0.3,0.4-0.7,0.7-1.1,1.1
			C28.2,28.8,28,29.4,28,30.2z M40.8,11.7c-1.3-0.9-2.7-1.6-4.3-0.9c-1.9,0.8-2.5,2.6-3.4,4.1c0.7,0.1,1.3,0,1.6-0.7
			c0.1-0.3,0.3-0.5,0.5-0.7c0.3-0.3,0.5-0.6,1-0.7c-0.6,0.6-1.1,1.2-1.4,2.1c0.1,0,0.2,0,0.2,0c0.9-0.2,1.7-0.8,2.3-1.5
			c0.7-0.7,1.5-1.2,2.5-1.4C40.1,11.9,40.4,11.9,40.8,11.7z M38,27.3c-1.8,0.2-3.2,1-4,2.6c-0.5,0.9-1,1.8-1.9,2.4
			c-0.1,0.1-0.3,0.1-0.3,0.3c0.1,0.2,0.3,0.3,0.5,0.2c1.6-0.4,3.1-1,4.1-2.4C37.1,29.6,37.4,28.4,38,27.3z M30.1,37.6
			c0.2-0.6,0.5-1,0.8-1.4c0.3-0.4,0.7-0.8,1-1.1c0.1-0.1,0.2-0.3,0.3-0.5c0.2-0.5,0.1-0.9-0.2-1.2c-0.3-0.3-0.6-0.5-1.1-0.3
			c-0.6,0.3-1.2,0.3-1.8,0c-0.2-0.1-0.4-0.1-0.6,0c-0.8,0.4-0.9,1.3-0.3,1.9c0.3,0.3,0.6,0.6,0.9,0.9C29.5,36.3,29.7,36.9,30.1,37.6
			z M33.4,32.9C33.4,32.9,33.4,33,33.4,32.9C33.7,33,34,33,34.3,33c1.7,0,3.1-0.7,4.1-2.1c0.7-1,1.2-2.2,2.2-3
			c0.2-0.1,0-0.2-0.1-0.3c-0.4-0.1-0.7-0.1-1.1,0c-0.8,0.2-1.6,0.5-1.9,1.5c-0.5,1.4-1.4,2.5-2.8,3.2C34.3,32.5,33.9,32.7,33.4,32.9
			z M19.3,27.7c0.3,0.3,0.6,0.5,0.8,0.8c0.6,0.8,1.1,1.8,1.7,2.6c1.2,1.6,2.9,2.1,4.8,1.8c-0.1-0.1-0.2-0.1-0.4-0.2
			c-1.9-0.7-3.1-2-3.9-3.8C22,27.8,20.5,27.2,19.3,27.7z M36.1,16.9c-4.1,0.4-8.2,0.4-12.4-0.1c0.6,0.5,1.2,1,1.9,1.1
			c0.9,0.2,1.8,0.3,2.7,0.3c2,0.1,4,0.1,6-0.3C35.1,17.8,35.6,17.4,36.1,16.9z M27.7,15c-0.3-0.8-0.8-1.5-1-2.3
			c0.6,0.7,0.9,1.6,1.5,2.3c0-0.2-0.1-0.4-0.2-0.5c-0.5-0.9-0.5-1.8-0.1-2.7c0.2-0.5,0.1-0.9-0.3-1.1c-0.2-0.1-0.3-0.2-0.5-0.3
			c-0.5-0.3-0.9-0.6-1.3-1c-0.1-0.2-0.2-0.1-0.4,0c-0.4,0.6-0.6,1.2-0.5,1.9c0,0.1,0.1,0.2,0.1,0.3c0.8,0.7,1.2,1.8,1.8,2.7
			C27,14.5,27.3,14.9,27.7,15z M32.3,15c0.6-0.2,0.7-0.3,1.1-1c0.5-0.9,0.9-1.7,1.6-2.4c0.1-0.1,0.2-0.3,0.2-0.4
			c0-0.6-0.1-1.1-0.4-1.6c-0.2-0.3-0.3-0.4-0.6,0c-0.2,0.3-0.5,0.5-0.8,0.7c-0.4,0.2-0.8,0.5-1.1,0.8c-0.2,0.2-0.3,0.4-0.1,0.7
			c0.3,0.7,0.4,1.4,0.2,2.2c0,0.1-0.1,0.2,0,0.3c0.1,0.1,0.2-0.1,0.2-0.2c0.3-0.5,0.6-1,0.9-1.5C33.3,13.4,32.8,14.2,32.3,15z
			 M42.8,28.6c-0.6-0.1-1-0.1-1.5,0.1C41,28.8,40.6,29,40.3,29c-0.3,0-0.4,0.1-0.5,0.3c-0.3,0.5-0.6,1.1-1,1.6
			c-0.5,0.8-1.3,1.3-2,1.9c0.2,0.1,0.4,0,0.6,0c1.6-0.1,2.9-0.8,3.8-2.2C41.6,29.9,42,29.2,42.8,28.6z M23.2,32.7
			c-1.2-0.7-1.9-1.8-2.6-3c-0.3-0.5-0.6-0.8-1.2-0.9c-0.4,0-0.8-0.4-1.2-0.4c-0.3,0-0.6-0.1-0.7,0.1c-0.1,0.2,0.3,0.3,0.4,0.5
			c0,0,0.1,0.1,0.1,0.1c0.5,0.6,0.9,1.3,1.4,1.9C20.3,32.4,21.7,32.8,23.2,32.7z M32.4,33.2c0.3,0.7,0.3,1.4-0.3,2
			c-0.2,0.2-0.1,0.2,0.1,0.3c0.9,0.6,2,0.8,3.1,0.8c0.2,0,0.3-0.1,0.3-0.3c-0.1-0.5-0.3-1-0.5-1.4C34.2,33.2,33.9,33.3,32.4,33.2z
			 M25.3,36.3c0.8,0,2-0.3,2.5-0.7c0.2-0.1,0.3-0.2,0.1-0.5c-0.4-0.5-0.6-1.1-0.3-1.7c0.1-0.1,0.1-0.2-0.1-0.3
			c-1.1-0.1-1.9,0.3-2.4,1.4c-0.1,0.3-0.3,0.7-0.4,1C24.5,36.3,24.5,36.3,25.3,36.3z M36.5,9.6c-0.2,0.3-0.3,0.5-0.5,0.8
			c-0.1,0.1-0.1,0.2,0,0.3c0.1,0.1,0.2,0,0.3,0c0.6-0.2,1.1-0.4,1.7-0.4c0.3,0,0.3-0.1,0.3-0.3c0-0.4,0-0.8,0.1-1.2
			C38.6,8,38.6,8,37.8,7.9c-0.2,0-0.3,0-0.5,0C36,8,35,9.4,35.5,10.6C35.9,10.3,36,9.8,36.5,9.6z M31.9,32c0.2,0,0.2-0.1,0.3-0.1
			c0.9-0.8,1.5-1.9,2-2.9c0.3-0.6,0.2-1.2-0.2-1.7c-0.1-0.1-0.1-0.2-0.3,0c-0.4,0.4-0.8,0.7-1.2,1.1c-0.3,0.2-0.4,0.6-0.3,0.9
			C32.5,30.2,32.4,31.1,31.9,32z M28,31.9c-0.2-0.8-0.5-1.5-0.3-2.2c0.2-0.8-0.1-1.4-0.7-1.8c-0.2-0.2-0.4-0.4-0.6-0.6
			c-0.2-0.2-0.3-0.2-0.4,0c-0.3,0.5-0.5,1.1-0.1,1.7c0.5,0.8,1,1.7,1.6,2.5C27.6,31.7,27.7,31.9,28,31.9z M25.7,33.3
			c-0.6,0-1.1-0.2-1.6-0.2c-1.1-0.1-1.4,0.3-1.8,1.4c0,0.1-0.1,0.4,0.2,0.4c0.6-0.1,1.2,0,1.8-0.1c0.2,0,0.5,0,0.6-0.3
			C25,34.1,25.3,33.7,25.7,33.3z M34.4,33.3c0.3,0.3,0.6,0.6,0.7,0.9c0.2,0.5,0.5,0.5,0.9,0.5c0.5,0,1.1-0.1,1.6,0.1
			c0.2,0.1,0.3,0,0.2-0.3c-0.1-0.2-0.1-0.4-0.2-0.6c-0.3-0.6-0.6-0.9-1.3-0.9C35.7,33.1,35.1,33.3,34.4,33.3z M37.4,33.1
			c0.5,0.8,0.5,0.8,1.4,0.5c0.2,0,0.3-0.1,0.5-0.1c0.1,0,0.3,0.1,0.3-0.1c0-0.2-0.1-0.2-0.2-0.3c-0.2-0.1-0.4-0.2-0.6-0.2
			C38.3,32.9,37.9,33,37.4,33.1z M22.6,33.1c-1.2-0.3-1.8-0.4-2.2,0.4c0.3,0,0.6,0.1,0.9,0.1C22.1,33.9,22.1,33.9,22.6,33.1z"/>
		<path class="st2" d="M38.9,7.9c0,0-0.1,0-0.1-0.1C38.8,7.8,38.8,7.9,38.9,7.9z"/>
		<path class="st2" d="M27.2,6.5C27.1,6.5,27.1,6.5,27.2,6.5C27.1,6.5,27.1,6.5,27.2,6.5z"/>
		<path class="st2" d="M42.2,29.7c0,0,0.1-0.1,0.1-0.1C42.2,29.6,42.2,29.7,42.2,29.7z"/>
		<path class="st2" d="M38.4,27.5c0.1-0.1,0.2-0.3,0.3-0.4c-0.4-0.2-0.7-0.1-1,0c-0.9,0.2-1.8,0.5-2.6,1.1c-0.3,0.2-0.3,0.1-0.4-0.2
			c-0.1-0.4-0.3-0.7-0.5-1.1c-0.1-0.2-0.3-0.2-0.4,0c-0.4,0.6-1.1,0.9-1.5,1.6c-0.1,0.2-0.2,0.1-0.3-0.1c-0.6-0.7-1.4-1.1-1.8-2.2
			c-0.4,1.1-1.4,1.6-2,2.5c-0.4-0.8-1.3-1.2-1.7-1.9c-0.1-0.2-0.2-0.1-0.3,0c-0.3,0.4-0.5,0.9-0.7,1.5c-1.2-0.7-2.4-1.3-3.9-1.3
			c0.1,0.3,0.3,0.4,0.4,0.7c-1.2-0.3-1.8-1-2-2.3c-0.1-0.5,0-1,0-1.5c0-0.3,0.1-0.3,0.4-0.2c2.5,1.2,5.2,1.5,7.9,1.7
			c2.6,0.1,5.1,0,7.7-0.4c1.4-0.2,2.7-0.6,3.9-1.2c0.3-0.2,0.4,0,0.5,0.3c0.1,1.1-0.1,2.1-0.7,3C39.3,27.4,38.8,27.4,38.4,27.5
			C38.4,27.5,38.4,27.5,38.4,27.5z"/>
		<path class="st2" d="M31.5,21.5c1.1-0.2,2.2-0.3,3.3-0.7c0.4-0.1,0.8-0.2,1.1-0.4c0.3-0.2,0.6-0.2,1-0.1c1,0.3,1.8,0.7,2.4,1.5
			c0.5,0.6,0.4,0.7-0.3,1c-1.3,0.6-2.7,0.9-4.1,1.1c-2.5,0.4-5.1,0.4-7.7,0.2c-2-0.1-3.9-0.4-5.7-1.2c-0.1-0.1-0.3-0.1-0.4-0.2
			c-0.8-0.4-0.8-0.4-0.2-1.1c0.7-0.8,1.6-1.3,2.7-1.5c0.1,0,0.2,0,0.4,0c1.4,0.8,3,1.1,4.6,1.2c0.1,0,0.3,0,0.4,0.1
			c0,0.2-0.1,0.3-0.1,0.5c-0.2-0.1-0.4-0.1-0.6,0.1c-0.3,0.3-0.4,1-0.2,1.4c0.2,0.3,0.5,0.3,0.7,0c0.3-0.5,0.3-1,0-1.5
			c0.3,0,0.7,0.1,1,0.1c-0.3,0.4-0.3,0.9-0.2,1.3c0.1,0.2,0.2,0.4,0.4,0.4c0.2,0,0.4-0.2,0.5-0.4c0.2-0.5,0.2-0.9-0.1-1.3
			C30.8,22,31.3,22,31.5,21.5z M24,21.3c0-0.4-0.3-0.7-0.7-0.5c-0.4,0.2-0.7,0.6-0.8,1.1c-0.1,0.4,0.3,0.7,0.7,0.5
			C23.7,22.1,23.9,21.7,24,21.3z M37.5,21.9c0-0.6-0.5-1.2-1-1.2c-0.3,0-0.4,0.2-0.4,0.5c0,0.6,0.5,1.2,1,1.2
			C37.4,22.4,37.5,22.2,37.5,21.9z M35.8,22.5c0-0.4-0.2-0.8-0.5-1c-0.2-0.1-0.3-0.2-0.5-0.1c-0.2,0.1-0.2,0.3-0.2,0.5
			c0,0.4,0.2,0.7,0.5,1c0.1,0.1,0.3,0.2,0.5,0.2C35.7,22.9,35.8,22.7,35.8,22.5z M24.3,22.3c0,0.6,0.3,0.9,0.6,0.7
			c0.4-0.2,0.6-0.6,0.7-1.1c0-0.2-0.1-0.4-0.3-0.5c-0.2-0.1-0.4,0-0.5,0.2C24.5,21.7,24.4,22,24.3,22.3z M33.9,22.7
			c0-0.3,0-0.5-0.2-0.7c-0.1-0.2-0.3-0.3-0.5-0.3c-0.2,0-0.3,0.2-0.4,0.4c-0.1,0.3,0,0.5,0.1,0.8c0.1,0.3,0.2,0.6,0.6,0.5
			C33.9,23.3,33.9,23,33.9,22.7z M32.2,22.9c0-0.4-0.1-0.8-0.5-1c-0.2-0.1-0.3,0-0.4,0.1c-0.3,0.3-0.3,0.7-0.1,1
			c0.1,0.3,0.2,0.6,0.6,0.5C32.2,23.5,32.1,23.2,32.2,22.9z M26.2,22.7c0,0.3,0,0.7,0.3,0.7c0.4,0.1,0.5-0.2,0.6-0.5
			c0.1-0.3,0.2-0.6,0-0.9c-0.1-0.4-0.5-0.5-0.7-0.1C26.2,22.1,26.1,22.4,26.2,22.7z"/>
		<path class="st2" d="M34.7,8.8c-0.2-0.1-0.4-0.1-0.5,0.1c-0.1,0.3-0.4,0.6-0.7,0.8c-0.6,0.4-1.1,0.7-1.6,1.3
			C31.2,10,30.6,9,30,7.8C29.5,9,28.9,10,28.2,11c-0.5-0.5-1.1-0.9-1.6-1.3c-0.3-0.2-0.5-0.4-0.7-0.7c-0.2-0.3-0.3-0.5-0.6-0.1
			c0-0.4,0.2-0.7,0.4-1c0.2-0.3,0.5-0.7,0.8-0.8c1.1-0.5,1.6-1.5,2.1-2.6c0.4-0.8,0.7-1.6,1.1-2.4C29.8,2.1,29.8,2,30.1,2
			c0.2,0,0.2,0.2,0.2,0.4c0.1,1,0.4,1.9,0.6,2.9c0.1,0.3,0.2,0.7,0.3,1c0-1-0.3-2-0.5-3.1c0.4,0.8,0.8,1.5,1.1,2.3
			c0.3,0.6,0.6,1.1,1.2,1.4C33.8,7.3,34.4,7.9,34.7,8.8C34.7,8.8,34.7,8.8,34.7,8.8z M30.5,7.1c0.2-0.9-0.1-3.2-0.4-3.7
			C30.1,4.7,30.5,5.9,30.5,7.1z M29.5,6.9c0.2-1,0.2-2,0.2-3C29.5,4.9,29.5,5.9,29.5,6.9z M29,5.7c0.3-0.8,0.5-1.6,0.6-2.4
			C29.2,4.1,29.1,4.9,29,5.7z M31.5,5.7c0,0.6,0.3,1,0.9,1.3C32,6.5,31.7,6.1,31.5,5.7z M28.6,5.6c-0.1,0.4-0.4,0.7-0.6,1
			C28.4,6.5,28.6,6.2,28.6,5.6z M28.7,7.2c0.5-0.3,0.5-0.3,0.5-0.7C29,6.7,28.9,6.9,28.7,7.2z"/>
		<path class="st2" d="M34.8,18.9c-0.2-0.1-0.4-0.2-0.6,0c-0.2,0.1-0.3,0.3-0.2,0.5c0,0.2,0.2,0.4,0.5,0.4c0.2,0,0.4-0.1,0.5-0.3
			c0.1-0.1,0.1-0.2,0.1-0.4c0.2,0.2,0.5,0.4,0.7,0.6c0.2,0.2,0.2,0.3,0,0.4c-0.8,0.3-1.6,0.6-2.4,0.7c-1.8,0.3-3.6,0.4-5.3,0.2
			c-1.3-0.2-2.6-0.4-3.9-1.1c0.3-0.2,0.5-0.4,0.8-0.6c0.1-0.1,0.2-0.1,0.3,0c0.1,0.3,0.3,0.5,0.7,0.4c0.3-0.1,0.4-0.3,0.3-0.6
			c-0.1-0.4-0.4-0.5-0.7-0.5c0,0-0.1,0-0.1,0c0-0.5,0.3-0.6,0.8-0.5c2,0.3,4.1,0.3,6.2,0.2c0.6,0,1.2-0.1,1.7-0.2
			C34.7,18.1,34.7,18.1,34.8,18.9L34.8,18.9z M32.1,19.8c0-0.4-0.2-0.6-0.6-0.5c-0.3,0-0.5,0.2-0.5,0.6c0,0.3,0.2,0.5,0.5,0.5
			C31.9,20.4,32.1,20.2,32.1,19.8z M27.6,19.7c0-0.4-0.2-0.6-0.5-0.6c-0.3,0-0.5,0.2-0.5,0.5c0,0.3,0.2,0.5,0.5,0.6
			C27.3,20.2,27.5,20,27.6,19.7z M32.6,19.5c0,0.4,0.2,0.6,0.5,0.6c0.3,0,0.5-0.2,0.5-0.5c0-0.3-0.2-0.6-0.5-0.6
			C32.7,19.1,32.6,19.3,32.6,19.5z M29,19.8c0-0.3-0.2-0.5-0.5-0.6c-0.3,0-0.5,0.2-0.5,0.5c0,0.3,0.2,0.5,0.5,0.6
			C28.8,20.4,29,20.2,29,19.8z M30.6,19.9c0-0.3-0.2-0.5-0.5-0.5c-0.4,0-0.5,0.2-0.5,0.5c0,0.3,0.2,0.5,0.5,0.5
			C30.4,20.5,30.6,20.2,30.6,19.9z"/>
		<path class="st2" d="M29.9,12c0,0.9,0,1.8,0,2.8c0,0.3-0.1,0.4-0.4,0.4c-1,0-1.2-0.1-1.5-1.1c-0.3-0.8-0.1-1.7,0.3-2.4
			c0.5-0.9,1-1.8,1.6-2.8c0.1-0.2,0.2-0.3,0.3,0c0.5,1,1.2,1.9,1.7,2.9c0.5,1,0.4,2-0.2,3c-0.2,0.3-1.1,0.6-1.4,0.4
			c-0.2-0.1-0.1-0.3-0.1-0.4c0-0.9,0-1.7-0.1-2.6c0-0.1,0-0.1,0-0.2C30,12,29.9,12,29.9,12z"/>
		<path class="st2" d="M30,16.9c-2.1-0.1-4.1-0.1-6.1-0.4c-0.4-0.1-0.4-0.2-0.2-0.5c0.1-0.1,0.2-0.3,0.3-0.4
			c0.3-0.4,0.7-0.6,1.3-0.5c2.3,0.4,4.6,0.4,6.8,0.3c0.9,0,1.7-0.1,2.6-0.3c0.6-0.1,0.9,0.1,1.2,0.4c0.2,0.2,0.6,0.5,0.5,0.8
			c-0.1,0.2-0.5,0.2-0.8,0.2C33.7,16.8,31.8,16.8,30,16.9z"/>
		<path class="st2" d="M28,30.2c0-0.8,0.2-1.4,0.8-1.9c0.4-0.3,0.8-0.7,1.1-1.1c0.1-0.2,0.2-0.2,0.3,0c0.3,0.5,0.8,0.8,1.2,1.2
			c1.1,1.2,0.7,3.3-0.4,4.2c-0.6,0.5-1.7,0.4-2.3-0.2C28.3,31.7,28,31,28,30.2z"/>
		<path class="st2" d="M23.5,12.5c0.7,0.6,1.3,1.2,1.7,2c0,0.1,0.2,0.2,0.1,0.4c-0.9-0.1-1.6-0.6-2.2-1.2c-0.9-1-2-1.6-3.4-1.8
			c-0.1,0-0.2,0-0.3-0.1c1.8-1.6,4.2-1.7,5.9,0.4c0.4,0.5,0.7,1.1,1,1.6c0.2,0.4,0.4,0.8,0.7,1.2c-0.9,0.2-1.3,0-1.8-0.9
			C24.8,13.3,24.3,12.7,23.5,12.5C23.5,12.4,23.4,12.4,23.5,12.5C23.4,12.4,23.4,12.4,23.5,12.5C23.4,12.5,23.5,12.5,23.5,12.5z"/>
		<path class="st2" d="M40.8,11.7c-0.4,0.2-0.7,0.1-1,0.2c-1,0.2-1.8,0.7-2.5,1.4c-0.7,0.7-1.4,1.2-2.3,1.5c-0.1,0-0.1,0-0.2,0
			c0.3-0.8,0.9-1.4,1.4-2.1c-0.4,0.1-0.7,0.4-1,0.7c-0.2,0.2-0.4,0.4-0.5,0.7c-0.3,0.7-0.8,0.9-1.6,0.7c1-1.5,1.5-3.4,3.4-4.1
			C38.1,10.2,39.5,10.8,40.8,11.7z"/>
		<path class="st2" d="M38,27.3c-0.5,1.1-0.9,2.3-1.6,3.2c-1,1.4-2.5,2-4.1,2.4c-0.2,0.1-0.4,0-0.5-0.2c-0.1-0.2,0.1-0.2,0.3-0.3
			c0.9-0.6,1.5-1.5,1.9-2.4C34.8,28.4,36.1,27.5,38,27.3z"/>
		<path class="st2" d="M22.2,27.4c1.4,0.2,2.6,0.7,3.4,1.9c0.5,0.8,0.9,1.6,1.5,2.3c0.3,0.4,0.6,0.7,1,0.9c0.3,0.2,0.2,0.2,0,0.4
			c-0.1,0.1-0.2,0.1-0.4,0c-1.8-0.5-3.3-1.2-4.4-2.8C22.9,29.3,22.5,28.3,22.2,27.4L22.2,27.4z"/>
		<path class="st2" d="M30.1,37.6c-0.4-0.7-0.6-1.3-1-1.7c-0.3-0.3-0.6-0.6-0.9-0.9c-0.6-0.7-0.5-1.5,0.3-1.9c0.2-0.1,0.4-0.1,0.6,0
			c0.6,0.3,1.2,0.3,1.8,0c0.5-0.3,0.8-0.1,1.1,0.3c0.4,0.4,0.4,0.8,0.2,1.2c-0.1,0.2-0.2,0.3-0.3,0.5c-0.4,0.4-0.7,0.7-1,1.1
			C30.5,36.5,30.3,37,30.1,37.6z"/>
		<path class="st2" d="M33.4,32.9c0.4-0.2,0.9-0.4,1.3-0.6c1.3-0.7,2.3-1.8,2.8-3.2c0.3-1,1-1.3,1.9-1.5c0.4-0.1,0.7-0.1,1.1,0
			c0.1,0,0.3,0.1,0.1,0.3c-1,0.8-1.5,2-2.2,3c-1,1.4-2.4,2.1-4.1,2.1C34,33,33.7,33,33.4,32.9C33.4,33,33.4,32.9,33.4,32.9z"/>
		<path class="st2" d="M19.3,27.7c1.2-0.5,2.7,0.1,3.1,1.2c0.7,1.8,2,3.1,3.9,3.8c0.1,0,0.2,0.1,0.4,0.2c-1.9,0.3-3.6-0.2-4.8-1.8
			c-0.6-0.8-1.1-1.8-1.7-2.6C19.9,28.2,19.6,28,19.3,27.7z"/>
		<path class="st2" d="M36.1,16.9c-0.5,0.5-1.1,0.9-1.8,1c-2,0.3-4,0.3-6,0.3c-0.9,0-1.8-0.1-2.7-0.3c-0.7-0.1-1.2-0.6-1.9-1.1
			C27.9,17.3,32,17.3,36.1,16.9z"/>
		<path class="st2" d="M27.7,15c-0.4-0.2-0.6-0.5-0.8-0.9c-0.5-0.9-1-1.9-1.8-2.7c-0.1-0.1-0.1-0.2-0.1-0.3
			c-0.1-0.7,0.1-1.3,0.5-1.9c0.1-0.2,0.2-0.2,0.4,0c0.3,0.5,0.8,0.7,1.3,1c0.2,0.1,0.4,0.2,0.5,0.3c0.4,0.3,0.6,0.6,0.3,1.1
			c-0.4,0.9-0.4,1.8,0.1,2.7c0.1,0.1,0.2,0.3,0.2,0.5c-0.6-0.7-0.9-1.6-1.5-2.3C26.9,13.6,27.4,14.2,27.7,15z"/>
		<path class="st2" d="M32.3,15c0.5-0.8,1-1.6,1.2-2.5c-0.3,0.5-0.6,1-0.9,1.5c-0.1,0.1-0.1,0.2-0.2,0.2c-0.1-0.1,0-0.2,0-0.3
			c0.2-0.8,0.1-1.5-0.2-2.2c-0.1-0.3-0.1-0.5,0.1-0.7c0.3-0.3,0.7-0.6,1.1-0.8c0.3-0.2,0.6-0.4,0.8-0.7c0.2-0.3,0.4-0.2,0.6,0
			c0.3,0.5,0.5,1,0.4,1.6c0,0.2-0.1,0.3-0.2,0.4c-0.7,0.7-1.2,1.6-1.6,2.4C33,14.7,32.8,14.8,32.3,15z"/>
		<path class="st2" d="M42.8,28.6c-0.8,0.6-1.2,1.3-1.7,2c-0.9,1.4-2.2,2.1-3.8,2.2c-0.2,0-0.4,0.1-0.6,0c0.8-0.6,1.5-1.1,2-1.9
			c0.4-0.5,0.7-1.1,1-1.6c0.1-0.2,0.3-0.3,0.5-0.3c0.4,0,0.7-0.2,1.1-0.4C41.8,28.5,42.2,28.5,42.8,28.6z"/>
		<path class="st2" d="M23.2,32.7c-1.5,0-2.9-0.4-3.9-1.6c-0.5-0.6-0.9-1.3-1.4-1.9c0,0-0.1-0.1-0.1-0.1c-0.1-0.2-0.5-0.3-0.4-0.5
			c0.1-0.2,0.5-0.1,0.7-0.1c0.5,0,0.8,0.3,1.2,0.4c0.6,0,0.9,0.4,1.2,0.9C21.3,30.9,22,32.1,23.2,32.7z"/>
		<path class="st2" d="M32.4,33.2c1.5,0,1.8,0,2.6,1.3c0.2,0.4,0.3,0.9,0.5,1.4c0.1,0.2,0,0.3-0.3,0.3c-1.1,0-2.1-0.2-3.1-0.8
			c-0.1-0.1-0.3-0.2-0.1-0.3C32.7,34.7,32.7,34,32.4,33.2z"/>
		<path class="st2" d="M25.3,36.3c-0.7,0-0.8,0-0.5-0.7c0.1-0.3,0.2-0.7,0.4-1c0.5-1.1,1.3-1.6,2.4-1.4c0.2,0,0.2,0.1,0.1,0.3
			c-0.3,0.6-0.2,1.2,0.3,1.7c0.2,0.3,0.1,0.4-0.1,0.5C27.2,36,26.1,36.3,25.3,36.3z"/>
		<path class="st2" d="M30.8,25.1c-1.5,0.1-3.1,0-4.6-0.2c-1.7-0.2-3.3-0.5-4.9-1.1c-0.4-0.1-0.7-0.3-1.1-0.5
			c-0.3-0.1-0.2-0.3-0.1-0.5c0.1-0.3,0.3-0.1,0.4-0.1c2.1,1,4.4,1.4,6.7,1.6c1.5,0.1,3,0.1,4.4,0.1c-0.1,0.1-0.2,0.1-0.4,0.1
			C30.9,24.5,30.7,24.7,30.8,25.1z"/>
		<path class="st2" d="M23.2,9.2c0.2,0.4,0.5,0.6,0.7,1c0.1,0.2,0.3,0.3,0.3,0.5c0,0,0,0,0,0c-0.7-0.3-1.3-0.5-2-0.5
			c-0.3,0-0.3-0.2-0.3-0.4c0-0.5,0-1.1-0.3-1.6c-0.1-0.2,0.1-0.2,0.2-0.2c1.4-0.4,2.4,0.2,3,1.4c0.2,0.4-0.1,0.8-0.1,1.2
			C24.1,10.2,23.9,9.5,23.2,9.2C23.2,9.2,23.2,9.1,23.2,9.2C23.1,9.1,23.1,9.1,23.2,9.2C23.2,9.2,23.2,9.2,23.2,9.2z"/>
		<path class="st2" d="M36.5,9.6c-0.5,0.2-0.7,0.7-1,1C35,9.4,36,8,37.3,7.9c0.2,0,0.3,0,0.5,0C38.6,8,38.6,8,38.4,8.8
			c-0.1,0.4-0.1,0.8-0.1,1.2c0,0.2-0.1,0.4-0.3,0.3c-0.6,0-1.2,0.1-1.7,0.4c-0.1,0-0.2,0.1-0.3,0c-0.1-0.1,0-0.2,0-0.3
			C36.2,10.1,36.4,9.9,36.5,9.6z"/>
		<path class="st2" d="M31.9,32c0.5-0.9,0.6-1.8,0.4-2.7c-0.1-0.4,0-0.7,0.3-0.9c0.4-0.4,0.8-0.7,1.2-1.1c0.1-0.1,0.2-0.1,0.3,0
			c0.3,0.5,0.5,1.1,0.2,1.7c-0.6,1-1.1,2.1-2,2.9C32.1,31.9,32.1,32,31.9,32z"/>
		<path class="st2" d="M28,31.9c-0.3-0.1-0.4-0.2-0.5-0.4c-0.6-0.8-1.1-1.6-1.6-2.5c-0.3-0.6-0.2-1.2,0.1-1.7c0.1-0.2,0.2-0.2,0.4,0
			c0.2,0.2,0.4,0.4,0.6,0.6c0.6,0.5,1,1,0.7,1.8C27.5,30.4,27.8,31.1,28,31.9z"/>
		<path class="st2" d="M33.1,24.4c2.1-0.2,4.2-0.6,6.2-1.5c0.1,0,0.2-0.1,0.3-0.1c0.1-0.1,0.3-0.2,0.4,0c0.1,0.2,0.2,0.4-0.1,0.5
			c-0.4,0.2-0.8,0.4-1.2,0.6c-1.6,0.6-3.3,0.9-5,1.1c-0.3,0-0.5,0-0.8,0.1C32.8,24.8,33.1,24.6,33.1,24.4z"/>
		<path class="st2" d="M25.7,33.3c-0.4,0.4-0.6,0.8-0.9,1.2c-0.1,0.2-0.4,0.2-0.6,0.3c-0.6,0.1-1.2,0-1.8,0.1
			c-0.3,0.1-0.2-0.2-0.2-0.4c0.4-1.1,0.7-1.5,1.8-1.4C24.6,33.2,25.1,33.3,25.7,33.3z"/>
		<path class="st2" d="M34.4,33.3c0.7,0,1.3-0.2,1.9-0.2c0.7,0,1.1,0.3,1.3,0.9c0.1,0.2,0.1,0.4,0.2,0.6c0.1,0.2,0,0.3-0.2,0.3
			c-0.5-0.1-1.1-0.1-1.6-0.1c-0.4,0-0.7-0.1-0.9-0.5C35,33.9,34.7,33.6,34.4,33.3z"/>
		<path class="st2" d="M37.4,33.1c0.5-0.1,0.9-0.1,1.3-0.2c0.2,0,0.4,0,0.6,0.2c0.1,0.1,0.3,0.2,0.2,0.3c0,0.2-0.2,0.1-0.3,0.1
			c-0.2,0-0.3,0.1-0.5,0.1C38,33.9,38,33.9,37.4,33.1z"/>
		<path class="st2" d="M22.6,33.1c-0.5,0.7-0.5,0.7-1.3,0.5c-0.3-0.1-0.6-0.2-0.9-0.1C20.8,32.7,21.5,32.8,22.6,33.1z"/>
		<path class="st2" d="M33.1,24.4c0.1,0.2-0.2,0.4-0.2,0.6c-0.1,0-0.2,0-0.3,0c-0.1,0-0.2,0-0.3,0c-0.2,0-0.4,0-0.6,0
			c-0.1,0-0.1,0-0.2,0c-0.2,0-0.5,0-0.7,0c-0.1-0.5,0-0.6,0.5-0.6c0.1,0,0.3,0,0.4-0.1C32.2,24.5,32.6,24.4,33.1,24.4z"/>
		<path class="st2" d="M31.5,21.5c-0.2,0.5-0.7,0.5-1.2,0.6c-0.2,0-0.4-0.2-0.6,0c-0.3,0-0.7-0.1-1-0.1l0,0c0-0.2,0.1-0.3,0.1-0.5
			c0.5,0,1,0,1.5,0c0,0.1-0.1,0.4,0.2,0.3c0.2,0,0.2-0.2,0.2-0.4C31,21.5,31.3,21.5,31.5,21.5z"/>
		<path class="st2" d="M30.7,21.5c0,0.2,0,0.3-0.2,0.4c-0.3,0-0.2-0.2-0.2-0.3C30.5,21.5,30.6,21.5,30.7,21.5z"/>
		<path class="st2" d="M32.3,25.1c0.1-0.1,0.2-0.1,0.3,0C32.5,25,32.4,25,32.3,25.1z"/>
		<path class="st2" d="M34.7,8.8c0,0,0.1,0.1,0,0.2C34.7,9,34.7,8.9,34.7,8.8C34.7,8.8,34.7,8.8,34.7,8.8z"/>
		<path class="st2" d="M22.2,27.4C22.2,27.4,22.2,27.4,22.2,27.4C22.2,27.3,22.2,27.4,22.2,27.4C22.2,27.4,22.2,27.4,22.2,27.4z"/>
		<path class="st2" d="M38.4,27.5C38.4,27.5,38.4,27.6,38.4,27.5C38.3,27.5,38.3,27.5,38.4,27.5C38.4,27.5,38.4,27.5,38.4,27.5z"/>
		<path class="st2" d="M24.2,10.7C24.2,10.7,24.2,10.7,24.2,10.7C24.2,10.8,24.2,10.7,24.2,10.7C24.2,10.7,24.2,10.7,24.2,10.7z"/>
		<path class="st2" d="M34.8,18.9C34.8,18.9,34.8,18.9,34.8,18.9C34.8,18.9,34.8,18.9,34.8,18.9C34.8,18.9,34.8,18.9,34.8,18.9z"/>
		<path class="st1" d="M24,21.3c-0.1,0.5-0.3,0.9-0.8,1.1c-0.4,0.2-0.7,0-0.7-0.5c0.1-0.5,0.3-0.9,0.8-1.1
			C23.6,20.6,24,20.8,24,21.3z"/>
		<path class="st1" d="M37.5,21.9c0,0.3-0.1,0.5-0.4,0.5c-0.4,0-1-0.7-1-1.2c0-0.3,0.1-0.5,0.4-0.5C37,20.7,37.5,21.4,37.5,21.9z"/>
		<path class="st1" d="M35.8,22.5c0,0.2,0,0.4-0.3,0.5c-0.2,0.1-0.4,0-0.5-0.2c-0.3-0.3-0.4-0.6-0.5-1c0-0.2,0.1-0.4,0.2-0.5
			c0.2-0.1,0.4,0,0.5,0.1C35.6,21.7,35.8,22.1,35.8,22.5z"/>
		<path class="st1" d="M24.3,22.3c0-0.3,0.2-0.6,0.4-0.8c0.1-0.1,0.3-0.3,0.5-0.2c0.2,0.1,0.3,0.3,0.3,0.5c0,0.5-0.3,0.9-0.7,1.1
			C24.6,23.2,24.3,22.9,24.3,22.3z"/>
		<path class="st1" d="M29.8,22.1c0.2-0.2,0.4,0,0.6,0c0.3,0.4,0.3,0.9,0.1,1.3c-0.1,0.2-0.2,0.4-0.5,0.4c-0.2,0-0.3-0.2-0.4-0.4
			C29.4,22.9,29.5,22.5,29.8,22.1z"/>
		<path class="st1" d="M33.9,22.7c0,0.3,0,0.6-0.4,0.7c-0.4,0.1-0.5-0.2-0.6-0.5c-0.1-0.3-0.1-0.5-0.1-0.8c0.1-0.2,0.1-0.4,0.4-0.4
			c0.2,0,0.4,0.1,0.5,0.3C33.9,22.2,34,22.5,33.9,22.7z"/>
		<path class="st1" d="M28.8,22c0.3,0.5,0.3,1,0,1.5c-0.2,0.3-0.6,0.3-0.7,0c-0.2-0.4-0.1-1.1,0.2-1.4C28.4,21.9,28.6,21.9,28.8,22
			C28.8,22,28.8,22,28.8,22z"/>
		<path class="st1" d="M32.2,22.9c-0.1,0.2,0,0.6-0.4,0.7c-0.4,0.1-0.5-0.2-0.6-0.5c-0.1-0.4-0.1-0.7,0.1-1c0.1-0.1,0.2-0.2,0.4-0.1
			C32.1,22.1,32.2,22.5,32.2,22.9z"/>
		<path class="st1" d="M26.2,22.7c0-0.3,0.1-0.6,0.3-0.8c0.3-0.3,0.6-0.2,0.7,0.1c0.1,0.3,0.1,0.6,0,0.9c-0.1,0.3-0.3,0.6-0.6,0.5
			C26.2,23.3,26.2,23,26.2,22.7z"/>
		<path class="st1" d="M30.5,7.1c-0.1-1.2-0.4-2.4-0.4-3.7C30.4,4,30.7,6.2,30.5,7.1z"/>
		<path class="st1" d="M29.5,7.1c-0.1-1.1,0-2.2,0.3-3.2C29.8,5,29.8,6.1,29.5,7.1z"/>
		<path class="st1" d="M29,5.7c0.1-0.8,0.2-1.6,0.6-2.4C29.5,4.2,29.3,5,29,5.7z"/>
		<path class="st1" d="M31.5,5.7c0.2,0.4,0.5,0.8,0.9,1.3C31.8,6.7,31.5,6.3,31.5,5.7z"/>
		<path class="st1" d="M28.6,5.6c0,0.6-0.2,0.9-0.6,1C28.2,6.3,28.5,6,28.6,5.6z"/>
		<path class="st1" d="M28.7,7.2c0.2-0.2,0.3-0.5,0.5-0.7C29.2,6.9,29.2,6.9,28.7,7.2z"/>
		<path class="st1" d="M32.1,19.8c0,0.3-0.2,0.5-0.5,0.5c-0.3,0-0.5-0.2-0.5-0.5c0-0.3,0.2-0.5,0.5-0.6
			C31.9,19.3,32.1,19.5,32.1,19.8z"/>
		<path class="st1" d="M27.6,19.7c0,0.3-0.2,0.5-0.6,0.5c-0.3,0-0.5-0.2-0.5-0.6c0-0.3,0.2-0.5,0.5-0.5
			C27.3,19.1,27.5,19.3,27.6,19.7z"/>
		<path class="st1" d="M32.6,19.5c0-0.2,0.2-0.5,0.5-0.4c0.3,0,0.5,0.2,0.5,0.6c0,0.3-0.2,0.5-0.5,0.5C32.7,20.2,32.5,20,32.6,19.5z
			"/>
		<path class="st1" d="M29,19.8c0,0.3-0.2,0.5-0.5,0.5c-0.3,0-0.5-0.2-0.5-0.6c0-0.3,0.2-0.5,0.5-0.5C28.8,19.3,29,19.5,29,19.8z"/>
		<path class="st1" d="M30.6,19.9c0,0.3-0.2,0.6-0.5,0.6c-0.3,0-0.5-0.2-0.5-0.5c0-0.3,0.1-0.5,0.5-0.5
			C30.4,19.4,30.5,19.6,30.6,19.9z"/>
		<path class="st2" d="M23.2,9.2C23.2,9.2,23.2,9.2,23.2,9.2C23.1,9.1,23.1,9.1,23.2,9.2C23.2,9.1,23.2,9.2,23.2,9.2
			C23.2,9.2,23.2,9.2,23.2,9.2z"/>
	</g>
</g>
</svg>
