<?xml version="1.0" encoding="utf-8"?>
<!-- Generator: Adobe Illustrator 26.2.1, SVG Export Plug-In . SVG Version: 6.00 Build 0)  -->
<svg version="1.1" id="Layer_1" xmlns="http://www.w3.org/2000/svg" xmlns:xlink="http://www.w3.org/1999/xlink" x="0px" y="0px"
	 viewBox="0 0 60 40" style="enable-background:new 0 0 60 40;" xml:space="preserve">
<style type="text/css">
	.st0{fill:#FFFFFF;}
	.st1{fill:#B91800;}
	.st2{fill:#FFE9BA;}
	.st3{fill:#FC5A20;}
	.st4{fill:#FFCD00;}
	.st5{opacity:0.5;fill:#FC5A20;}
	.st6{fill:none;}
	
		.st7{clip-path:url(#SVGID_00000134945798566817375560000002889427020125117096_);fill:url(#SVGID_00000130605303156984927530000000444480705178495650_);}
	.st8{fill:#D6AC06;}
	
		.st9{clip-path:url(#SVGID_00000152943360713963850540000012461684420348822662_);fill:url(#SVGID_00000109020694880185684970000012946876608853745793_);}
	.st10{opacity:0.5;}
	.st11{fill:#FFBB56;}
</style>
<g>
	<path class="st0" d="M1.2,20.2c0-0.8,0.1-1.6,0.2-2.3c0-0.3,0.1-0.6,0.1-1c0-0.3,0.4-0.6,0.9-0.6c0.6,0,0.8,0.3,0.8,0.6
		c0,0.3-0.1,0.7-0.1,1C3.1,18.6,3,19.3,3,20.1c0,0.7,0,1.6,0.4,2.2c0.1,0.2,0.3,0.3,0.4,0.3c0.3,0,0.7-0.3,0.9-0.5
		c0.5-0.6,0.8-1.8,1-3c0.1-0.6,0.2-1.2,0.3-1.6c0.1-0.4,0.2-0.8,0.3-0.9c0.1-0.1,0.3-0.2,0.5-0.2c0.5,0,0.7,0.3,0.7,0.6v0
		c-0.1,1-0.2,2-0.2,2.9c0,1,0.2,1.9,0.6,2.9c0,0.1,0.1,0.1,0.1,0.2c0,0.2-0.2,0.6-0.7,0.6c-0.7,0-1-1-1.1-1.4
		c-0.4,0.7-1.1,1.4-2.3,1.4c-0.4,0-0.7-0.1-1-0.2C1.4,22.8,1.2,21.1,1.2,20.2z"/>
	<path class="st0" d="M8.8,19.9v-0.4c0-0.8,0-1.6,0.1-2.4c0-0.3,0.3-0.6,0.8-0.6c0.4,0,0.9,0.2,0.9,0.5v0c0,0.6-0.1,1.2-0.1,1.7
		c0.5-0.9,1.4-2.2,2.9-2.2c1.6,0,2,1.6,2.1,2.3c0.1,1.2,0.2,2.4,0.2,3.7v0.3c0,0.5-0.3,0.7-0.9,0.7c-0.5,0-0.9-0.3-0.9-0.6v-0.2
		c0-0.7,0-1.3,0-2c0-0.5,0-1-0.1-1.6c0-0.3-0.1-0.7-0.2-1c0-0.1-0.1-0.2-0.1-0.3c0-0.1-0.1-0.1-0.1-0.1c0,0-0.1,0-0.1,0
		c-0.1,0-0.3,0.1-0.4,0.2c-0.2,0.1-0.3,0.3-0.4,0.3c-1.2,1.3-1.6,3.3-1.8,4.8c-0.1,0.4-0.4,0.5-0.9,0.5c-0.5,0-0.8-0.3-0.8-0.6
		C8.8,22,8.8,20.9,8.8,19.9z"/>
	<path class="st0" d="M17.3,24.2c0.2,0,0.4,0.1,0.5,0.2c0.1,0.1,0.1,0.2,0.2,0.3c0.2,0.3,0.6,0.4,1.1,0.4c0.3,0,0.6-0.1,0.9-0.2
		c1.3-0.5,1.5-1.7,1.5-2.7c0-0.5,0-1-0.1-1.4c-0.5,0.9-1.7,2.3-2.9,2.3c-1.4,0-2-1.1-2-2.2c0-1.5,1.2-3.6,3.3-4.3
		c0.3-0.1,0.6-0.1,0.9-0.1c0.2,0,0.3,0,0.5,0c0.2,0,0.4,0.1,0.6,0.1c0.2,0,0.4,0.1,0.6,0.1c0.3,0.1,0.5,0.2,0.5,0.5c0,0.5,0,1,0,1.5
		c0,0.8,0,1.5,0.1,2.2c0,0.3,0,0.7,0,1c0,0.9-0.1,2.1-0.7,3c-0.6,0.8-1.8,1.5-3.2,1.5c-0.7,0-1.4-0.2-1.8-0.6
		c-0.3-0.3-0.6-0.8-0.6-1.1C16.5,24.6,16.8,24.2,17.3,24.2z M18.4,22.1c0.1,0,0.2,0,0.3-0.1c0.1-0.1,0.2-0.1,0.3-0.2
		c0.6-0.5,1.1-1.2,1.4-1.9c0.3-0.7,0.6-1.5,0.8-2.1c-0.2-0.1-0.4-0.1-0.5-0.1c-0.5,0-0.9,0.3-1.2,0.5c-0.9,0.7-1.5,1.9-1.5,2.9
		C17.8,21.5,17.8,22.1,18.4,22.1z"/>
	<path class="st0" d="M23.9,20.8c0-2,1.5-4.4,4.1-4.4c0.6,0,1.2,0.2,1.7,0.4c0.2,0.1,0.7,0.4,0.7,0.7v0c-0.1,0.9-0.2,1.8-0.2,2.7
		c0,1,0.1,1.8,0.7,2.7c0,0.1,0.1,0.1,0.1,0.2c0,0.3-0.5,0.6-0.9,0.6c-0.3,0-0.5-0.1-0.7-0.3c-0.3-0.4-0.5-1.3-0.6-1.9
		c-0.5,0.8-1.5,2.1-2.9,2.1C24.3,23.6,23.9,21.8,23.9,20.8z M25.6,22.3c0.1,0.1,0.2,0.1,0.3,0.1c0.3,0,0.7-0.4,1.1-0.8
		c0.7-1,1.5-2.7,1.8-3.9c-0.2-0.1-0.5-0.2-0.8-0.2c-0.4,0-0.7,0.1-1,0.3c-1.2,0.7-1.6,2.2-1.6,3.2C25.3,21.4,25.3,21.9,25.6,22.3z"
		/>
	<path class="st0" d="M32.2,21.4c0-1.2-0.1-2.4-0.1-3.6c0-0.9,0-1.7,0.1-2.6c0-0.4,0-0.8,0.1-1.2c0.1-0.3,0.3-0.6,0.8-0.6
		c0.5,0,0.8,0.3,0.8,0.6v0c-0.1,1.3-0.2,2.5-0.2,3.7c0,1.2,0,2.4,0.1,3.6c0,0.6,0.1,1.1,0.1,1.7c0,0.3-0.4,0.6-0.8,0.6
		c-0.5,0-0.8-0.3-0.8-0.6c0-0.2,0-0.3,0-0.5L32.2,21.4z"/>
	<path class="st0" d="M35.4,21.8l0.1-4.1c0-0.2,0-0.5,0-0.8c0-0.3,0.4-0.6,0.9-0.6c0.5,0,0.9,0.2,0.9,0.6c0,0.4,0,0.8,0,1.2
		l-0.1,4.1c0,0.3,0,0.5,0,0.8c0,0.3-0.4,0.6-0.9,0.6c-0.5,0-0.9-0.2-0.9-0.6C35.4,22.6,35.4,22.2,35.4,21.8z M35.6,15
		c0-0.1,0-0.3,0-0.6c0-0.2,0-0.4,0.1-0.5c0.1-0.2,0.5-0.4,0.8-0.4c0.5,0,0.9,0.3,0.9,0.6v0c0,0.4,0,0.7-0.1,1.1
		c0,0.3-0.3,0.6-0.8,0.6c-0.5,0-0.9-0.3-0.9-0.6V15z"/>
	<path class="st0" d="M38.6,25.1c0-0.2,0.2-0.5,0.7-0.5c0.2,0,0.4,0.1,0.5,0.2l0.1,0.1c0.2,0.2,0.4,0.3,1,0.3h0.2
		c2.2-0.2,2.3-2,2.3-3.3v-0.4c-0.5,0.8-1.2,1.7-2.6,1.7c-2.2,0-2.4-1.9-2.4-2.9c0-1.1,0.2-2.2,0.4-3.3c0.1-0.3,0.5-0.6,1-0.6
		c0.6,0,0.8,0.3,0.8,0.6c0,0.6-0.2,1.2-0.3,1.8c-0.1,0.5-0.1,1.1-0.1,1.7c0,0.4,0,1.5,0.7,1.5c0.8,0,1.3-1,1.5-1.5
		c0.5-1.1,0.6-2.2,0.8-3.3c0,0,0-0.2,0.1-0.3c0-0.1,0-0.1,0-0.2c0,0,0,0,0-0.1c0,0,0,0,0-0.1c0.2-0.2,0.4-0.3,0.7-0.3
		c0.5,0,1,0.2,1,0.6c0,0.1,0,0.3,0,0.4c0,1.3,0.2,2.6,0.2,4c0,1.1-0.1,2.3-0.9,3.3c-0.8,1-2.1,1.7-3.5,1.7c-1.1,0-1.9-0.4-2.3-1.1
		C38.6,25.4,38.6,25.3,38.6,25.1z"/>
	<path class="st0" d="M49.7,16.3c1.3,0,2.4,0.6,2.4,1.6c0,1.3-1.7,2.7-3.8,2.7c-0.1,0-0.2,0-0.2,0c0.3,1,1.1,1.9,2.8,1.9
		c0.1,0,0.2,0,0.3,0c0.5,0,0.7,0.3,0.7,0.6c0,0.5-0.7,0.6-1.2,0.6c-2.7,0-4.4-1.6-4.4-4C46.2,18.2,47.1,16.3,49.7,16.3z M48.3,19.4
		c0.5,0,1-0.1,1.3-0.3c0.5-0.3,1-0.8,1-1.3c0-0.3-0.3-0.4-0.8-0.4c-1.3,0-1.9,0.9-2,2C48,19.4,48.2,19.4,48.3,19.4z"/>
	<path class="st0" d="M53.4,21.4c0-1.4-0.2-2.8-0.6-4.2c0,0,0-0.1,0-0.1c0-0.4,0.5-0.6,1-0.6c0.4,0,0.6,0.1,0.8,0.4
		c0,0.1,0.1,0.3,0.1,0.4c0,0.1,0,0.3,0.1,0.4c0.1,0.3,0.1,0.7,0.2,1c0.5-0.8,2-2.1,3.1-2.1c0.5,0,0.8,0.3,0.8,0.6
		c0,0.2-0.1,0.4-0.3,0.4c-0.1,0-0.2,0.1-0.3,0.1c-0.1,0-0.2,0-0.3,0.1c-0.9,0.3-1.6,1.2-1.9,1.9c-0.3,0.7-0.5,1.4-0.6,2.1
		c0,0.2-0.1,0.5-0.1,0.8c-0.1,0.6-0.2,1-1,1c-0.6,0-0.9-0.2-0.9-0.6C53.3,22.4,53.4,21.9,53.4,21.4z"/>
</g>
</svg>
