<?xml version="1.0" encoding="utf-8"?>
<!-- Generator: Adobe Illustrator 26.2.1, SVG Export Plug-In . SVG Version: 6.00 Build 0)  -->
<svg version="1.1" id="Layer_1" xmlns="http://www.w3.org/2000/svg" xmlns:xlink="http://www.w3.org/1999/xlink" x="0px" y="0px"
	 viewBox="0 0 17 40" style="enable-background:new 0 0 17 40;" xml:space="preserve">
<style type="text/css">
	.st0{fill:#BC1907;}
	.st1{fill:#B91800;}
	.st2{fill:#FFE9BA;}
	.st3{fill:#FC5A20;}
	.st4{fill:#FFCD00;}
	.st5{opacity:0.5;fill:#FC5A20;}
	.st6{fill:none;}
	
		.st7{clip-path:url(#SVGID_00000067197849364328312440000004926972684278652060_);fill:url(#SVGID_00000173127381645397541950000009935754869933664917_);}
	.st8{fill:#D6AC06;}
	
		.st9{clip-path:url(#SVGID_00000093134944766962895010000013131072864479883959_);fill:url(#SVGID_00000134248323098088586700000015269920586494213782_);}
	.st10{opacity:0.5;}
	.st11{fill:#FFBB56;}
</style>
<g>
	<polygon class="st3" points="8.1,4.4 8.2,2.9 8.3,2.9 8.3,4.5 	"/>
	<g>
		<g>
			<path class="st3" d="M8.2,3.9C8.1,4.9,8.1,6,8.1,7c0,1.1,0,2.1,0,3.2c0,2.1,0,4.2,0,6.3c0,4,0,7.9,0,11.9c0,0.6,0,1.3,0,1.9
				c0,0.1,0.1,0.1,0.1,0c0.1-1.5,0.1-3,0.1-4.5c0-2.1,0-4.2,0-6.3c0-4.2,0-8.4,0-12.6C8.3,5.9,8.3,4.9,8.2,3.9
				C8.2,3.8,8.2,3.8,8.2,3.9z"/>
		</g>
		<g>
			<path class="st4" d="M10.3,21.3c-0.1,0-0.2-0.1-0.2-0.1c0.1-0.1,0.2-0.3,0.1-0.4c-0.1-0.1-0.2-0.1-0.3-0.2
				c0.1-0.1,0.1-0.2,0.1-0.3c-0.1-0.3-0.5-0.4-0.7-0.4c-0.2,0-0.3,0.1-0.4,0.2c0.1-0.2,0.1-0.3,0.1-0.5c0-0.4-0.1-0.8-0.4-0.5
				c-0.1-0.3-0.5-0.3-0.6,0c-0.3-0.3-0.6-0.1-0.6,0.3c-0.1,0-0.1,0-0.2-0.1c-0.1,0-0.1,0-0.1,0.1c0,0.4,0.1,0.8,0.3,1.1
				c-0.2-0.1-0.4-0.2-0.6-0.2c-0.3,0-0.6,0.2-0.7,0.5c0,0.3,0.3,0.4,0.5,0.4c-0.1,0.1-0.2,0.2-0.3,0.3c-0.1,0.1,0,0.1,0.1,0.2
				c0.1,0,0.2,0,0.3,0c-0.1,0.2-0.1,0.3-0.1,0.5c0,0.1,0.1,0.1,0.1,0.1c0.1-0.1,0.3-0.1,0.4-0.1c0.1,0.3,0.2,0.4,0.5,0.1
				c0.1-0.1,0.2-0.2,0.3-0.3c0,0.2,0,0.4,0,0.7C7.8,23.1,8,23.2,8.1,23c0.1,0.3,0.5,0.2,0.6-0.1c0.3,0.3,0.6,0,0.5-0.4
				c0.1,0,0.2,0,0.3,0.1c0,0,0.1,0,0.1-0.1c0-0.3-0.2-0.6-0.4-0.9c0.4,0.1,0.7,0.1,1.1-0.2C10.4,21.4,10.4,21.3,10.3,21.3z"/>
			<path class="st4" d="M9.8,21.2c-0.1,0-0.1-0.1-0.2-0.1c0.1-0.1,0.2-0.2,0-0.3c-0.1-0.1-0.2-0.1-0.2-0.1c0.1-0.1,0.1-0.1,0.1-0.2
				c0-0.2-0.4-0.3-0.5-0.3c-0.1,0-0.2,0.1-0.3,0.1c0-0.1,0.1-0.2,0.1-0.4c0-0.3-0.1-0.6-0.3-0.4c-0.1-0.2-0.3-0.2-0.4,0
				c-0.2-0.2-0.5-0.1-0.4,0.2c-0.1,0-0.1,0-0.2-0.1c0,0-0.1,0-0.1,0.1c0,0.3,0.1,0.6,0.2,0.8c-0.2-0.1-0.3-0.2-0.5-0.2
				c-0.2,0-0.5,0.2-0.5,0.4c0,0.2,0.2,0.3,0.4,0.3c-0.1,0.1-0.2,0.1-0.3,0.2c0,0,0,0.1,0,0.1c0.1,0,0.2,0,0.3,0
				c-0.1,0.1-0.1,0.2-0.1,0.4C6.9,22,7,22,7,22c0.1,0,0.2-0.1,0.3-0.1c0,0.2,0.2,0.3,0.4,0.1c0.1-0.1,0.1-0.1,0.2-0.2
				c0,0.2,0,0.3,0,0.5c0.1,0.3,0.2,0.3,0.3,0.2c0.1,0.2,0.4,0.2,0.4-0.1c0.2,0.2,0.5,0,0.4-0.3c0.1,0,0.1,0,0.2,0c0,0,0.1,0,0.1-0.1
				c0-0.2-0.1-0.5-0.3-0.6c0.3,0.1,0.5,0.1,0.8-0.1C9.8,21.3,9.8,21.2,9.8,21.2z"/>
			<path class="st3" d="M9.4,22c0-0.1-0.1-0.1-0.1-0.2c0.1,0,0.2-0.1,0.2-0.2c0-0.1-0.1-0.2-0.1-0.2c0.1,0,0.1-0.1,0.2-0.2
				c0.1-0.2-0.2-0.4-0.3-0.5c-0.1-0.1-0.2-0.1-0.4,0c0.1-0.1,0.2-0.2,0.3-0.3c0.2-0.2,0.2-0.5,0-0.5c0.1-0.2-0.2-0.3-0.4-0.2
				c0-0.3-0.3-0.3-0.5,0c0,0-0.1-0.1-0.1-0.1c0,0-0.1,0-0.1,0c-0.2,0.2-0.2,0.5-0.2,0.8c-0.1-0.1-0.1-0.3-0.3-0.4
				c-0.2-0.1-0.5-0.1-0.6,0.1c-0.1,0.2,0,0.3,0.1,0.5c-0.1,0-0.2,0-0.3,0.1c-0.1,0-0.1,0.1,0,0.1c0.1,0,0.1,0.1,0.2,0.1
				c-0.1,0.1-0.2,0.1-0.3,0.3c0,0,0,0.1,0,0.1c0.1,0,0.2,0,0.3,0.1c-0.1,0.2,0,0.3,0.3,0.3c0.1,0,0.2,0,0.3-0.1
				c-0.1,0.1-0.2,0.2-0.3,0.4c-0.1,0.3,0,0.4,0.2,0.3c0,0.2,0.2,0.3,0.4,0.1c0.1,0.3,0.4,0.2,0.5-0.1c0,0,0.1,0.1,0.1,0.1
				c0,0,0.1,0,0.1,0c0.1-0.2,0.1-0.4,0.1-0.7C8.8,21.9,9,22.1,9.4,22C9.4,22.1,9.5,22,9.4,22z"/>
			<path class="st5" d="M9.1,21.7c0,0,0-0.1-0.1-0.1c0.1,0,0.2-0.1,0.1-0.2c0-0.1-0.1-0.1-0.1-0.2c0.1,0,0.1-0.1,0.1-0.1
				C9.3,21,9.1,20.8,9,20.8c-0.1,0-0.2,0-0.3,0c0.1-0.1,0.1-0.1,0.2-0.2c0.1-0.2,0.2-0.4,0-0.4C9,20,8.8,19.9,8.6,20
				c0-0.2-0.3-0.2-0.4,0c0,0-0.1-0.1-0.1-0.1c0,0-0.1,0-0.1,0C8,20.1,8,20.3,8,20.5c-0.1-0.1-0.1-0.2-0.2-0.3
				c-0.1-0.1-0.4-0.1-0.5,0.1c-0.1,0.1,0,0.3,0.1,0.3c-0.1,0-0.2,0-0.3,0.1c0,0,0,0.1,0,0.1c0.1,0,0.1,0.1,0.2,0.1
				c-0.1,0-0.1,0.1-0.2,0.2c0,0,0,0.1,0,0.1c0.1,0,0.1,0,0.2,0.1c0,0.1,0,0.2,0.2,0.2c0.1,0,0.1,0,0.2,0c-0.1,0.1-0.1,0.2-0.2,0.3
				c-0.1,0.2,0,0.3,0.1,0.2c0,0.2,0.2,0.2,0.3,0.1C8,22.2,8.2,22.2,8.3,22c0,0,0.1,0.1,0.1,0.1c0,0,0.1,0,0.1,0
				c0.1-0.2,0.1-0.3,0.1-0.5C8.7,21.7,8.8,21.8,9.1,21.7C9.1,21.8,9.1,21.7,9.1,21.7z"/>
			<path class="st4" d="M7.6,21.1C7.7,21.1,7.7,21.1,7.6,21.1c0,0.1,0,0.1,0.1,0.1c0,0,0.1,0,0.1,0c0,0,0,0.1,0,0.1
				c0,0.1,0.1,0.1,0.2,0c0,0,0.1,0,0.1-0.1c0,0,0,0.1,0,0.1c0,0.1,0.1,0.2,0.1,0.1c0,0.1,0.1,0,0.1,0c0.1,0.1,0.2,0,0.1-0.1
				c0,0,0,0,0.1,0c0,0,0,0,0,0c0-0.1-0.1-0.2-0.1-0.3c0.1,0,0.1,0,0.2,0c0.1,0,0.1-0.1,0.1-0.2c0-0.1-0.1-0.1-0.2-0.1
				c0,0,0-0.1,0.1-0.1c0,0,0,0,0,0c0,0-0.1,0-0.1,0c0,0,0-0.1,0-0.1c0,0,0,0,0,0c0,0-0.1,0-0.1,0.1c0-0.1-0.1-0.1-0.1,0
				c0,0,0,0.1,0,0.1c0-0.1,0-0.1,0-0.2c0-0.1-0.1-0.1-0.1,0C8,20.4,8,20.5,8,20.6c-0.1-0.1-0.2,0-0.1,0.1c0,0,0,0-0.1,0c0,0,0,0,0,0
				c0,0.1,0.1,0.1,0.2,0.2C7.8,20.9,7.7,20.9,7.6,21.1C7.6,21,7.6,21.1,7.6,21.1z"/>
		</g>
		<g>
			<path class="st4" d="M10.3,16.4c-0.1,0-0.2-0.1-0.2-0.1c0.1-0.1,0.2-0.3,0.1-0.4c-0.1-0.1-0.2-0.1-0.3-0.2
				c0.1-0.1,0.1-0.2,0.1-0.3c-0.1-0.3-0.5-0.4-0.7-0.4c-0.2,0-0.3,0.1-0.4,0.2c0.1-0.2,0.1-0.3,0.1-0.5c0-0.4-0.1-0.8-0.4-0.5
				c-0.1-0.3-0.5-0.3-0.6,0c-0.3-0.3-0.6-0.1-0.6,0.3c-0.1,0-0.1,0-0.2-0.1c-0.1,0-0.1,0-0.1,0.1c0,0.4,0.1,0.8,0.3,1.1
				c-0.2-0.1-0.4-0.2-0.6-0.2c-0.3,0-0.6,0.2-0.7,0.5c0,0.3,0.3,0.4,0.5,0.4c-0.1,0.1-0.2,0.2-0.3,0.3c-0.1,0.1,0,0.1,0.1,0.2
				c0.1,0,0.2,0,0.3,0c-0.1,0.2-0.1,0.3-0.1,0.5c0,0.1,0.1,0.1,0.1,0.1c0.1-0.1,0.3-0.1,0.4-0.1c0.1,0.3,0.2,0.4,0.5,0.1
				c0.1-0.1,0.2-0.2,0.3-0.3c0,0.2,0,0.4,0,0.7c0.1,0.4,0.3,0.5,0.4,0.3c0.1,0.3,0.5,0.2,0.6-0.1c0.3,0.3,0.6,0,0.5-0.4
				c0.1,0,0.2,0,0.3,0.1c0,0,0.1,0,0.1-0.1c0-0.3-0.2-0.6-0.4-0.9c0.4,0.1,0.7,0.1,1.1-0.2C10.4,16.6,10.4,16.5,10.3,16.4z"/>
			<path class="st4" d="M9.8,16.4c-0.1,0-0.1-0.1-0.2-0.1c0.1-0.1,0.2-0.2,0-0.3c-0.1-0.1-0.2-0.1-0.2-0.1c0.1-0.1,0.1-0.1,0.1-0.2
				c0-0.2-0.4-0.3-0.5-0.3c-0.1,0-0.2,0.1-0.3,0.1c0-0.1,0.1-0.2,0.1-0.4c0-0.3-0.1-0.6-0.3-0.4c-0.1-0.2-0.3-0.2-0.4,0
				c-0.2-0.2-0.5-0.1-0.4,0.2c-0.1,0-0.1,0-0.2-0.1c0,0-0.1,0-0.1,0.1c0,0.3,0.1,0.6,0.2,0.8c-0.2-0.1-0.3-0.2-0.5-0.2
				c-0.2,0-0.5,0.2-0.5,0.4c0,0.2,0.2,0.3,0.4,0.3c-0.1,0.1-0.2,0.1-0.3,0.2c0,0,0,0.1,0,0.1c0.1,0,0.2,0,0.3,0
				c-0.1,0.1-0.1,0.2-0.1,0.4c0,0.1,0,0.1,0.1,0.1c0.1,0,0.2-0.1,0.3-0.1c0,0.2,0.2,0.3,0.4,0.1c0.1-0.1,0.1-0.1,0.2-0.2
				c0,0.2,0,0.3,0,0.5c0.1,0.3,0.2,0.3,0.3,0.2c0.1,0.2,0.4,0.2,0.4-0.1c0.2,0.2,0.5,0,0.4-0.3c0.1,0,0.1,0,0.2,0c0,0,0.1,0,0.1-0.1
				c0-0.2-0.1-0.5-0.3-0.6c0.3,0.1,0.5,0.1,0.8-0.1C9.8,16.5,9.8,16.4,9.8,16.4z"/>
			<path class="st3" d="M9.4,17.1c0-0.1-0.1-0.1-0.1-0.2c0.1,0,0.2-0.1,0.2-0.2c0-0.1-0.1-0.2-0.1-0.2c0.1,0,0.1-0.1,0.2-0.2
				c0.1-0.2-0.2-0.4-0.3-0.5c-0.1-0.1-0.2-0.1-0.4,0c0.1-0.1,0.2-0.2,0.3-0.3c0.2-0.2,0.2-0.5,0-0.5c0.1-0.2-0.2-0.3-0.4-0.2
				c0-0.3-0.3-0.3-0.5,0c0,0-0.1-0.1-0.1-0.1c0,0-0.1,0-0.1,0c-0.2,0.2-0.2,0.5-0.2,0.8c-0.1-0.1-0.1-0.3-0.3-0.4
				c-0.2-0.1-0.5-0.1-0.6,0.1c-0.1,0.2,0,0.3,0.1,0.5c-0.1,0-0.2,0-0.3,0.1c-0.1,0-0.1,0.1,0,0.1C6.8,16,6.9,16,6.9,16
				c-0.1,0.1-0.2,0.1-0.3,0.3c0,0,0,0.1,0,0.1c0.1,0,0.2,0,0.3,0.1c-0.1,0.2,0,0.3,0.3,0.3c0.1,0,0.2,0,0.3-0.1
				c-0.1,0.1-0.2,0.2-0.3,0.4c-0.1,0.3,0,0.4,0.2,0.3c0,0.2,0.2,0.3,0.4,0.1c0.1,0.3,0.4,0.2,0.5-0.1c0,0,0.1,0.1,0.1,0.1
				c0,0,0.1,0,0.1,0c0.1-0.2,0.1-0.4,0.1-0.7C8.8,17.1,9,17.3,9.4,17.1C9.4,17.2,9.5,17.2,9.4,17.1z"/>
			<path class="st5" d="M9.1,16.9c0,0,0-0.1-0.1-0.1c0.1,0,0.2-0.1,0.1-0.2c0-0.1-0.1-0.1-0.1-0.2c0.1,0,0.1-0.1,0.1-0.1
				C9.3,16.2,9.1,16,9,16c-0.1,0-0.2,0-0.3,0c0.1-0.1,0.1-0.1,0.2-0.2c0.1-0.2,0.2-0.4,0-0.4c0-0.2-0.1-0.3-0.3-0.1
				c0-0.2-0.3-0.2-0.4,0c0,0-0.1-0.1-0.1-0.1c0,0-0.1,0-0.1,0C8,15.3,8,15.5,8,15.7c-0.1-0.1-0.1-0.2-0.2-0.3
				c-0.1-0.1-0.4-0.1-0.5,0.1c-0.1,0.1,0,0.3,0.1,0.3c-0.1,0-0.2,0-0.3,0.1c0,0,0,0.1,0,0.1c0.1,0,0.1,0.1,0.2,0.1
				c-0.1,0-0.1,0.1-0.2,0.2c0,0,0,0.1,0,0.1c0.1,0,0.1,0,0.2,0.1c0,0.1,0,0.2,0.2,0.2c0.1,0,0.1,0,0.2,0c-0.1,0.1-0.1,0.2-0.2,0.3
				c-0.1,0.2,0,0.3,0.1,0.2c0,0.2,0.2,0.2,0.3,0.1c0.1,0.2,0.3,0.2,0.4-0.1c0,0,0.1,0.1,0.1,0.1c0,0,0.1,0,0.1,0
				c0.1-0.2,0.1-0.3,0.1-0.5C8.7,16.9,8.8,17,9.1,16.9C9.1,17,9.1,16.9,9.1,16.9z"/>
			<path class="st4" d="M7.6,16.3C7.7,16.3,7.7,16.3,7.6,16.3c0,0.1,0,0.1,0.1,0.1c0,0,0.1,0,0.1,0c0,0,0,0.1,0,0.1
				c0,0.1,0.1,0.1,0.2,0c0,0,0.1,0,0.1-0.1c0,0,0,0.1,0,0.1c0,0.1,0.1,0.2,0.1,0.1c0,0.1,0.1,0,0.1,0c0.1,0.1,0.2,0,0.1-0.1
				c0,0,0,0,0.1,0c0,0,0,0,0,0c0-0.1-0.1-0.2-0.1-0.3c0.1,0,0.1,0,0.2,0c0.1,0,0.1-0.1,0.1-0.2C8.8,16,8.7,16,8.6,16
				c0,0,0-0.1,0.1-0.1c0,0,0,0,0,0c0,0-0.1,0-0.1,0c0,0,0-0.1,0-0.1c0,0,0,0,0,0c0,0-0.1,0-0.1,0.1c0-0.1-0.1-0.1-0.1,0
				c0,0,0,0.1,0,0.1c0-0.1,0-0.1,0-0.2c0-0.1-0.1-0.1-0.1,0C8,15.6,8,15.6,8,15.7c-0.1-0.1-0.2,0-0.1,0.1c0,0,0,0-0.1,0c0,0,0,0,0,0
				c0,0.1,0.1,0.1,0.2,0.2C7.8,16.1,7.7,16.1,7.6,16.3C7.6,16.2,7.6,16.3,7.6,16.3z"/>
		</g>
		<g>
			<path class="st4" d="M10.3,11.6c-0.1,0-0.2-0.1-0.2-0.1c0.1-0.1,0.2-0.3,0.1-0.4c-0.1-0.1-0.2-0.1-0.3-0.2
				c0.1-0.1,0.1-0.2,0.1-0.3c-0.1-0.3-0.5-0.4-0.7-0.4c-0.2,0-0.3,0.1-0.4,0.2c0.1-0.2,0.1-0.3,0.1-0.5c0-0.4-0.1-0.8-0.4-0.5
				C8.5,9.1,8.1,9.1,8,9.4C7.7,9.1,7.3,9.3,7.4,9.7c-0.1,0-0.1,0-0.2-0.1C7.1,9.6,7,9.7,7,9.7c0,0.4,0.1,0.8,0.3,1.1
				c-0.2-0.1-0.4-0.2-0.6-0.2c-0.3,0-0.6,0.2-0.7,0.5c0,0.3,0.3,0.4,0.5,0.4c-0.1,0.1-0.2,0.2-0.3,0.3c-0.1,0.1,0,0.1,0.1,0.2
				c0.1,0,0.2,0,0.3,0c-0.1,0.2-0.1,0.3-0.1,0.5c0,0.1,0.1,0.1,0.1,0.1c0.1-0.1,0.3-0.1,0.4-0.1c0.1,0.3,0.2,0.4,0.5,0.1
				c0.1-0.1,0.2-0.2,0.3-0.3c0,0.2,0,0.4,0,0.7c0.1,0.4,0.3,0.5,0.4,0.3c0.1,0.3,0.5,0.2,0.6-0.1c0.3,0.3,0.6,0,0.5-0.4
				c0.1,0,0.2,0,0.3,0.1c0,0,0.1,0,0.1-0.1c0-0.3-0.2-0.6-0.4-0.9c0.4,0.1,0.7,0.1,1.1-0.2C10.4,11.7,10.4,11.6,10.3,11.6z"/>
			<path class="st4" d="M9.8,11.5c-0.1,0-0.1-0.1-0.2-0.1c0.1-0.1,0.2-0.2,0-0.3C9.6,11.1,9.5,11,9.4,11c0.1-0.1,0.1-0.1,0.1-0.2
				c0-0.2-0.4-0.3-0.5-0.3c-0.1,0-0.2,0.1-0.3,0.1c0-0.1,0.1-0.2,0.1-0.4c0-0.3-0.1-0.6-0.3-0.4C8.4,9.7,8.1,9.7,8,9.9
				c-0.2-0.2-0.5-0.1-0.4,0.2c-0.1,0-0.1,0-0.2-0.1c0,0-0.1,0-0.1,0.1c0,0.3,0.1,0.6,0.2,0.8c-0.2-0.1-0.3-0.2-0.5-0.2
				c-0.2,0-0.5,0.2-0.5,0.4c0,0.2,0.2,0.3,0.4,0.3c-0.1,0.1-0.2,0.1-0.3,0.2c0,0,0,0.1,0,0.1c0.1,0,0.2,0,0.3,0
				c-0.1,0.1-0.1,0.2-0.1,0.4c0,0.1,0,0.1,0.1,0.1c0.1,0,0.2-0.1,0.3-0.1c0,0.2,0.2,0.3,0.4,0.1c0.1-0.1,0.1-0.1,0.2-0.2
				c0,0.2,0,0.3,0,0.5C7.9,12.9,8,13,8.2,12.8c0.1,0.2,0.4,0.2,0.4-0.1C8.8,13,9,12.7,9,12.4c0.1,0,0.1,0,0.2,0c0,0,0.1,0,0.1-0.1
				c0-0.2-0.1-0.5-0.3-0.6c0.3,0.1,0.5,0.1,0.8-0.1C9.8,11.6,9.8,11.6,9.8,11.5z"/>
			<path class="st3" d="M9.4,12.3c0-0.1-0.1-0.1-0.1-0.2c0.1,0,0.2-0.1,0.2-0.2c0-0.1-0.1-0.2-0.1-0.2c0.1,0,0.1-0.1,0.2-0.2
				c0.1-0.2-0.2-0.4-0.3-0.5C9.2,11,9,11,8.9,11c0.1-0.1,0.2-0.2,0.3-0.3c0.2-0.2,0.2-0.5,0-0.5C9.2,10,9,9.9,8.8,10.1
				c0-0.3-0.3-0.3-0.5,0c0,0-0.1-0.1-0.1-0.1c0,0-0.1,0-0.1,0c-0.2,0.2-0.2,0.5-0.2,0.8c-0.1-0.1-0.1-0.3-0.3-0.4
				c-0.2-0.1-0.5-0.1-0.6,0.1c-0.1,0.2,0,0.3,0.1,0.5c-0.1,0-0.2,0-0.3,0.1c-0.1,0-0.1,0.1,0,0.1c0.1,0,0.1,0.1,0.2,0.1
				c-0.1,0.1-0.2,0.1-0.3,0.3c0,0,0,0.1,0,0.1c0.1,0,0.2,0,0.3,0.1c-0.1,0.2,0,0.3,0.3,0.3c0.1,0,0.2,0,0.3-0.1
				c-0.1,0.1-0.2,0.2-0.3,0.4c-0.1,0.3,0,0.4,0.2,0.3c0,0.2,0.2,0.3,0.4,0.1c0.1,0.3,0.4,0.2,0.5-0.1c0,0,0.1,0.1,0.1,0.1
				c0,0,0.1,0,0.1,0c0.1-0.2,0.1-0.4,0.1-0.7C8.8,12.3,9,12.4,9.4,12.3C9.4,12.4,9.5,12.3,9.4,12.3z"/>
			<path class="st5" d="M9.1,12.1c0,0,0-0.1-0.1-0.1c0.1,0,0.2-0.1,0.1-0.2c0-0.1-0.1-0.1-0.1-0.2c0.1,0,0.1-0.1,0.1-0.1
				c0.1-0.2-0.1-0.3-0.2-0.4c-0.1,0-0.2,0-0.3,0C8.8,11,8.9,11,8.9,10.9c0.1-0.2,0.2-0.4,0-0.4c0-0.2-0.1-0.3-0.3-0.1
				c0-0.2-0.3-0.2-0.4,0c0,0-0.1-0.1-0.1-0.1c0,0-0.1,0-0.1,0C8,10.5,8,10.7,8,10.9c-0.1-0.1-0.1-0.2-0.2-0.3
				c-0.1-0.1-0.4-0.1-0.5,0.1c-0.1,0.1,0,0.3,0.1,0.3c-0.1,0-0.2,0-0.3,0.1c0,0,0,0.1,0,0.1c0.1,0,0.1,0.1,0.2,0.1
				c-0.1,0-0.1,0.1-0.2,0.2c0,0,0,0.1,0,0.1c0.1,0,0.1,0,0.2,0.1c0,0.1,0,0.2,0.2,0.2c0.1,0,0.1,0,0.2,0c-0.1,0.1-0.1,0.2-0.2,0.3
				c-0.1,0.2,0,0.3,0.1,0.2c0,0.2,0.2,0.2,0.3,0.1c0.1,0.2,0.3,0.2,0.4-0.1c0,0,0.1,0.1,0.1,0.1c0,0,0.1,0,0.1,0
				c0.1-0.2,0.1-0.3,0.1-0.5C8.7,12,8.8,12.1,9.1,12.1C9.1,12.1,9.1,12.1,9.1,12.1z"/>
			<path class="st4" d="M7.6,11.4C7.7,11.4,7.7,11.4,7.6,11.4c0,0.1,0,0.1,0.1,0.1c0,0,0.1,0,0.1,0c0,0,0,0.1,0,0.1
				c0,0.1,0.1,0.1,0.2,0c0,0,0.1,0,0.1-0.1c0,0,0,0.1,0,0.1c0,0.1,0.1,0.2,0.1,0.1c0,0.1,0.1,0,0.1,0c0.1,0.1,0.2,0,0.1-0.1
				c0,0,0,0,0.1,0c0,0,0,0,0,0c0-0.1-0.1-0.2-0.1-0.3c0.1,0,0.1,0,0.2,0c0.1,0,0.1-0.1,0.1-0.2c0-0.1-0.1-0.1-0.2-0.1
				c0,0,0-0.1,0.1-0.1c0,0,0,0,0,0c0,0-0.1,0-0.1,0c0,0,0-0.1,0-0.1c0,0,0,0,0,0c0,0-0.1,0-0.1,0.1c0-0.1-0.1-0.1-0.1,0
				c0,0,0,0.1,0,0.1c0-0.1,0-0.1,0-0.2c0-0.1-0.1-0.1-0.1,0C8,10.8,8,10.8,8,10.9c-0.1-0.1-0.2,0-0.1,0.1c0,0,0,0-0.1,0c0,0,0,0,0,0
				c0,0.1,0.1,0.1,0.2,0.2C7.8,11.3,7.7,11.3,7.6,11.4C7.6,11.4,7.6,11.4,7.6,11.4z"/>
		</g>
		<g>
			<path class="st4" d="M10.3,6.8c-0.1,0-0.2-0.1-0.2-0.1c0.1-0.1,0.2-0.3,0.1-0.4C10.1,6.1,10,6.1,9.9,6.1C9.9,6,10,5.9,10,5.7
				C9.9,5.4,9.5,5.4,9.2,5.4c-0.2,0-0.3,0.1-0.4,0.2c0.1-0.2,0.1-0.3,0.1-0.5c0-0.4-0.1-0.8-0.4-0.5C8.5,4.2,8.1,4.2,8,4.6
				C7.7,4.2,7.3,4.5,7.4,4.9c-0.1,0-0.1,0-0.2-0.1C7.1,4.8,7,4.8,7,4.9C7,5.3,7.2,5.6,7.3,6C7.1,5.9,7,5.7,6.7,5.8
				C6.4,5.8,6.1,6,6,6.3c0,0.3,0.3,0.4,0.5,0.4C6.4,6.8,6.3,6.9,6.2,7.1c-0.1,0.1,0,0.1,0.1,0.2c0.1,0,0.2,0,0.3,0
				C6.5,7.4,6.5,7.5,6.5,7.7c0,0.1,0.1,0.1,0.1,0.1C6.7,7.8,6.9,7.8,7,7.7C7,8,7.2,8.1,7.5,7.8c0.1-0.1,0.2-0.2,0.3-0.3
				c0,0.2,0,0.4,0,0.7C7.8,8.6,8,8.7,8.1,8.5c0.1,0.3,0.5,0.2,0.6-0.1C9,8.7,9.3,8.4,9.2,8C9.3,8,9.4,8,9.5,8c0,0,0.1,0,0.1-0.1
				c0-0.3-0.2-0.6-0.4-0.9c0.4,0.1,0.7,0.1,1.1-0.2C10.4,6.9,10.4,6.8,10.3,6.8z"/>
			<path class="st4" d="M9.8,6.7c-0.1,0-0.1-0.1-0.2-0.1c0.1-0.1,0.2-0.2,0-0.3C9.6,6.2,9.5,6.2,9.4,6.2C9.5,6.1,9.5,6,9.5,5.9
				c0-0.2-0.4-0.3-0.5-0.3c-0.1,0-0.2,0.1-0.3,0.1c0-0.1,0.1-0.2,0.1-0.4c0-0.3-0.1-0.6-0.3-0.4C8.4,4.8,8.1,4.8,8,5.1
				C7.8,4.8,7.6,5,7.6,5.3c-0.1,0-0.1,0-0.2-0.1c0,0-0.1,0-0.1,0.1c0,0.3,0.1,0.6,0.2,0.8C7.4,6,7.3,5.9,7.1,6
				C6.9,6,6.6,6.1,6.6,6.4c0,0.2,0.2,0.3,0.4,0.3C6.9,6.7,6.8,6.8,6.7,6.9c0,0,0,0.1,0,0.1C6.8,7,6.9,7,7,7C6.9,7.2,6.9,7.3,6.9,7.4
				c0,0.1,0,0.1,0.1,0.1c0.1,0,0.2-0.1,0.3-0.1c0,0.2,0.2,0.3,0.4,0.1c0.1-0.1,0.1-0.1,0.2-0.2c0,0.2,0,0.3,0,0.5
				C7.9,8.1,8,8.1,8.2,8c0.1,0.2,0.4,0.2,0.4-0.1C8.8,8.1,9,7.9,9,7.6c0.1,0,0.1,0,0.2,0c0,0,0.1,0,0.1-0.1c0-0.2-0.1-0.5-0.3-0.6
				C9.2,7,9.5,7,9.8,6.8C9.8,6.8,9.8,6.7,9.8,6.7z"/>
			<path class="st3" d="M9.4,7.5c0-0.1-0.1-0.1-0.1-0.2c0.1,0,0.2-0.1,0.2-0.2c0-0.1-0.1-0.2-0.1-0.2c0.1,0,0.1-0.1,0.2-0.2
				c0.1-0.2-0.2-0.4-0.3-0.5C9.2,6.1,9,6.1,8.9,6.2C9,6.1,9.1,6,9.2,5.9c0.2-0.2,0.2-0.5,0-0.5C9.2,5.2,9,5.1,8.8,5.2
				c0-0.3-0.3-0.3-0.5,0c0,0-0.1-0.1-0.1-0.1c0,0-0.1,0-0.1,0C7.9,5.3,7.9,5.6,7.9,5.8C7.8,5.7,7.7,5.6,7.6,5.5
				C7.4,5.4,7.1,5.4,6.9,5.6C6.8,5.7,7,5.9,7.1,6C7,6,6.9,6.1,6.8,6.1c-0.1,0-0.1,0.1,0,0.1c0.1,0,0.1,0.1,0.2,0.1
				C6.8,6.4,6.8,6.5,6.7,6.6c0,0,0,0.1,0,0.1c0.1,0,0.2,0,0.3,0.1C7,7,7,7.1,7.3,7C7.3,7,7.4,7,7.5,7C7.4,7.1,7.3,7.2,7.3,7.4
				c-0.1,0.3,0,0.4,0.2,0.3C7.4,8,7.6,8,7.8,7.9c0.1,0.3,0.4,0.2,0.5-0.1c0,0,0.1,0.1,0.1,0.1c0,0,0.1,0,0.1,0
				c0.1-0.2,0.1-0.4,0.1-0.7C8.8,7.4,9,7.6,9.4,7.5C9.4,7.5,9.5,7.5,9.4,7.5z"/>
			<path class="st5" d="M9.1,7.2c0,0,0-0.1-0.1-0.1c0.1,0,0.2-0.1,0.1-0.2c0-0.1-0.1-0.1-0.1-0.2c0.1,0,0.1-0.1,0.1-0.1
				C9.3,6.5,9.1,6.3,9,6.3c-0.1,0-0.2,0-0.3,0C8.8,6.2,8.9,6.1,8.9,6c0.1-0.2,0.2-0.4,0-0.4c0-0.2-0.1-0.3-0.3-0.1
				c0-0.2-0.3-0.2-0.4,0c0,0-0.1-0.1-0.1-0.1c0,0-0.1,0-0.1,0C8,5.6,8,5.8,8,6C7.9,5.9,7.9,5.8,7.7,5.7C7.6,5.7,7.4,5.7,7.3,5.8
				C7.2,5.9,7.3,6,7.4,6.1c-0.1,0-0.2,0-0.3,0.1c0,0,0,0.1,0,0.1c0.1,0,0.1,0.1,0.2,0.1c-0.1,0-0.1,0.1-0.2,0.2c0,0,0,0.1,0,0.1
				c0.1,0,0.1,0,0.2,0.1c0,0.1,0,0.2,0.2,0.2c0.1,0,0.1,0,0.2,0C7.6,6.9,7.6,7,7.5,7.2c-0.1,0.2,0,0.3,0.1,0.2
				c0,0.2,0.2,0.2,0.3,0.1C8,7.7,8.2,7.7,8.3,7.5c0,0,0.1,0.1,0.1,0.1c0,0,0.1,0,0.1,0C8.5,7.4,8.5,7.2,8.5,7
				C8.7,7.2,8.8,7.3,9.1,7.2C9.1,7.3,9.1,7.2,9.1,7.2z"/>
			<path class="st4" d="M7.6,6.6C7.7,6.6,7.7,6.6,7.6,6.6c0,0.1,0,0.1,0.1,0.1c0,0,0.1,0,0.1,0c0,0,0,0.1,0,0.1c0,0.1,0.1,0.1,0.2,0
				c0,0,0.1,0,0.1-0.1c0,0,0,0.1,0,0.1C8.1,7,8.2,7.1,8.2,7c0,0.1,0.1,0,0.1,0c0.1,0.1,0.2,0,0.1-0.1c0,0,0,0,0.1,0c0,0,0,0,0,0
				c0-0.1-0.1-0.2-0.1-0.3c0.1,0,0.1,0,0.2,0c0.1,0,0.1-0.1,0.1-0.2c0-0.1-0.1-0.1-0.2-0.1c0,0,0-0.1,0.1-0.1c0,0,0,0,0,0
				c0,0-0.1,0-0.1,0c0,0,0-0.1,0-0.1c0,0,0,0,0,0c0,0-0.1,0-0.1,0.1c0-0.1-0.1-0.1-0.1,0c0,0,0,0.1,0,0.1c0-0.1,0-0.1,0-0.2
				c0-0.1-0.1-0.1-0.1,0C8,5.9,8,5.9,8,6C7.9,6,7.8,6.1,7.9,6.2c0,0,0,0-0.1,0c0,0,0,0,0,0c0,0.1,0.1,0.1,0.2,0.2
				C7.8,6.4,7.7,6.4,7.6,6.6C7.6,6.5,7.6,6.6,7.6,6.6z"/>
		</g>
		<g>
			<path class="st4" d="M10.4,25.8c-0.1,0-0.2-0.1-0.2-0.1c0.1-0.1,0.2-0.3,0.1-0.4c-0.1-0.1-0.2-0.1-0.3-0.2
				c0.1-0.1,0.1-0.2,0.1-0.3c-0.1-0.3-0.5-0.4-0.7-0.4c-0.2,0-0.3,0.1-0.4,0.2C8.9,24.5,9,24.3,9,24.2c0-0.4-0.1-0.8-0.4-0.5
				c-0.1-0.3-0.5-0.3-0.6,0c-0.3-0.3-0.6-0.1-0.6,0.3c-0.1,0-0.1,0-0.2-0.1c-0.1,0-0.1,0-0.1,0.1c0,0.4,0.1,0.8,0.3,1.1
				C7.2,25,7,24.8,6.8,24.9c-0.3,0-0.6,0.2-0.7,0.5c0,0.3,0.3,0.4,0.5,0.4c-0.1,0.1-0.2,0.2-0.3,0.3c-0.1,0.1,0,0.1,0.1,0.2
				c0.1,0,0.2,0,0.3,0c-0.1,0.2-0.1,0.3-0.1,0.5c0,0.1,0.1,0.1,0.1,0.1c0.1-0.1,0.3-0.1,0.4-0.1c0.1,0.3,0.2,0.4,0.5,0.1
				c0.1-0.1,0.2-0.2,0.3-0.3c0,0.2,0,0.4,0,0.7c0.1,0.4,0.3,0.5,0.4,0.3c0.1,0.3,0.5,0.2,0.6-0.1c0.3,0.3,0.6,0,0.5-0.4
				c0.1,0,0.2,0,0.3,0.1c0,0,0.1,0,0.1-0.1c0-0.3-0.2-0.6-0.4-0.9c0.4,0.1,0.7,0.1,1.1-0.2C10.5,26,10.5,25.9,10.4,25.8z"/>
			<path class="st4" d="M9.9,25.8c-0.1,0-0.1-0.1-0.2-0.1c0.1-0.1,0.2-0.2,0-0.3c-0.1-0.1-0.2-0.1-0.2-0.1c0.1-0.1,0.1-0.1,0.1-0.2
				c0-0.2-0.4-0.3-0.5-0.3c-0.1,0-0.2,0.1-0.3,0.1c0-0.1,0.1-0.2,0.1-0.4c0-0.3-0.1-0.6-0.3-0.4c-0.1-0.2-0.3-0.2-0.4,0
				c-0.2-0.2-0.5-0.1-0.4,0.2c-0.1,0-0.1,0-0.2-0.1c0,0-0.1,0-0.1,0.1c0,0.3,0.1,0.6,0.2,0.8C7.5,25.1,7.4,25,7.2,25
				c-0.2,0-0.5,0.2-0.5,0.4c0,0.2,0.2,0.3,0.4,0.3C7,25.8,6.9,25.9,6.8,26c0,0,0,0.1,0,0.1c0.1,0,0.2,0,0.3,0C7,26.2,7,26.4,7,26.5
				c0,0.1,0,0.1,0.1,0.1c0.1,0,0.2-0.1,0.3-0.1c0,0.2,0.2,0.3,0.4,0.1c0.1-0.1,0.1-0.1,0.2-0.2c0,0.2,0,0.3,0,0.5
				c0.1,0.3,0.2,0.3,0.3,0.2c0.1,0.2,0.4,0.2,0.4-0.1c0.2,0.2,0.5,0,0.4-0.3c0.1,0,0.1,0,0.2,0c0,0,0.1,0,0.1-0.1
				c0-0.2-0.1-0.5-0.3-0.6c0.3,0.1,0.5,0.1,0.8-0.1C9.9,25.9,9.9,25.8,9.9,25.8z"/>
			<path class="st3" d="M9.5,26.5c0-0.1-0.1-0.1-0.1-0.2c0.1,0,0.2-0.1,0.2-0.2c0-0.1-0.1-0.2-0.1-0.2c0.1,0,0.1-0.1,0.2-0.2
				c0.1-0.2-0.2-0.4-0.3-0.5c-0.1-0.1-0.2-0.1-0.3,0c0.1-0.1,0.2-0.2,0.3-0.3c0.2-0.2,0.2-0.5,0-0.5c0.1-0.2-0.2-0.3-0.4-0.2
				c0-0.3-0.3-0.3-0.5,0c0,0-0.1-0.1-0.1-0.1c0,0-0.1,0-0.1,0C8,24.4,8,24.7,8,24.9c-0.1-0.1-0.1-0.3-0.3-0.4
				c-0.2-0.1-0.5-0.1-0.6,0.1c-0.1,0.2,0,0.3,0.1,0.5c-0.1,0-0.2,0-0.3,0.1c-0.1,0-0.1,0.1,0,0.1c0.1,0,0.1,0.1,0.2,0.1
				c-0.1,0.1-0.2,0.1-0.3,0.3c0,0,0,0.1,0,0.1c0.1,0,0.2,0,0.3,0.1c-0.1,0.2,0,0.3,0.2,0.3c0.1,0,0.2,0,0.3-0.1
				c-0.1,0.1-0.2,0.2-0.3,0.4c-0.1,0.3,0,0.4,0.2,0.3c0,0.2,0.2,0.3,0.4,0.1c0.1,0.3,0.4,0.2,0.5-0.1c0,0,0.1,0.1,0.1,0.1
				c0,0,0.1,0,0.1,0c0.1-0.2,0.1-0.4,0.1-0.7C8.9,26.5,9.1,26.7,9.5,26.5C9.5,26.6,9.6,26.6,9.5,26.5z"/>
			<path class="st5" d="M9.2,26.3c0,0,0-0.1-0.1-0.1c0.1,0,0.2-0.1,0.1-0.2c0-0.1-0.1-0.1-0.1-0.2c0.1,0,0.1-0.1,0.1-0.1
				c0.1-0.2-0.1-0.3-0.2-0.4c-0.1,0-0.2,0-0.3,0C8.9,25.3,9,25.2,9,25.1c0.1-0.2,0.2-0.4,0-0.4c0-0.2-0.1-0.3-0.3-0.1
				c0-0.2-0.3-0.2-0.4,0c0,0-0.1-0.1-0.1-0.1c0,0-0.1,0-0.1,0c-0.1,0.2-0.1,0.4-0.2,0.6C8,25,7.9,24.9,7.8,24.8
				c-0.1-0.1-0.4-0.1-0.5,0.1c-0.1,0.1,0,0.3,0.1,0.3c-0.1,0-0.2,0-0.3,0.1c0,0,0,0.1,0,0.1c0.1,0,0.1,0.1,0.2,0.1
				c-0.1,0-0.1,0.1-0.2,0.2c0,0,0,0.1,0,0.1c0.1,0,0.1,0,0.2,0.1c0,0.1,0,0.2,0.2,0.2c0.1,0,0.1,0,0.2,0c-0.1,0.1-0.1,0.2-0.2,0.3
				c-0.1,0.2,0,0.3,0.1,0.2c0,0.2,0.2,0.2,0.3,0.1c0.1,0.2,0.3,0.2,0.4-0.1c0,0,0.1,0.1,0.1,0.1c0,0,0.1,0,0.1,0
				c0.1-0.2,0.1-0.3,0.1-0.5C8.7,26.3,8.9,26.4,9.2,26.3C9.2,26.4,9.2,26.3,9.2,26.3z"/>
			<path class="st4" d="M7.7,25.7C7.8,25.7,7.8,25.7,7.7,25.7c0,0.1,0,0.1,0.1,0.1c0,0,0.1,0,0.1,0c0,0,0,0.1,0,0.1
				c0,0.1,0.1,0.1,0.2,0c0,0,0.1,0,0.1-0.1c0,0,0,0.1,0,0.1c0,0.1,0.1,0.2,0.1,0.1c0,0.1,0.1,0,0.1,0c0.1,0.1,0.2,0,0.1-0.1
				c0,0,0,0,0.1,0c0,0,0,0,0,0c0-0.1-0.1-0.2-0.1-0.3c0.1,0,0.1,0,0.2,0c0.1,0,0.1-0.1,0.1-0.2c0-0.1-0.1-0.1-0.2-0.1
				c0,0,0-0.1,0.1-0.1c0,0,0,0,0,0c0,0-0.1,0-0.1,0c0,0,0-0.1,0-0.1c0,0,0,0,0,0c0,0-0.1,0-0.1,0.1c0-0.1-0.1-0.1-0.1,0
				c0,0,0,0.1,0,0.1c0-0.1,0-0.1,0-0.2c0-0.1-0.1-0.1-0.1,0C8.1,25,8,25,8,25.1c-0.1-0.1-0.2,0-0.1,0.1c0,0,0,0-0.1,0c0,0,0,0,0,0
				c0,0.1,0.1,0.1,0.2,0.2C7.9,25.5,7.8,25.5,7.7,25.7C7.7,25.6,7.7,25.7,7.7,25.7z"/>
		</g>
		<g>
			<path class="st4" d="M10.3,30.8c-0.1,0-0.2-0.1-0.2-0.1c0.1-0.1,0.2-0.3,0.1-0.4c-0.1-0.1-0.2-0.1-0.3-0.2
				C9.9,30,10,29.9,10,29.8c-0.1-0.3-0.5-0.4-0.7-0.4c-0.2,0-0.3,0.1-0.4,0.2c0.1-0.2,0.1-0.3,0.1-0.5c0-0.4-0.1-0.8-0.4-0.5
				c-0.1-0.3-0.5-0.3-0.6,0c-0.3-0.3-0.6-0.1-0.6,0.3c-0.1,0-0.1,0-0.2-0.1c-0.1,0-0.1,0-0.1,0.1c0,0.4,0.1,0.8,0.3,1.1
				c-0.2-0.1-0.4-0.2-0.6-0.2c-0.3,0-0.6,0.2-0.7,0.5c0,0.3,0.3,0.4,0.5,0.4c-0.1,0.1-0.2,0.2-0.3,0.3c-0.1,0.1,0,0.1,0.1,0.2
				c0.1,0,0.2,0,0.3,0c-0.1,0.2-0.1,0.3-0.1,0.5c0,0.1,0.1,0.1,0.1,0.1c0.1-0.1,0.3-0.1,0.4-0.1C7,32,7.2,32.1,7.5,31.9
				c0.1-0.1,0.2-0.2,0.3-0.3c0,0.2,0,0.4,0,0.7c0.1,0.4,0.3,0.5,0.4,0.3c0.1,0.3,0.5,0.2,0.6-0.1c0.3,0.3,0.6,0,0.5-0.4
				c0.1,0,0.2,0,0.3,0.1c0,0,0.1,0,0.1-0.1c0-0.3-0.2-0.6-0.4-0.9c0.4,0.1,0.7,0.1,1.1-0.2C10.4,30.9,10.4,30.8,10.3,30.8z"/>
			<path class="st4" d="M9.8,30.7c-0.1,0-0.1-0.1-0.2-0.1c0.1-0.1,0.2-0.2,0-0.3c-0.1-0.1-0.2-0.1-0.2-0.1c0.1-0.1,0.1-0.1,0.1-0.2
				c0-0.2-0.4-0.3-0.5-0.3c-0.1,0-0.2,0.1-0.3,0.1c0-0.1,0.1-0.2,0.1-0.4c0-0.3-0.1-0.6-0.3-0.4c-0.1-0.2-0.3-0.2-0.4,0
				c-0.2-0.2-0.5-0.1-0.4,0.2c-0.1,0-0.1,0-0.2-0.1c0,0-0.1,0-0.1,0.1c0,0.3,0.1,0.6,0.2,0.8c-0.2-0.1-0.3-0.2-0.5-0.2
				c-0.2,0-0.5,0.2-0.5,0.4c0,0.2,0.2,0.3,0.4,0.3c-0.1,0.1-0.2,0.1-0.3,0.2c0,0,0,0.1,0,0.1c0.1,0,0.2,0,0.3,0
				c-0.1,0.1-0.1,0.2-0.1,0.4c0,0.1,0,0.1,0.1,0.1c0.1,0,0.2-0.1,0.3-0.1c0,0.2,0.2,0.3,0.4,0.1c0.1-0.1,0.1-0.1,0.2-0.2
				c0,0.2,0,0.3,0,0.5C7.9,32.1,8,32.2,8.2,32c0.1,0.2,0.4,0.2,0.4-0.1c0.2,0.2,0.5,0,0.4-0.3c0.1,0,0.1,0,0.2,0c0,0,0.1,0,0.1-0.1
				c0-0.2-0.1-0.5-0.3-0.6C9.2,31,9.5,31,9.8,30.8C9.8,30.8,9.8,30.7,9.8,30.7z"/>
			<path class="st3" d="M9.4,31.5c0-0.1-0.1-0.1-0.1-0.2c0.1,0,0.2-0.1,0.2-0.2c0-0.1-0.1-0.2-0.1-0.2c0.1,0,0.1-0.1,0.2-0.2
				c0.1-0.2-0.2-0.4-0.3-0.5c-0.1-0.1-0.2-0.1-0.4,0C9,30.1,9.1,30,9.2,29.9c0.2-0.2,0.2-0.5,0-0.5c0.1-0.2-0.2-0.3-0.4-0.2
				c0-0.3-0.3-0.3-0.5,0c0,0-0.1-0.1-0.1-0.1c0,0-0.1,0-0.1,0c-0.2,0.2-0.2,0.5-0.2,0.8c-0.1-0.1-0.1-0.3-0.3-0.4
				c-0.2-0.1-0.5-0.1-0.6,0.1c-0.1,0.2,0,0.3,0.1,0.5c-0.1,0-0.2,0-0.3,0.1c-0.1,0-0.1,0.1,0,0.1c0.1,0,0.1,0.1,0.2,0.1
				c-0.1,0.1-0.2,0.1-0.3,0.3c0,0,0,0.1,0,0.1c0.1,0,0.2,0,0.3,0.1C7,31,7,31.1,7.3,31.1c0.1,0,0.2,0,0.3-0.1
				c-0.1,0.1-0.2,0.2-0.3,0.4c-0.1,0.3,0,0.4,0.2,0.3c0,0.2,0.2,0.3,0.4,0.1c0.1,0.3,0.4,0.2,0.5-0.1c0,0,0.1,0.1,0.1,0.1
				c0,0,0.1,0,0.1,0c0.1-0.2,0.1-0.4,0.1-0.7C8.8,31.4,9,31.6,9.4,31.5C9.4,31.6,9.5,31.5,9.4,31.5z"/>
			<path class="st5" d="M9.1,31.2c0,0,0-0.1-0.1-0.1c0.1,0,0.2-0.1,0.1-0.2c0-0.1-0.1-0.1-0.1-0.2c0.1,0,0.1-0.1,0.1-0.1
				c0.1-0.2-0.1-0.3-0.2-0.4c-0.1,0-0.2,0-0.3,0c0.1-0.1,0.1-0.1,0.2-0.2c0.1-0.2,0.2-0.4,0-0.4c0-0.2-0.1-0.3-0.3-0.1
				c0-0.2-0.3-0.2-0.4,0c0,0-0.1-0.1-0.1-0.1c0,0-0.1,0-0.1,0C8,29.6,8,29.8,8,30c-0.1-0.1-0.1-0.2-0.2-0.3
				c-0.1-0.1-0.4-0.1-0.5,0.1c-0.1,0.1,0,0.3,0.1,0.3c-0.1,0-0.2,0-0.3,0.1c0,0,0,0.1,0,0.1c0.1,0,0.1,0.1,0.2,0.1
				c-0.1,0-0.1,0.1-0.2,0.2c0,0,0,0.1,0,0.1c0.1,0,0.1,0,0.2,0.1c0,0.1,0,0.2,0.2,0.2c0.1,0,0.1,0,0.2,0c-0.1,0.1-0.1,0.2-0.2,0.3
				c-0.1,0.2,0,0.3,0.1,0.2c0,0.2,0.2,0.2,0.3,0.1c0.1,0.2,0.3,0.2,0.4-0.1c0,0,0.1,0.1,0.1,0.1c0,0,0.1,0,0.1,0
				c0.1-0.2,0.1-0.3,0.1-0.5C8.7,31.2,8.8,31.3,9.1,31.2C9.1,31.3,9.1,31.3,9.1,31.2z"/>
			<path class="st4" d="M7.6,30.6C7.7,30.6,7.7,30.6,7.6,30.6c0,0.1,0,0.1,0.1,0.1c0,0,0.1,0,0.1,0c0,0,0,0.1,0,0.1
				c0,0.1,0.1,0.1,0.2,0c0,0,0.1,0,0.1-0.1c0,0,0,0.1,0,0.1c0,0.1,0.1,0.2,0.1,0.1c0,0.1,0.1,0,0.1,0c0.1,0.1,0.2,0,0.1-0.1
				c0,0,0,0,0.1,0c0,0,0,0,0,0c0-0.1-0.1-0.2-0.1-0.3c0.1,0,0.1,0,0.2,0c0.1,0,0.1-0.1,0.1-0.2c0-0.1-0.1-0.1-0.2-0.1
				c0,0,0-0.1,0.1-0.1c0,0,0,0,0,0c0,0-0.1,0-0.1,0c0,0,0-0.1,0-0.1c0,0,0,0,0,0c0,0-0.1,0-0.1,0.1c0-0.1-0.1-0.1-0.1,0
				c0,0,0,0.1,0,0.1c0-0.1,0-0.1,0-0.2c0-0.1-0.1-0.1-0.1,0C8,29.9,8,30,8,30.1c-0.1-0.1-0.2,0-0.1,0.1c0,0,0,0-0.1,0c0,0,0,0,0,0
				c0,0.1,0.1,0.1,0.2,0.2C7.8,30.4,7.7,30.5,7.6,30.6C7.6,30.6,7.6,30.6,7.6,30.6z"/>
		</g>
		<g>
			<path class="st4" d="M7.7,33.6c0,0.6,0.2,1,0.5,1c0.3,0,0.5-0.4,0.6-1c0-0.6-0.2-1-0.5-1C7.9,32.7,7.7,33.1,7.7,33.6z"/>
			<path class="st4" d="M6.7,36.3c0.9-0.6,0-2.7,1.5-2.7c1.5,0,0.5,2.1,1.4,2.8c0,0,0.1,0.1,0,0.2c-0.4,0.6-1.5,0.5-2.1,0.4
				c-0.3-0.1-0.6-0.2-0.9-0.5C6.6,36.4,6.6,36.3,6.7,36.3z"/>
			<path class="st6" d="M6.7,36.3c0.9-0.6,0-2.7,1.5-2.7c1.5,0,0.5,2.1,1.4,2.8c0,0,0.1,0.1,0,0.2c-0.4,0.6-1.5,0.5-2.1,0.4
				c-0.3-0.1-0.6-0.2-0.9-0.5C6.6,36.4,6.6,36.3,6.7,36.3z"/>
			<g>
				<defs>
					<path id="SVGID_1_" d="M6.7,36.3c0.9-0.6,0-2.7,1.5-2.7c1.5,0,0.5,2.1,1.4,2.8c0,0,0.1,0.1,0,0.2c-0.4,0.6-1.5,0.5-2.1,0.4
						c-0.3-0.1-0.6-0.2-0.9-0.5C6.6,36.4,6.6,36.3,6.7,36.3z"/>
				</defs>
				<clipPath id="SVGID_00000044144873156814056230000002759722842439793840_">
					<use xlink:href="#SVGID_1_"  style="overflow:visible;"/>
				</clipPath>
				
					<linearGradient id="SVGID_00000124857071170369173470000005327277387066858150_" gradientUnits="userSpaceOnUse" x1="6.3884" y1="37.1137" x2="10.1844" y2="37.1137">
					<stop  offset="0" style="stop-color:#D8C257"/>
					<stop  offset="1" style="stop-color:#D6B71D"/>
				</linearGradient>
				
					<path style="clip-path:url(#SVGID_00000044144873156814056230000002759722842439793840_);fill:url(#SVGID_00000124857071170369173470000005327277387066858150_);" d="
					M7.6,36.4l0.2-0.3l0.1,0.4c0.7-0.4,2-0.1,2-0.1l0.3,0.9c0,0.1-1.3,0.7-1.3,0.7s-2.2-0.1-2.2-0.2c0-0.1-0.3-1.5-0.3-1.5
					C6.6,36.1,7.6,36.4,7.6,36.4z"/>
			</g>
			<g>
				<path class="st8" d="M8.3,35.5c0,0.3-0.1,0.6-0.1,0.9c0,0,0,0-0.1,0c0-1,0.4-1.9-0.1-2.8c0,0,0-0.1,0.1,0
					C8.4,34.2,8.4,34.8,8.3,35.5z"/>
				<path class="st8" d="M7.5,36.4C7.5,36.4,7.4,36.4,7.5,36.4c0.2-0.9-0.1-2.2,0.5-2.9c0,0,0.1,0,0,0C7.4,34.2,7.7,35.5,7.5,36.4z"
					/>
				<path class="st8" d="M8.6,36.4C8.6,36.3,8.6,36.3,8.6,36.4c-0.4-1,0.3-1.9-0.4-2.8c0,0,0-0.1,0.1,0C8.6,34,8.7,34.5,8.6,35
					c0,0.4-0.1,0.7-0.1,1.1C8.6,36.1,8.6,36.2,8.6,36.4C8.7,36.4,8.7,36.4,8.6,36.4z"/>
			</g>
			<path class="st4" d="M8.8,33.8c-0.3-0.2-0.7-0.2-1.1,0c-0.1,0.1-0.2-0.2-0.1-0.2c0.4-0.2,0.9-0.2,1.3,0C9,33.7,8.9,33.9,8.8,33.8
				L8.8,33.8z"/>
		</g>
	</g>
</g>
</svg>
