<?xml version="1.0" encoding="utf-8"?>
<!-- Generator: Adobe Illustrator 26.2.1, SVG Export Plug-In . SVG Version: 6.00 Build 0)  -->
<svg version="1.1" id="Layer_1" xmlns="http://www.w3.org/2000/svg" xmlns:xlink="http://www.w3.org/1999/xlink" x="0px" y="0px"
	 viewBox="0 0 20 20" style="enable-background:new 0 0 20 20;" xml:space="preserve">
<style type="text/css">
	.st0{fill:#BE1A17;}
</style>
<g>
	<path class="st0" d="M0.9,7.1C0.9,6.6,1,6.2,1,5.8c0-0.2,0.1-0.3,0.1-0.6c0-0.2,0.2-0.3,0.5-0.3C1.9,4.9,2,5.1,2,5.3
		C2,5.4,2,5.7,2,5.8C2,6.2,1.9,6.6,1.9,7c0,0.4,0,0.9,0.2,1.2c0.1,0.1,0.2,0.2,0.2,0.2c0.2,0,0.4-0.2,0.5-0.3c0.3-0.3,0.4-1,0.6-1.7
		c0.1-0.3,0.1-0.7,0.2-0.9c0.1-0.2,0.1-0.4,0.2-0.5S3.9,5,4,5c0.3,0,0.4,0.2,0.4,0.3l0,0C4.4,5.9,4.3,6.4,4.3,6.9
		c0,0.6,0.1,1.1,0.3,1.6c0,0.1,0.1,0.1,0.1,0.1C4.7,8.8,4.6,9,4.3,9C3.9,9,3.8,8.4,3.7,8.2C3.5,8.6,3.1,9,2.4,9C2.2,9,2,8.9,1.9,8.9
		C1,8.5,0.9,7.6,0.9,7.1z"/>
	<path class="st0" d="M5.2,6.9V6.7c0-0.4,0-0.9,0.1-1.3C5.2,5.2,5.4,5,5.6,5c0.2,0,0.5,0.1,0.5,0.3l0,0c0,0.3-0.1,0.7-0.1,0.9
		C6.4,5.8,6.9,5,7.7,5c0.9,0,1.1,0.9,1.2,1.3C8.9,7,9,7.6,9,8.4v0.2c0,0.3-0.2,0.4-0.5,0.4C8.2,8.9,8,8.8,8,8.6V8.5
		c0-0.4,0-0.7,0-1.1c0-0.3,0-0.6-0.1-0.9c0-0.2-0.1-0.4-0.1-0.6c0-0.1-0.1-0.1-0.1-0.2c0-0.1-0.1-0.1-0.1-0.1H7.6
		c-0.1,0-0.2,0.1-0.2,0.1C7.3,5.9,7.3,6,7.2,6c-0.7,0.7-0.9,1.8-1,2.7C6.1,8.9,6,8.9,5.7,8.9c-0.3,0-0.4-0.2-0.4-0.3
		C5.2,8.1,5.2,7.5,5.2,6.9z"/>
	<path class="st0" d="M9.9,9.3c0.1,0,0.2,0.1,0.3,0.1c0.1,0.1,0.1,0.1,0.1,0.2c0.1,0.2,0.3,0.2,0.6,0.2c0.2,0,0.3-0.1,0.5-0.1
		c0.7-0.3,0.8-0.9,0.8-1.5c0-0.3,0-0.6-0.1-0.8c-0.3,0.5-0.9,1.3-1.6,1.3c-0.8,0-1.1-0.6-1.1-1.2c0-0.8,0.7-2,1.8-2.4
		C11.4,5,11.6,5,11.7,5c0.1,0,0.2,0,0.3,0s0.2,0.1,0.3,0.1s0.2,0.1,0.3,0.1C12.9,5.2,13,5.3,13,5.4c0,0.3,0,0.6,0,0.8
		c0,0.4,0,0.8,0.1,1.2c0,0.2,0,0.4,0,0.6c0,0.5-0.1,1.2-0.4,1.7c-0.3,0.4-1,0.8-1.8,0.8c-0.4,0-0.8-0.1-1-0.3
		C9.7,10,9.5,9.8,9.5,9.6C9.4,9.5,9.6,9.3,9.9,9.3z M10.5,8.1c0.1,0,0.1,0,0.2-0.1C10.7,8,10.7,8,10.8,8c0.3-0.3,0.6-0.7,0.8-1.1
		c0.2-0.4,0.3-0.8,0.4-1.2c-0.1-0.1-0.2-0.1-0.3-0.1c-0.3,0-0.5,0.2-0.7,0.3c-0.5,0.4-0.8,1.1-0.8,1.6C10.1,7.8,10.1,8.1,10.5,8.1z"
		/>
	<path class="st0" d="M13.5,7.4c0-1.1,0.8-2.4,2.3-2.4c0.3,0,0.7,0.1,0.9,0.2c0.1,0.1,0.4,0.2,0.4,0.4l0,0c-0.1,0.5-0.1,1-0.1,1.5
		c0,0.6,0.1,1,0.4,1.5c0,0.1,0.1,0.1,0.1,0.1C17.5,8.9,17.2,9,17,9c-0.2,0-0.3-0.1-0.4-0.2c-0.2-0.2-0.3-0.7-0.3-1.1
		C16,8.3,15.4,9,14.6,9C13.7,9,13.5,8,13.5,7.4z M14.5,8.3c0.1,0.1,0.1,0.1,0.2,0.1c0.2,0,0.4-0.2,0.6-0.4c0.4-0.6,0.8-1.5,1-2.2
		c-0.1-0.1-0.3-0.1-0.4-0.1c-0.2,0-0.4,0.1-0.6,0.2c-0.7,0.4-0.9,1.2-0.9,1.8C14.3,7.8,14.3,8,14.5,8.3z"/>
	<path class="st0" d="M18.1,7.8c0-0.7-0.1-1.3-0.1-2c0-0.5,0-0.9,0.1-1.4c0-0.2,0-0.4,0.1-0.7c0.1-0.2,0.2-0.3,0.4-0.3
		c0.3,0,0.4,0.2,0.4,0.3l0,0C19,4.4,19,5,19,5.7s0,1.3,0.1,2c0,0.3,0.1,0.6,0.1,0.9c0,0.2-0.2,0.3-0.4,0.3c-0.3,0-0.4-0.2-0.4-0.3
		c0-0.1,0-0.2,0-0.3L18.1,7.8z"/>
	<path class="st0" d="M4.4,14.2L4.4,12c0-0.1,0-0.3,0-0.4s0.2-0.3,0.5-0.3c0.3,0,0.5,0.1,0.5,0.3s0,0.4,0,0.7l-0.1,2.3
		c0,0.2,0,0.3,0,0.4s-0.2,0.3-0.5,0.3c-0.3,0-0.5-0.1-0.5-0.3S4.4,14.5,4.4,14.2z M4.5,10.5c0-0.1,0-0.2,0-0.3c0-0.1,0-0.2,0.1-0.3
		C4.6,9.7,4.8,9.6,5,9.6c0.3,0,0.5,0.2,0.5,0.3l0,0c0,0.2,0,0.4-0.1,0.6c0,0.2-0.2,0.3-0.4,0.3s-0.5-0.2-0.5-0.3V10.5z"/>
	<path class="st0" d="M6.1,16.1c0-0.1,0.1-0.3,0.4-0.3c0.1,0,0.2,0.1,0.3,0.1L6.9,16c0.1,0.1,0.2,0.2,0.6,0.2h0.1
		C8.8,16,8.8,15,8.8,14.3v-0.2C8.5,14.5,8.1,15,7.4,15C6.1,15,6,14,6,13.4c0-0.6,0.1-1.2,0.2-1.8c0.1-0.2,0.3-0.3,0.6-0.3
		c0.3,0,0.4,0.2,0.4,0.3c0,0.3-0.1,0.7-0.2,1C7,12.9,7,13.2,7,13.5c0,0.2,0,0.8,0.4,0.8c0.4,0,0.7-0.6,0.8-0.8
		c0.3-0.6,0.3-1.2,0.4-1.8c0,0,0-0.1,0.1-0.2c0-0.1,0-0.1,0-0.1c0,0,0,0,0-0.1c0,0,0,0,0-0.1c0.1-0.1,0.2-0.2,0.4-0.2
		c0.3,0,0.6,0.1,0.6,0.3c0,0.1,0,0.2,0,0.2c0,0.7,0.1,1.4,0.1,2.2c0,0.6-0.1,1.3-0.5,1.8c-0.4,0.6-1.2,0.9-1.9,0.9
		C6.8,16.7,6.3,16.5,6.1,16.1C6.1,16.2,6.1,16.2,6.1,16.1z"/>
	<path class="st0" d="M12.3,11.2c0.7,0,1.3,0.3,1.3,0.9c0,0.7-0.9,1.5-2.1,1.5c-0.1,0-0.1,0-0.1,0c0.2,0.6,0.6,1.1,1.6,1.1
		c0.1,0,0.1,0,0.2,0c0.3,0,0.4,0.2,0.4,0.3c0,0.3-0.4,0.3-0.7,0.3c-1.5,0-2.4-0.9-2.4-2.2C10.4,12.2,10.9,11.2,12.3,11.2z
		 M11.5,12.9c0.3,0,0.6-0.1,0.7-0.2c0.3-0.2,0.6-0.4,0.6-0.7c0-0.2-0.2-0.2-0.4-0.2c-0.7,0-1.1,0.5-1.1,1.1
		C11.4,12.9,11.5,12.9,11.5,12.9z"/>
	<path class="st0" d="M14.4,14c0-0.8-0.1-1.6-0.3-2.3v-0.1c0-0.2,0.3-0.3,0.6-0.3c0.2,0,0.3,0.1,0.4,0.2c0,0.1,0.1,0.2,0.1,0.2
		c0,0.1,0,0.2,0.1,0.2c0.1,0.2,0.1,0.4,0.1,0.6c0.3-0.4,1.1-1.2,1.7-1.2c0.3,0,0.4,0.2,0.4,0.3c0,0.1-0.1,0.2-0.2,0.2
		c-0.1,0-0.1,0.1-0.2,0.1S17,12,16.9,12c-0.5,0.2-0.9,0.7-1.1,1.1c-0.2,0.4-0.3,0.8-0.3,1.2c0,0.1-0.1,0.3-0.1,0.4
		c-0.1,0.3-0.1,0.6-0.6,0.6c-0.3,0-0.5-0.1-0.5-0.3C14.3,14.6,14.4,14.3,14.4,14z"/>
</g>
</svg>
